<svg xmlns="http://www.w3.org/2000/svg" viewBox="0 0 127 127"><defs><style>.\32 909dbcf-e690-42b5-af1a-8a49a3530e1e,.aaff7a77-8c67-4002-b7b6-ce234008cf91,.b6937b7b-368a-4293-ac05-56e406e5731d,.c6c95c6b-4562-480d-b26d-69494a54b146,.e0e7de21-cdc6-4a8f-a756-80967adcbd15{fill:none;stroke-miterlimit:10;}.aaff7a77-8c67-4002-b7b6-ce234008cf91{stroke:#999;}.aaff7a77-8c67-4002-b7b6-ce234008cf91,.b6937b7b-368a-4293-ac05-56e406e5731d,.c6c95c6b-4562-480d-b26d-69494a54b146{stroke-width:2px;}.e0e7de21-cdc6-4a8f-a756-80967adcbd15{stroke:#dd5732;stroke-width:31px;}.b6937b7b-368a-4293-ac05-56e406e5731d{stroke:#838281;}.\32 909dbcf-e690-42b5-af1a-8a49a3530e1e,.c6c95c6b-4562-480d-b26d-69494a54b146{stroke:#828181;}.\32 909dbcf-e690-42b5-af1a-8a49a3530e1e{stroke-width:1.5px;}</style></defs><title>iot</title><g id="3f5c81cd-729a-420c-9a0d-5eef144d43c7" data-name="Layer 2"><g id="eed208d5-4d68-4058-901c-c12f3891fa9e" data-name="Camada 1"><circle id="06c2c65a-25dc-43c9-90f1-38123f6dedf7" data-name="&lt;Ellipse&gt;" class="aaff7a77-8c67-4002-b7b6-ce234008cf91" cx="63.5" cy="63.5" r="62.5"/><line id="6dd33906-bcaf-4af4-ab4a-49cb71897d17" data-name="&lt;Path&gt;" class="e0e7de21-cdc6-4a8f-a756-80967adcbd15" x1="63.5" y1="91.67" x2="63.5" y2="38.3"/><polyline id="1dc5e1ac-76e5-4038-af3f-a1e48d2d7c9c" data-name="&lt;Path&gt;" class="b6937b7b-368a-4293-ac05-56e406e5731d" points="31.41 73.01 36.55 68.1 37.37 68.1 44.74 68.1"/><polyline id="7e196ba4-cbbb-4126-beb3-dc95258021bc" data-name="&lt;Path&gt;" class="b6937b7b-368a-4293-ac05-56e406e5731d" points="95.36 73.01 90.21 68.1 89.4 68.1 82.03 68.1"/><polyline id="d48eef28-145d-4c4f-8a99-14c60e3666a6" data-name="&lt;Path&gt;" class="b6937b7b-368a-4293-ac05-56e406e5731d" points="31.41 53.84 36.55 58.75 37.37 58.75 44.74 58.75"/><polyline id="e3bf42c9-2a57-420a-9c90-40b366cbf326" data-name="&lt;Path&gt;" class="b6937b7b-368a-4293-ac05-56e406e5731d" points="95.46 53.73 90.32 58.63 89.5 58.63 82.13 58.63"/><path id="a08e3a59-efb2-4e1f-a088-590363191d43" data-name="&lt;Path&gt;" class="c6c95c6b-4562-480d-b26d-69494a54b146" d="M36.22,66.69"/><line id="9defe2c2-7033-43e7-9dee-6bb5921db360" data-name="&lt;Path&gt;" class="c6c95c6b-4562-480d-b26d-69494a54b146" x1="93.04" y1="64.99" x2="82.13" y2="64.99"/><line id="e55b80ff-b58a-4817-9016-0df724e52e5b" data-name="&lt;Path&gt;" class="c6c95c6b-4562-480d-b26d-69494a54b146" x1="44.74" y1="64.99" x2="33.83" y2="64.99"/><line id="75575762-8524-4ae2-83c4-9c871d1e8e05" data-name="&lt;Path&gt;" class="c6c95c6b-4562-480d-b26d-69494a54b146" x1="44.74" y1="61.87" x2="33.83" y2="61.87"/><line id="4ad63606-23c7-423a-86f7-1b1f1ded06cf" data-name="&lt;Path&gt;" class="c6c95c6b-4562-480d-b26d-69494a54b146" x1="93.04" y1="61.87" x2="82.13" y2="61.87"/><line id="f6787066-294f-47e0-a48d-3ef4f8d5e80f" data-name="&lt;Path&gt;" class="c6c95c6b-4562-480d-b26d-69494a54b146" x1="99.27" y1="61.87" x2="94.6" y2="61.87"/><line id="9f8e096c-eefe-4682-9bf8-2e911b8ceec9" data-name="&lt;Path&gt;" class="c6c95c6b-4562-480d-b26d-69494a54b146" x1="99.27" y1="64.99" x2="94.6" y2="64.99"/><line id="dad83591-200d-4dd9-9c6f-d0afe455bbb9" data-name="&lt;Path&gt;" class="c6c95c6b-4562-480d-b26d-69494a54b146" x1="32.27" y1="64.99" x2="27.6" y2="64.99"/><line id="a478088b-a202-4723-8169-f4ec5669cd37" data-name="&lt;Path&gt;" class="c6c95c6b-4562-480d-b26d-69494a54b146" x1="32.27" y1="61.87" x2="27.6" y2="61.87"/><path id="90869fd5-489e-461b-942a-7d366e7c3b77" data-name="&lt;Path&gt;" class="c6c95c6b-4562-480d-b26d-69494a54b146" d="M44,54.86V35.4a4.77,4.77,0,0,1,4.61-4.8H78.25a4.77,4.77,0,0,1,4.61,4.8V54.86"/><path id="b7d23581-4d2c-4b47-9123-51b73e2a9d84" data-name="&lt;Path&gt;" class="c6c95c6b-4562-480d-b26d-69494a54b146" d="M82.89,70.56V91.29a5,5,0,0,1-4.61,5.11H48.59A5,5,0,0,1,44,91.29V70.56"/><circle id="aea98f93-3ded-4e9c-b9d8-4f55c7d3f0c5" data-name="&lt;Path&gt;" class="2909dbcf-e690-42b5-af1a-8a49a3530e1e" cx="63.43" cy="34.65" r="0.75"/><circle class="c6c95c6b-4562-480d-b26d-69494a54b146" cx="29.22" cy="75.18" r="2.64"/><circle class="c6c95c6b-4562-480d-b26d-69494a54b146" cx="29.22" cy="51.81" r="2.64"/><circle class="c6c95c6b-4562-480d-b26d-69494a54b146" cx="97.78" cy="75.18" r="2.64"/><circle class="c6c95c6b-4562-480d-b26d-69494a54b146" cx="96.22" cy="51.81" r="2.64"/></g></g></svg>