<svg xmlns="http://www.w3.org/2000/svg" viewBox="0 0 127 127"><defs><style>.\37 9467428-59bb-423e-94d6-724c8d65da3e,.\38 938a608-9343-4f50-8f77-8bffbfac7f82,.bad627ad-1ab8-4cf9-9bd1-57c7d119eb5a,.dd93b2e8-d58a-4e5a-a524-503aed984d16,.fcf334ac-c5b2-4203-801c-e581911a8b6c{fill:none;stroke-miterlimit:10;}.dd93b2e8-d58a-4e5a-a524-503aed984d16{stroke:#999;}.\37 9467428-59bb-423e-94d6-724c8d65da3e,.dd93b2e8-d58a-4e5a-a524-503aed984d16{stroke-width:2px;}.\37 9467428-59bb-423e-94d6-724c8d65da3e,.fcf334ac-c5b2-4203-801c-e581911a8b6c{stroke:#828181;}.bad627ad-1ab8-4cf9-9bd1-57c7d119eb5a{stroke:#624793;stroke-width:30px;}.\38 938a608-9343-4f50-8f77-8bffbfac7f82{stroke:#fff;stroke-width:3px;}.fcf334ac-c5b2-4203-801c-e581911a8b6c{stroke-width:1.5px;}</style></defs><title>mobile</title><g id="05d29fa0-46c0-4fe3-8f95-16c88ac194e4" data-name="Layer 2"><g id="31c6b3ce-c863-4383-9ada-8d409dea5514" data-name="Camada 1"><circle id="fecff358-c8cb-43dc-8c8b-67a42d5048fc" data-name="&lt;Ellipse&gt;" class="dd93b2e8-d58a-4e5a-a524-503aed984d16" cx="63.5" cy="63.5" r="62.5"/><path id="984ab418-949b-4eb3-b5a6-83ff6adbba1f" data-name="&lt;Path&gt;" class="79467428-59bb-423e-94d6-724c8d65da3e" d="M45.51,54.93v-20A4.84,4.84,0,0,1,50.11,30H79.72a4.84,4.84,0,0,1,4.6,4.93v20"/><path id="5cd8243d-4b57-43dc-a2c6-868b5bd42bb4" data-name="&lt;Path&gt;" class="79467428-59bb-423e-94d6-724c8d65da3e" d="M84.32,71.29v20a4.84,4.84,0,0,1-4.6,4.93H50.11a4.84,4.84,0,0,1-4.6-4.93v-20"/><line id="0abef129-34c5-4df8-83c8-568cd98c6896" data-name="&lt;Path&gt;" class="bad627ad-1ab8-4cf9-9bd1-57c7d119eb5a" x1="64.91" y1="90.18" x2="64.91" y2="36.82"/><g id="42fd0ada-2322-4d3b-9fdf-0577158f7e4e" data-name="&lt;Group&gt;"><path id="f3696b8c-0aad-4125-8a73-66fb3fb1c59e" data-name="&lt;Compound Path&gt;" class="8938a608-9343-4f50-8f77-8bffbfac7f82" d="M68,78.69H65.83a5,5,0,0,1-5-5.18V67c0-1.29-.6-2.38-1.82-2.38V62.41c1.23,0,1.82-1.08,1.82-2.38V53.52a5,5,0,0,1,5-5.22H68"/></g><circle id="f3a4c74b-6426-49e0-aba1-6acc6d49d1c2" data-name="&lt;Path&gt;" class="fcf334ac-c5b2-4203-801c-e581911a8b6c" cx="64.91" cy="34.33" r="0.75"/></g></g></svg>