<svg xmlns="http://www.w3.org/2000/svg" viewBox="0 0 127 127"><defs><style>.\31 4ed0424-4b3d-429f-8885-7387e9ba7324,.\32 f8ccfd2-7f11-4c15-ba22-94b6e312c69c,.\33 a091250-a5cc-4861-8c9c-267ebc5003f7,.\34 5603f3e-67aa-47ff-93cb-78bc1858b540,.f56115ba-300e-4082-96cf-bc8928e47ab9,.fc7924de-4a08-4d3f-88bd-5f9aed6974bb{fill:none;}.\31 4ed0424-4b3d-429f-8885-7387e9ba7324{stroke:#999;}.\31 4ed0424-4b3d-429f-8885-7387e9ba7324,.\32 f8ccfd2-7f11-4c15-ba22-94b6e312c69c,.\33 a091250-a5cc-4861-8c9c-267ebc5003f7,.\34 5603f3e-67aa-47ff-93cb-78bc1858b540,.\39 f73d846-7f32-4210-8c3b-70c31ba07982,.f56115ba-300e-4082-96cf-bc8928e47ab9,.fc7924de-4a08-4d3f-88bd-5f9aed6974bb{stroke-miterlimit:10;}.\31 4ed0424-4b3d-429f-8885-7387e9ba7324,.\33 a091250-a5cc-4861-8c9c-267ebc5003f7,.\34 5603f3e-67aa-47ff-93cb-78bc1858b540,.f56115ba-300e-4082-96cf-bc8928e47ab9{stroke-width:2px;}.\39 f73d846-7f32-4210-8c3b-70c31ba07982{fill:#828181;stroke:#000;}.\32 f8ccfd2-7f11-4c15-ba22-94b6e312c69c{stroke:#dd5732;stroke-width:31px;}.\34 5603f3e-67aa-47ff-93cb-78bc1858b540{stroke:#e31719;}.f56115ba-300e-4082-96cf-bc8928e47ab9{stroke:#838281;}.\33 a091250-a5cc-4861-8c9c-267ebc5003f7,.fc7924de-4a08-4d3f-88bd-5f9aed6974bb{stroke:#828181;}.fc7924de-4a08-4d3f-88bd-5f9aed6974bb{stroke-width:1.5px;}</style></defs><title>mobile</title><g id="6702690f-a9ec-4968-9fc6-c398a1317ed6" data-name="Layer 2"><g id="2340629c-6031-4baf-8137-90acf85f4271" data-name="Camada 1"><circle id="0273c54e-67ac-43cc-87d2-69add2267c9c" data-name="&lt;Ellipse&gt;" class="14ed0424-4b3d-429f-8885-7387e9ba7324" cx="63.5" cy="63.5" r="62.5"/><path id="990d02b3-b8c0-4423-b1c9-b63834c428d0" data-name="&lt;Path&gt;" class="9f73d846-7f32-4210-8c3b-70c31ba07982" d="M41.62,69.66"/><line id="41b68f51-67bd-4a4c-b8f0-da91ab9a1613" data-name="&lt;Path&gt;" class="2f8ccfd2-7f11-4c15-ba22-94b6e312c69c" x1="63.5" y1="91.67" x2="63.5" y2="38.3"/><path id="bfdaf72f-d7bb-488d-a83d-8c10fe6ee3ff" data-name="&lt;Path&gt;" class="45603f3e-67aa-47ff-93cb-78bc1858b540" d="M37.07,68.1"/><polyline id="f46725b8-94d7-4e36-b848-2382fa17e72e" data-name="&lt;Path&gt;" class="f56115ba-300e-4082-96cf-bc8928e47ab9" points="31.41 73.01 36.55 68.1 37.37 68.1 44.74 68.1"/><polyline id="b02327a7-00d3-44e7-837c-af0833313cd0" data-name="&lt;Path&gt;" class="f56115ba-300e-4082-96cf-bc8928e47ab9" points="95.36 73.01 90.21 68.1 89.4 68.1 82.03 68.1"/><polyline id="1a458f4c-1c64-4268-a5a2-1c008ca2111c" data-name="&lt;Path&gt;" class="f56115ba-300e-4082-96cf-bc8928e47ab9" points="31.41 53.84 36.55 58.75 37.37 58.75 44.74 58.75"/><polyline id="468fdb68-62c8-42ff-960d-159fb06f8fbf" data-name="&lt;Path&gt;" class="f56115ba-300e-4082-96cf-bc8928e47ab9" points="95.46 53.73 90.32 58.63 89.5 58.63 82.13 58.63"/><path id="9d739e28-6dba-4f89-9c4c-b5b186c52731" data-name="&lt;Path&gt;" class="3a091250-a5cc-4861-8c9c-267ebc5003f7" d="M36.22,66.69"/><line id="e2584b4f-0d12-4018-bc00-656affe63054" data-name="&lt;Path&gt;" class="3a091250-a5cc-4861-8c9c-267ebc5003f7" x1="93.04" y1="64.99" x2="82.13" y2="64.99"/><line id="a22c5d39-2909-4ba1-aebc-135d8c2ab178" data-name="&lt;Path&gt;" class="3a091250-a5cc-4861-8c9c-267ebc5003f7" x1="44.74" y1="64.99" x2="33.83" y2="64.99"/><line id="4f5af57b-efd0-4018-b6ec-96377fc0e3db" data-name="&lt;Path&gt;" class="3a091250-a5cc-4861-8c9c-267ebc5003f7" x1="44.74" y1="61.87" x2="33.83" y2="61.87"/><line id="b653009e-5792-4d0a-a71c-f40baf67fd31" data-name="&lt;Path&gt;" class="3a091250-a5cc-4861-8c9c-267ebc5003f7" x1="93.04" y1="61.87" x2="82.13" y2="61.87"/><line id="54e58daa-c0ec-43d7-bb09-70c239c0b64d" data-name="&lt;Path&gt;" class="3a091250-a5cc-4861-8c9c-267ebc5003f7" x1="99.27" y1="61.87" x2="94.6" y2="61.87"/><line id="d4fd4d42-eea6-4aa7-b882-15cf93cf6c0a" data-name="&lt;Path&gt;" class="3a091250-a5cc-4861-8c9c-267ebc5003f7" x1="99.27" y1="64.99" x2="94.6" y2="64.99"/><line id="ef0f253b-5970-460c-a5bc-05fb407eb3f3" data-name="&lt;Path&gt;" class="3a091250-a5cc-4861-8c9c-267ebc5003f7" x1="32.27" y1="64.99" x2="27.6" y2="64.99"/><line id="33c70f3f-64ed-45ef-8629-34405a8d4d57" data-name="&lt;Path&gt;" class="3a091250-a5cc-4861-8c9c-267ebc5003f7" x1="32.27" y1="61.87" x2="27.6" y2="61.87"/><path id="652404ff-5084-47f7-9cf2-4f6081e17435" data-name="&lt;Path&gt;" class="3a091250-a5cc-4861-8c9c-267ebc5003f7" d="M44,54.86V35.4a4.77,4.77,0,0,1,4.61-4.8H78.25a4.77,4.77,0,0,1,4.61,4.8V54.86"/><path id="36b1a6c2-667f-4001-8db4-eb88ee831ca1" data-name="&lt;Path&gt;" class="3a091250-a5cc-4861-8c9c-267ebc5003f7" d="M82.89,70.56V91.29a5,5,0,0,1-4.61,5.11H48.59A5,5,0,0,1,44,91.29V70.56"/><circle id="e049ce61-aa66-4124-9121-416d03a42d42" data-name="&lt;Path&gt;" class="fc7924de-4a08-4d3f-88bd-5f9aed6974bb" cx="63.43" cy="34.65" r="0.75"/><circle class="3a091250-a5cc-4861-8c9c-267ebc5003f7" cx="29.22" cy="75.18" r="2.64"/><circle class="3a091250-a5cc-4861-8c9c-267ebc5003f7" cx="29.22" cy="51.81" r="2.64"/><circle class="3a091250-a5cc-4861-8c9c-267ebc5003f7" cx="97.78" cy="75.18" r="2.64"/><circle class="3a091250-a5cc-4861-8c9c-267ebc5003f7" cx="96.22" cy="51.81" r="2.64"/></g></g></svg>