<svg xmlns="http://www.w3.org/2000/svg" viewBox="0 0 127 127"><defs><style>.\32 19088f1-71a1-4da0-8004-524da126e4c7,.\33 76aa256-8d37-4a0b-b2aa-18622666a0ba,.\33 84f51dd-3adc-46b6-a9fc-7ec67aad06b2,.\34 a492b64-aa7f-4265-80cf-b73641477b8b,.\37 c19648e-5708-4423-aca3-b2d7985cd45b,.\38 a72f563-8d68-4cd0-a9cc-a287bcbabfcc{fill:none;stroke-miterlimit:10;}.\34 a492b64-aa7f-4265-80cf-b73641477b8b{stroke:#999;}.\33 76aa256-8d37-4a0b-b2aa-18622666a0ba,.\33 84f51dd-3adc-46b6-a9fc-7ec67aad06b2,.\34 a492b64-aa7f-4265-80cf-b73641477b8b{stroke-width:2px;}.\33 76aa256-8d37-4a0b-b2aa-18622666a0ba,.\38 a72f563-8d68-4cd0-a9cc-a287bcbabfcc{stroke:#828181;}.\32 19088f1-71a1-4da0-8004-524da126e4c7{stroke:#50b9b5;stroke-width:73px;}.\38 a72f563-8d68-4cd0-a9cc-a287bcbabfcc{stroke-width:1.5px;}.\33 84f51dd-3adc-46b6-a9fc-7ec67aad06b2,.\37 c19648e-5708-4423-aca3-b2d7985cd45b{stroke:#fff;}.\37 c19648e-5708-4423-aca3-b2d7985cd45b{stroke-width:3px;}</style></defs><title>web</title><g id="af507e35-6a53-49fb-bca2-9856eb24568c" data-name="Layer 2"><g id="ee6b1898-1966-4aa6-b717-071c5c14207c" data-name="Camada 1"><circle id="f9d7238c-71f9-4d23-ae7c-f911d467ac5e" data-name="&lt;Ellipse&gt;" class="4a492b64-aa7f-4265-80cf-b73641477b8b" cx="63.5" cy="63.5" r="62.5"/><path id="6ce9b0c3-c817-4195-8b9d-f3f40fce12a7" data-name="&lt;Path&gt;" class="376aa256-8d37-4a0b-b2aa-18622666a0ba" d="M105.49,66.76V83A4.59,4.59,0,0,1,101,87.51H28.72A4.59,4.59,0,0,1,24.2,83V66.76"/><path id="5272c3a9-7411-4beb-b169-e0e503720fb6" data-name="&lt;Path&gt;" class="376aa256-8d37-4a0b-b2aa-18622666a0ba" d="M24.2,53.19V37a4.59,4.59,0,0,1,4.51-4.55H101A4.59,4.59,0,0,1,105.49,37v16.2"/><line id="dcd5878c-1df8-442a-aed6-93a141c9c679" data-name="&lt;Path&gt;" class="219088f1-71a1-4da0-8004-524da126e4c7" x1="64.85" y1="81.55" x2="64.85" y2="38.2"/><circle id="0f377b1d-b74d-41df-b6dc-ffb49767a91c" data-name="&lt;Path&gt;" class="8a72f563-8d68-4cd0-a9cc-a287bcbabfcc" cx="64.85" cy="36.08" r="0.75"/><line id="44ca5f29-1a9c-4df7-8cdd-9e423bbc48cd" data-name="&lt;Path&gt;" class="376aa256-8d37-4a0b-b2aa-18622666a0ba" x1="77.26" y1="94.13" x2="51.9" y2="94.13"/><path id="d95966a9-5ca0-4781-92f4-d006bba4eb3a" data-name="&lt;Compound Path&gt;" class="384f51dd-3adc-46b6-a9fc-7ec67aad06b2" d="M50.56,74.11l8.3-24.75"/><path id="688f20c1-2bfe-43d1-909f-00bd16b12df1" data-name="&lt;Compound Path&gt;" class="7c19648e-5708-4423-aca3-b2d7985cd45b" d="M63.5,55.21l13.79,6.44v1.09L63.5,69.43"/></g></g></svg>