<svg xmlns="http://www.w3.org/2000/svg" viewBox="0 0 127 127"><defs><style>.\30 6625f60-5548-4785-9065-9616281eeb7a,.a5a9468b-d8eb-4f93-a3a9-ff02dd93d9da,.a9a981be-c51f-487d-acc3-0e773c4f582f,.bfd18684-fe00-48a5-b318-a70120889bde,.da6216a5-663b-49bf-b350-d2f576cfd871,.ebe3d445-6749-4bf0-b20c-f4f535ea2758{fill:none;stroke-miterlimit:10;}.a9a981be-c51f-487d-acc3-0e773c4f582f{stroke:#999;}.a9a981be-c51f-487d-acc3-0e773c4f582f,.bfd18684-fe00-48a5-b318-a70120889bde,.ebe3d445-6749-4bf0-b20c-f4f535ea2758{stroke-width:2px;}.\30 6625f60-5548-4785-9065-9616281eeb7a,.ebe3d445-6749-4bf0-b20c-f4f535ea2758{stroke:#828181;}.da6216a5-663b-49bf-b350-d2f576cfd871{stroke:#50b9b5;stroke-width:73px;}.\30 6625f60-5548-4785-9065-9616281eeb7a{stroke-width:1.5px;}.a5a9468b-d8eb-4f93-a3a9-ff02dd93d9da,.bfd18684-fe00-48a5-b318-a70120889bde{stroke:#fff;}.a5a9468b-d8eb-4f93-a3a9-ff02dd93d9da{stroke-width:3px;}</style></defs><title>web</title><g id="495f4c6d-3053-4c53-9b49-0260a80f745a" data-name="Layer 2"><g id="682d5372-ce3f-49fb-8b56-affc201a2041" data-name="Camada 1"><circle id="dfef36c4-cf90-452b-8eb9-8f3805cf8b1a" data-name="&lt;Ellipse&gt;" class="a9a981be-c51f-487d-acc3-0e773c4f582f" cx="63.5" cy="63.5" r="62.5"/><path id="50c61b68-84ef-4e39-ba7d-e30557bd45fc" data-name="&lt;Path&gt;" class="ebe3d445-6749-4bf0-b20c-f4f535ea2758" d="M105.49,66.76V83A4.59,4.59,0,0,1,101,87.51H28.72A4.59,4.59,0,0,1,24.2,83V66.76"/><path id="f6cf74b0-2ee2-4075-a349-e45ab1410317" data-name="&lt;Path&gt;" class="ebe3d445-6749-4bf0-b20c-f4f535ea2758" d="M24.2,53.19V37a4.59,4.59,0,0,1,4.51-4.55H101A4.59,4.59,0,0,1,105.49,37v16.2"/><line id="79d51e36-a4c0-483d-889e-751b44b98b94" data-name="&lt;Path&gt;" class="da6216a5-663b-49bf-b350-d2f576cfd871" x1="64.85" y1="81.55" x2="64.85" y2="38.2"/><circle id="30ea5390-9781-41a7-bc02-30ca3b036780" data-name="&lt;Path&gt;" class="06625f60-5548-4785-9065-9616281eeb7a" cx="64.85" cy="36.08" r="0.75"/><line id="0c7cfb9a-235b-4c38-958c-21e8cae5c599" data-name="&lt;Path&gt;" class="ebe3d445-6749-4bf0-b20c-f4f535ea2758" x1="77.26" y1="94.13" x2="51.9" y2="94.13"/><path id="5828b9f2-c0d0-46ff-a160-cf8adadfed21" data-name="&lt;Compound Path&gt;" class="bfd18684-fe00-48a5-b318-a70120889bde" d="M50.56,74.11l8.3-24.75"/><path id="b13aa79a-6293-4475-b1c1-6a9db46f93a9" data-name="&lt;Compound Path&gt;" class="a5a9468b-d8eb-4f93-a3a9-ff02dd93d9da" d="M63.5,55.21l13.79,6.44v1.09L63.5,69.43"/></g></g></svg>