<?xml version="1.0" encoding="UTF-8"?>
<svg width="934px" height="762px" viewBox="0 0 934 762" version="1.1" xmlns="http://www.w3.org/2000/svg" xmlns:xlink="http://www.w3.org/1999/xlink">
    <!-- Generator: Sketch 46 (44423) - http://www.bohemiancoding.com/sketch -->
    <title>Artboard</title>
    <desc>Created with Sketch.</desc>
    <defs></defs>
    <g id="Page-1" stroke="none" stroke-width="1" fill="none" fill-rule="evenodd">
        <g id="Artboard" stroke="#FFFFFF" stroke-width="4" fill-rule="nonzero">
            <path d="M901.9,499 L493.7,499 C487.5,499 482.4,494 482.4,487.7 L482.4,246.3 C482.4,240.1 487.4,235 493.7,235 L901.9,235 C908.1,235 913.2,240 913.2,246.3 L913.2,487.8 C913.1,494 908.1,499 901.9,499 Z" id="Shape"></path>
            <path d="M902.4,499 L493.1,499 C487.2,499 482.4,494.2 482.4,488.3 L482.4,260.9 C482.4,255 487.2,250.2 493.1,250.2 L902.4,250.2 C908.3,250.2 913.1,255 913.1,260.9 L913.1,488.2 C913.1,494.2 908.3,499 902.4,499 Z" id="Shape"></path>
            <path d="M903.4,499 L492.1,499 C486.8,499 482.4,503.3 482.4,508.7 L482.4,734.4 C482.4,739.7 486.7,744.1 492.1,744.1 L903.5,744.1 C908.8,744.1 913.2,739.8 913.2,734.4 L913.2,508.7 C913.1,503.3 908.8,499 903.4,499 Z" id="Shape"></path>
            <path d="M903.7,499 L491.8,499 C486.6,499 482.4,503.2 482.4,508.4 L482.4,722.9 C482.4,728.1 486.6,732.3 491.8,732.3 L903.7,732.3 C908.9,732.3 913.1,728.1 913.1,722.9 L913.1,508.4 C913.1,503.2 908.9,499 903.7,499 Z" id="Shape"></path>
            <path d="M889.4,513.4 L506.2,513.4 C502,513.4 498.5,516.8 498.5,521.1 L498.5,644 C498.5,648.2 501.9,651.7 506.2,651.7 L889.4,651.7 C893.6,651.7 897.1,648.3 897.1,644 L897.1,521.1 C897,516.8 893.6,513.4 889.4,513.4 Z" id="Shape"></path>
            <path d="M889.5,518.5 L506,518.5 C501.8,518.5 498.5,521.9 498.5,526 L498.5,644.1 C498.5,648.3 501.9,651.6 506,651.6 L889.5,651.6 C893.7,651.6 897,648.2 897,644.1 L897,526 C897,521.8 893.7,518.5 889.5,518.5 Z" id="Shape"></path>
            <path d="M525.6,527.5 L507.7,527.5 C505.4,527.5 503.6,529.4 503.6,531.6 L503.6,539.4 C503.6,541.7 505.5,543.5 507.7,543.5 L525.6,543.5 C527.9,543.5 529.7,541.6 529.7,539.4 L529.7,531.6 C529.8,529.4 527.9,527.5 525.6,527.5 Z" id="Shape"></path>
            <path d="M525.8,527.5 L507.5,527.5 C505.3,527.5 503.5,529.3 503.5,531.5 L503.5,538.3 C503.5,540.5 505.3,542.3 507.5,542.3 L525.8,542.3 C528,542.3 529.8,540.5 529.8,538.3 L529.8,531.5 C529.8,529.3 528,527.5 525.8,527.5 Z" id="Shape"></path>
            <path d="M555.5,527.5 L537.6,527.5 C535.3,527.5 533.5,529.4 533.5,531.6 L533.5,539.4 C533.5,541.7 535.4,543.5 537.6,543.5 L555.5,543.5 C557.8,543.5 559.6,541.6 559.6,539.4 L559.6,531.6 C559.7,529.4 557.8,527.5 555.5,527.5 Z" id="Shape"></path>
            <path d="M555.7,527.5 L537.4,527.5 C535.2,527.5 533.4,529.3 533.4,531.5 L533.4,538.3 C533.4,540.5 535.2,542.3 537.4,542.3 L555.7,542.3 C557.9,542.3 559.7,540.5 559.7,538.3 L559.7,531.5 C559.7,529.3 557.9,527.5 555.7,527.5 Z" id="Shape"></path>
            <path d="M585.4,527.5 L567.5,527.5 C565.2,527.5 563.4,529.4 563.4,531.6 L563.4,539.4 C563.4,541.7 565.3,543.5 567.5,543.5 L585.4,543.5 C587.7,543.5 589.5,541.6 589.5,539.4 L589.5,531.6 C589.6,529.4 587.7,527.5 585.4,527.5 Z" id="Shape"></path>
            <path d="M585.6,527.5 L567.3,527.5 C565.1,527.5 563.3,529.3 563.3,531.5 L563.3,538.3 C563.3,540.5 565.1,542.3 567.3,542.3 L585.6,542.3 C587.8,542.3 589.6,540.5 589.6,538.3 L589.6,531.5 C589.6,529.3 587.8,527.5 585.6,527.5 Z" id="Shape"></path>
            <path d="M615.3,527.5 L597.4,527.5 C595.1,527.5 593.3,529.4 593.3,531.6 L593.3,539.4 C593.3,541.7 595.2,543.5 597.4,543.5 L615.3,543.5 C617.6,543.5 619.4,541.6 619.4,539.4 L619.4,531.6 C619.5,529.4 617.6,527.5 615.3,527.5 Z" id="Shape"></path>
            <path d="M615.5,527.5 L597.2,527.5 C595,527.5 593.2,529.3 593.2,531.5 L593.2,538.3 C593.2,540.5 595,542.3 597.2,542.3 L615.5,542.3 C617.7,542.3 619.5,540.5 619.5,538.3 L619.5,531.5 C619.5,529.3 617.7,527.5 615.5,527.5 Z" id="Shape"></path>
            <path d="M645.2,527.5 L627.3,527.5 C625,527.5 623.2,529.4 623.2,531.6 L623.2,539.4 C623.2,541.7 625.1,543.5 627.3,543.5 L645.2,543.5 C647.5,543.5 649.3,541.6 649.3,539.4 L649.3,531.6 C649.4,529.4 647.5,527.5 645.2,527.5 Z" id="Shape"></path>
            <path d="M645.4,527.5 L627.1,527.5 C624.9,527.5 623.1,529.3 623.1,531.5 L623.1,538.3 C623.1,540.5 624.9,542.3 627.1,542.3 L645.4,542.3 C647.6,542.3 649.4,540.5 649.4,538.3 L649.4,531.5 C649.4,529.3 647.6,527.5 645.4,527.5 Z" id="Shape"></path>
            <path d="M675.1,527.5 L657.2,527.5 C654.9,527.5 653.1,529.4 653.1,531.6 L653.1,539.4 C653.1,541.7 655,543.5 657.2,543.5 L675.1,543.5 C677.4,543.5 679.2,541.6 679.2,539.4 L679.2,531.6 C679.3,529.4 677.4,527.5 675.1,527.5 Z" id="Shape"></path>
            <path d="M675.3,527.5 L657,527.5 C654.8,527.5 653,529.3 653,531.5 L653,538.3 C653,540.5 654.8,542.3 657,542.3 L675.3,542.3 C677.5,542.3 679.3,540.5 679.3,538.3 L679.3,531.5 C679.3,529.3 677.5,527.5 675.3,527.5 Z" id="Shape"></path>
            <path d="M705,527.5 L687.1,527.5 C684.8,527.5 683,529.4 683,531.6 L683,539.4 C683,541.7 684.9,543.5 687.1,543.5 L705,543.5 C707.3,543.5 709.1,541.6 709.1,539.4 L709.1,531.6 C709.2,529.4 707.3,527.5 705,527.5 Z" id="Shape"></path>
            <path d="M705.2,527.5 L686.9,527.5 C684.7,527.5 682.9,529.3 682.9,531.5 L682.9,538.3 C682.9,540.5 684.7,542.3 686.9,542.3 L705.2,542.3 C707.4,542.3 709.2,540.5 709.2,538.3 L709.2,531.5 C709.2,529.3 707.4,527.5 705.2,527.5 Z" id="Shape"></path>
            <path d="M734.9,527.5 L717,527.5 C714.7,527.5 712.9,529.4 712.9,531.6 L712.9,539.4 C712.9,541.7 714.8,543.5 717,543.5 L734.9,543.5 C737.2,543.5 739,541.6 739,539.4 L739,531.6 C739.1,529.4 737.2,527.5 734.9,527.5 Z" id="Shape"></path>
            <path d="M735.1,527.5 L716.8,527.5 C714.6,527.5 712.8,529.3 712.8,531.5 L712.8,538.3 C712.8,540.5 714.6,542.3 716.8,542.3 L735.1,542.3 C737.3,542.3 739.1,540.5 739.1,538.3 L739.1,531.5 C739.1,529.3 737.3,527.5 735.1,527.5 Z" id="Shape"></path>
            <path d="M764.8,527.5 L746.9,527.5 C744.6,527.5 742.8,529.4 742.8,531.6 L742.8,539.4 C742.8,541.7 744.7,543.5 746.9,543.5 L764.8,543.5 C767.1,543.5 768.9,541.6 768.9,539.4 L768.9,531.6 C769,529.4 767.1,527.5 764.8,527.5 Z" id="Shape"></path>
            <path d="M765,527.5 L746.7,527.5 C744.5,527.5 742.7,529.3 742.7,531.5 L742.7,538.3 C742.7,540.5 744.5,542.3 746.7,542.3 L765,542.3 C767.2,542.3 769,540.5 769,538.3 L769,531.5 C769,529.3 767.2,527.5 765,527.5 Z" id="Shape"></path>
            <path d="M794.7,527.5 L776.8,527.5 C774.5,527.5 772.7,529.4 772.7,531.6 L772.7,539.4 C772.7,541.7 774.6,543.5 776.8,543.5 L794.7,543.5 C797,543.5 798.8,541.6 798.8,539.4 L798.8,531.6 C798.9,529.4 797,527.5 794.7,527.5 Z" id="Shape"></path>
            <path d="M794.9,527.5 L776.6,527.5 C774.4,527.5 772.6,529.3 772.6,531.5 L772.6,538.3 C772.6,540.5 774.4,542.3 776.6,542.3 L794.9,542.3 C797.1,542.3 798.9,540.5 798.9,538.3 L798.9,531.5 C798.9,529.3 797.1,527.5 794.9,527.5 Z" id="Shape"></path>
            <path d="M824.6,527.5 L806.7,527.5 C804.4,527.5 802.6,529.4 802.6,531.6 L802.6,539.4 C802.6,541.7 804.5,543.5 806.7,543.5 L824.6,543.5 C826.9,543.5 828.7,541.6 828.7,539.4 L828.7,531.6 C828.8,529.4 826.9,527.5 824.6,527.5 Z" id="Shape"></path>
            <path d="M824.8,527.5 L806.5,527.5 C804.3,527.5 802.5,529.3 802.5,531.5 L802.5,538.3 C802.5,540.5 804.3,542.3 806.5,542.3 L824.8,542.3 C827,542.3 828.8,540.5 828.8,538.3 L828.8,531.5 C828.8,529.3 827,527.5 824.8,527.5 Z" id="Shape"></path>
            <path d="M854.5,527.5 L836.6,527.5 C834.3,527.5 832.5,529.4 832.5,531.6 L832.5,539.4 C832.5,541.7 834.4,543.5 836.6,543.5 L854.5,543.5 C856.8,543.5 858.6,541.6 858.6,539.4 L858.6,531.6 C858.7,529.4 856.8,527.5 854.5,527.5 Z" id="Shape"></path>
            <path d="M854.7,527.5 L836.4,527.5 C834.2,527.5 832.4,529.3 832.4,531.5 L832.4,538.3 C832.4,540.5 834.2,542.3 836.4,542.3 L854.7,542.3 C856.9,542.3 858.7,540.5 858.7,538.3 L858.7,531.5 C858.7,529.3 856.9,527.5 854.7,527.5 Z" id="Shape"></path>
            <path d="M884.4,527.5 L866.5,527.5 C864.2,527.5 862.4,529.4 862.4,531.6 L862.4,539.4 C862.4,541.7 864.3,543.5 866.5,543.5 L884.4,543.5 C886.7,543.5 888.5,541.6 888.5,539.4 L888.5,531.6 C888.6,529.4 886.7,527.5 884.4,527.5 Z" id="Shape"></path>
            <path d="M884.6,527.5 L866.3,527.5 C864.1,527.5 862.3,529.3 862.3,531.5 L862.3,538.3 C862.3,540.5 864.1,542.3 866.3,542.3 L884.6,542.3 C886.8,542.3 888.6,540.5 888.6,538.3 L888.6,531.5 C888.6,529.3 886.8,527.5 884.6,527.5 Z" id="Shape"></path>
            <path d="M525,547.1 L508.3,547.1 C505.7,547.1 503.5,549.2 503.5,551.9 L503.5,563.5 C503.5,566.1 505.6,568.3 508.3,568.3 L525,568.3 C527.6,568.3 529.8,566.2 529.8,563.5 L529.8,551.9 C529.8,549.2 527.7,547.1 525,547.1 Z" id="Shape"></path>
            <path d="M525.2,547.1 L508.1,547.1 C505.6,547.1 503.6,549.1 503.6,551.6 L503.6,561.8 C503.6,564.3 505.6,566.3 508.1,566.3 L525.2,566.3 C527.7,566.3 529.7,564.3 529.7,561.8 L529.7,551.6 C529.8,549.1 527.8,547.1 525.2,547.1 Z" id="Shape"></path>
            <path d="M554.9,547.1 L538.2,547.1 C535.6,547.1 533.4,549.2 533.4,551.9 L533.4,563.5 C533.4,566.1 535.5,568.3 538.2,568.3 L554.9,568.3 C557.5,568.3 559.7,566.2 559.7,563.5 L559.7,551.9 C559.7,549.2 557.6,547.1 554.9,547.1 Z" id="Shape"></path>
            <path d="M555.1,547.1 L538,547.1 C535.5,547.1 533.5,549.1 533.5,551.6 L533.5,561.8 C533.5,564.3 535.5,566.3 538,566.3 L555.1,566.3 C557.6,566.3 559.6,564.3 559.6,561.8 L559.6,551.6 C559.7,549.1 557.7,547.1 555.1,547.1 Z" id="Shape"></path>
            <path d="M584.8,547.1 L568.1,547.1 C565.5,547.1 563.3,549.2 563.3,551.9 L563.3,563.5 C563.3,566.1 565.4,568.3 568.1,568.3 L584.8,568.3 C587.4,568.3 589.6,566.2 589.6,563.5 L589.6,551.9 C589.6,549.2 587.5,547.1 584.8,547.1 Z" id="Shape"></path>
            <path d="M585,547.1 L567.9,547.1 C565.4,547.1 563.4,549.1 563.4,551.6 L563.4,561.8 C563.4,564.3 565.4,566.3 567.9,566.3 L585,566.3 C587.5,566.3 589.5,564.3 589.5,561.8 L589.5,551.6 C589.6,549.1 587.6,547.1 585,547.1 Z" id="Shape"></path>
            <path d="M614.7,547.1 L598,547.1 C595.4,547.1 593.2,549.2 593.2,551.9 L593.2,563.5 C593.2,566.1 595.3,568.3 598,568.3 L614.7,568.3 C617.3,568.3 619.5,566.2 619.5,563.5 L619.5,551.9 C619.5,549.2 617.4,547.1 614.7,547.1 Z" id="Shape"></path>
            <path d="M614.9,547.1 L597.8,547.1 C595.3,547.1 593.3,549.1 593.3,551.6 L593.3,561.8 C593.3,564.3 595.3,566.3 597.8,566.3 L614.9,566.3 C617.4,566.3 619.4,564.3 619.4,561.8 L619.4,551.6 C619.5,549.1 617.5,547.1 614.9,547.1 Z" id="Shape"></path>
            <path d="M644.6,547.1 L627.9,547.1 C625.3,547.1 623.1,549.2 623.1,551.9 L623.1,563.5 C623.1,566.1 625.2,568.3 627.9,568.3 L644.6,568.3 C647.2,568.3 649.4,566.2 649.4,563.5 L649.4,551.9 C649.4,549.2 647.3,547.1 644.6,547.1 Z" id="Shape"></path>
            <path d="M644.8,547.1 L627.7,547.1 C625.2,547.1 623.2,549.1 623.2,551.6 L623.2,561.8 C623.2,564.3 625.2,566.3 627.7,566.3 L644.8,566.3 C647.3,566.3 649.3,564.3 649.3,561.8 L649.3,551.6 C649.4,549.1 647.4,547.1 644.8,547.1 Z" id="Shape"></path>
            <path d="M674.5,547.1 L657.8,547.1 C655.2,547.1 653,549.2 653,551.9 L653,563.5 C653,566.1 655.1,568.3 657.8,568.3 L674.5,568.3 C677.1,568.3 679.3,566.2 679.3,563.5 L679.3,551.9 C679.3,549.2 677.2,547.1 674.5,547.1 Z" id="Shape"></path>
            <path d="M674.7,547.1 L657.6,547.1 C655.1,547.1 653.1,549.1 653.1,551.6 L653.1,561.8 C653.1,564.3 655.1,566.3 657.6,566.3 L674.7,566.3 C677.2,566.3 679.2,564.3 679.2,561.8 L679.2,551.6 C679.3,549.1 677.2,547.1 674.7,547.1 Z" id="Shape"></path>
            <path d="M704.4,547.1 L687.7,547.1 C685.1,547.1 682.9,549.2 682.9,551.9 L682.9,563.5 C682.9,566.1 685,568.3 687.7,568.3 L704.4,568.3 C707,568.3 709.2,566.2 709.2,563.5 L709.2,551.9 C709.2,549.2 707.1,547.1 704.4,547.1 Z" id="Shape"></path>
            <path d="M704.6,547.1 L687.5,547.1 C685,547.1 683,549.1 683,551.6 L683,561.8 C683,564.3 685,566.3 687.5,566.3 L704.6,566.3 C707.1,566.3 709.1,564.3 709.1,561.8 L709.1,551.6 C709.2,549.1 707.1,547.1 704.6,547.1 Z" id="Shape"></path>
            <path d="M734.3,547.1 L717.6,547.1 C715,547.1 712.8,549.2 712.8,551.9 L712.8,563.5 C712.8,566.1 714.9,568.3 717.6,568.3 L734.3,568.3 C736.9,568.3 739.1,566.2 739.1,563.5 L739.1,551.9 C739.1,549.2 737,547.1 734.3,547.1 Z" id="Shape"></path>
            <path d="M734.5,547.1 L717.4,547.1 C714.9,547.1 712.9,549.1 712.9,551.6 L712.9,561.8 C712.9,564.3 714.9,566.3 717.4,566.3 L734.5,566.3 C737,566.3 739,564.3 739,561.8 L739,551.6 C739.1,549.1 737,547.1 734.5,547.1 Z" id="Shape"></path>
            <path d="M764.2,547.1 L747.5,547.1 C744.9,547.1 742.7,549.2 742.7,551.9 L742.7,563.5 C742.7,566.1 744.8,568.3 747.5,568.3 L764.2,568.3 C766.8,568.3 769,566.2 769,563.5 L769,551.9 C769,549.2 766.9,547.1 764.2,547.1 Z" id="Shape"></path>
            <path d="M764.4,547.1 L747.3,547.1 C744.8,547.1 742.8,549.1 742.8,551.6 L742.8,561.8 C742.8,564.3 744.8,566.3 747.3,566.3 L764.4,566.3 C766.9,566.3 768.9,564.3 768.9,561.8 L768.9,551.6 C769,549.1 766.9,547.1 764.4,547.1 Z" id="Shape"></path>
            <path d="M794.1,547.1 L777.4,547.1 C774.8,547.1 772.6,549.2 772.6,551.9 L772.6,563.5 C772.6,566.1 774.7,568.3 777.4,568.3 L794.1,568.3 C796.7,568.3 798.9,566.2 798.9,563.5 L798.9,551.9 C798.9,549.2 796.8,547.1 794.1,547.1 Z" id="Shape"></path>
            <path d="M794.3,547.1 L777.2,547.1 C774.7,547.1 772.7,549.1 772.7,551.6 L772.7,561.8 C772.7,564.3 774.7,566.3 777.2,566.3 L794.3,566.3 C796.8,566.3 798.8,564.3 798.8,561.8 L798.8,551.6 C798.9,549.1 796.8,547.1 794.3,547.1 Z" id="Shape"></path>
            <path d="M824,547.1 L807.3,547.1 C804.7,547.1 802.5,549.2 802.5,551.9 L802.5,563.5 C802.5,566.1 804.6,568.3 807.3,568.3 L824,568.3 C826.6,568.3 828.8,566.2 828.8,563.5 L828.8,551.9 C828.8,549.2 826.7,547.1 824,547.1 Z" id="Shape"></path>
            <path d="M824.2,547.1 L807.1,547.1 C804.6,547.1 802.6,549.1 802.6,551.6 L802.6,561.8 C802.6,564.3 804.6,566.3 807.1,566.3 L824.2,566.3 C826.7,566.3 828.7,564.3 828.7,561.8 L828.7,551.6 C828.8,549.1 826.7,547.1 824.2,547.1 Z" id="Shape"></path>
            <path d="M853.9,547.1 L837.2,547.1 C834.6,547.1 832.4,549.2 832.4,551.9 L832.4,563.5 C832.4,566.1 834.5,568.3 837.2,568.3 L853.9,568.3 C856.5,568.3 858.7,566.2 858.7,563.5 L858.7,551.9 C858.7,549.2 856.6,547.1 853.9,547.1 Z" id="Shape"></path>
            <path d="M854.1,547.1 L837,547.1 C834.5,547.1 832.5,549.1 832.5,551.6 L832.5,561.8 C832.5,564.3 834.5,566.3 837,566.3 L854.1,566.3 C856.6,566.3 858.6,564.3 858.6,561.8 L858.6,551.6 C858.7,549.1 856.6,547.1 854.1,547.1 Z" id="Shape"></path>
            <path d="M883.8,547.1 L867.1,547.1 C864.5,547.1 862.3,549.2 862.3,551.9 L862.3,563.5 C862.3,566.1 864.4,568.3 867.1,568.3 L883.8,568.3 C886.4,568.3 888.6,566.2 888.6,563.5 L888.6,551.9 C888.6,549.2 886.5,547.1 883.8,547.1 Z" id="Shape"></path>
            <path d="M884,547.1 L866.9,547.1 C864.4,547.1 862.4,549.1 862.4,551.6 L862.4,561.8 C862.4,564.3 864.4,566.3 866.9,566.3 L884,566.3 C886.5,566.3 888.5,564.3 888.5,561.8 L888.5,551.6 C888.6,549.1 886.5,547.1 884,547.1 Z" id="Shape"></path>
            <path d="M525,571.7 L508.3,571.7 C505.7,571.7 503.5,573.8 503.5,576.5 L503.5,588 C503.5,590.6 505.6,592.8 508.3,592.8 L525,592.8 C527.6,592.8 529.8,590.7 529.8,588 L529.8,576.4 C529.8,573.8 527.7,571.7 525,571.7 Z" id="Shape"></path>
            <path d="M525.2,571.7 L508.1,571.7 C505.6,571.7 503.6,573.7 503.6,576.2 L503.6,586.4 C503.6,588.9 505.6,590.9 508.1,590.9 L525.2,590.9 C527.7,590.9 529.7,588.9 529.7,586.4 L529.7,576.2 C529.8,573.7 527.8,571.7 525.2,571.7 Z" id="Shape"></path>
            <path d="M554.9,571.7 L538.2,571.7 C535.6,571.7 533.4,573.8 533.4,576.5 L533.4,588 C533.4,590.6 535.5,592.8 538.2,592.8 L554.9,592.8 C557.5,592.8 559.7,590.7 559.7,588 L559.7,576.4 C559.7,573.8 557.6,571.7 554.9,571.7 Z" id="Shape"></path>
            <path d="M555.1,571.7 L538,571.7 C535.5,571.7 533.5,573.7 533.5,576.2 L533.5,586.4 C533.5,588.9 535.5,590.9 538,590.9 L555.1,590.9 C557.6,590.9 559.6,588.9 559.6,586.4 L559.6,576.2 C559.7,573.7 557.7,571.7 555.1,571.7 Z" id="Shape"></path>
            <path d="M584.8,571.7 L568.1,571.7 C565.5,571.7 563.3,573.8 563.3,576.5 L563.3,588 C563.3,590.6 565.4,592.8 568.1,592.8 L584.8,592.8 C587.4,592.8 589.6,590.7 589.6,588 L589.6,576.4 C589.6,573.8 587.5,571.7 584.8,571.7 Z" id="Shape"></path>
            <path d="M585,571.7 L567.9,571.7 C565.4,571.7 563.4,573.7 563.4,576.2 L563.4,586.4 C563.4,588.9 565.4,590.9 567.9,590.9 L585,590.9 C587.5,590.9 589.5,588.9 589.5,586.4 L589.5,576.2 C589.6,573.7 587.6,571.7 585,571.7 Z" id="Shape"></path>
            <path d="M614.7,571.7 L598,571.7 C595.4,571.7 593.2,573.8 593.2,576.5 L593.2,588 C593.2,590.6 595.3,592.8 598,592.8 L614.7,592.8 C617.3,592.8 619.5,590.7 619.5,588 L619.5,576.4 C619.5,573.8 617.4,571.7 614.7,571.7 Z" id="Shape"></path>
            <path d="M614.9,571.7 L597.8,571.7 C595.3,571.7 593.3,573.7 593.3,576.2 L593.3,586.4 C593.3,588.9 595.3,590.9 597.8,590.9 L614.9,590.9 C617.4,590.9 619.4,588.9 619.4,586.4 L619.4,576.2 C619.5,573.7 617.5,571.7 614.9,571.7 Z" id="Shape"></path>
            <path d="M644.6,571.7 L627.9,571.7 C625.3,571.7 623.1,573.8 623.1,576.5 L623.1,588 C623.1,590.6 625.2,592.8 627.9,592.8 L644.6,592.8 C647.2,592.8 649.4,590.7 649.4,588 L649.4,576.4 C649.4,573.8 647.3,571.7 644.6,571.7 Z" id="Shape"></path>
            <path d="M644.8,571.7 L627.7,571.7 C625.2,571.7 623.2,573.7 623.2,576.2 L623.2,586.4 C623.2,588.9 625.2,590.9 627.7,590.9 L644.8,590.9 C647.3,590.9 649.3,588.9 649.3,586.4 L649.3,576.2 C649.4,573.7 647.4,571.7 644.8,571.7 Z" id="Shape"></path>
            <path d="M674.5,571.7 L657.8,571.7 C655.2,571.7 653,573.8 653,576.5 L653,588 C653,590.6 655.1,592.8 657.8,592.8 L674.5,592.8 C677.1,592.8 679.3,590.7 679.3,588 L679.3,576.4 C679.3,573.8 677.2,571.7 674.5,571.7 Z" id="Shape"></path>
            <path d="M674.7,571.7 L657.6,571.7 C655.1,571.7 653.1,573.7 653.1,576.2 L653.1,586.4 C653.1,588.9 655.1,590.9 657.6,590.9 L674.7,590.9 C677.2,590.9 679.2,588.9 679.2,586.4 L679.2,576.2 C679.3,573.7 677.2,571.7 674.7,571.7 Z" id="Shape"></path>
            <path d="M704.4,571.7 L687.7,571.7 C685.1,571.7 682.9,573.8 682.9,576.5 L682.9,588 C682.9,590.6 685,592.8 687.7,592.8 L704.4,592.8 C707,592.8 709.2,590.7 709.2,588 L709.2,576.4 C709.2,573.8 707.1,571.7 704.4,571.7 Z" id="Shape"></path>
            <path d="M704.6,571.7 L687.5,571.7 C685,571.7 683,573.7 683,576.2 L683,586.4 C683,588.9 685,590.9 687.5,590.9 L704.6,590.9 C707.1,590.9 709.1,588.9 709.1,586.4 L709.1,576.2 C709.2,573.7 707.1,571.7 704.6,571.7 Z" id="Shape"></path>
            <path d="M734.3,571.7 L717.6,571.7 C715,571.7 712.8,573.8 712.8,576.5 L712.8,588 C712.8,590.6 714.9,592.8 717.6,592.8 L734.3,592.8 C736.9,592.8 739.1,590.7 739.1,588 L739.1,576.4 C739.1,573.8 737,571.7 734.3,571.7 Z" id="Shape"></path>
            <path d="M734.5,571.7 L717.4,571.7 C714.9,571.7 712.9,573.7 712.9,576.2 L712.9,586.4 C712.9,588.9 714.9,590.9 717.4,590.9 L734.5,590.9 C737,590.9 739,588.9 739,586.4 L739,576.2 C739.1,573.7 737,571.7 734.5,571.7 Z" id="Shape"></path>
            <path d="M764.2,571.7 L747.5,571.7 C744.9,571.7 742.7,573.8 742.7,576.5 L742.7,588 C742.7,590.6 744.8,592.8 747.5,592.8 L764.2,592.8 C766.8,592.8 769,590.7 769,588 L769,576.4 C769,573.8 766.9,571.7 764.2,571.7 Z" id="Shape"></path>
            <path d="M764.4,571.7 L747.3,571.7 C744.8,571.7 742.8,573.7 742.8,576.2 L742.8,586.4 C742.8,588.9 744.8,590.9 747.3,590.9 L764.4,590.9 C766.9,590.9 768.9,588.9 768.9,586.4 L768.9,576.2 C769,573.7 766.9,571.7 764.4,571.7 Z" id="Shape"></path>
            <path d="M794.1,571.7 L777.4,571.7 C774.8,571.7 772.6,573.8 772.6,576.5 L772.6,588 C772.6,590.6 774.7,592.8 777.4,592.8 L794.1,592.8 C796.7,592.8 798.9,590.7 798.9,588 L798.9,576.4 C798.9,573.8 796.8,571.7 794.1,571.7 Z" id="Shape"></path>
            <path d="M794.3,571.7 L777.2,571.7 C774.7,571.7 772.7,573.7 772.7,576.2 L772.7,586.4 C772.7,588.9 774.7,590.9 777.2,590.9 L794.3,590.9 C796.8,590.9 798.8,588.9 798.8,586.4 L798.8,576.2 C798.9,573.7 796.8,571.7 794.3,571.7 Z" id="Shape"></path>
            <path d="M824,571.7 L807.3,571.7 C804.7,571.7 802.5,573.8 802.5,576.5 L802.5,588 C802.5,590.6 804.6,592.8 807.3,592.8 L824,592.8 C826.6,592.8 828.8,590.7 828.8,588 L828.8,576.4 C828.8,573.8 826.7,571.7 824,571.7 Z" id="Shape"></path>
            <path d="M824.2,571.7 L807.1,571.7 C804.6,571.7 802.6,573.7 802.6,576.2 L802.6,586.4 C802.6,588.9 804.6,590.9 807.1,590.9 L824.2,590.9 C826.7,590.9 828.7,588.9 828.7,586.4 L828.7,576.2 C828.8,573.7 826.7,571.7 824.2,571.7 Z" id="Shape"></path>
            <path d="M853.9,571.7 L837.2,571.7 C834.6,571.7 832.4,573.8 832.4,576.5 L832.4,588 C832.4,590.6 834.5,592.8 837.2,592.8 L853.9,592.8 C856.5,592.8 858.7,590.7 858.7,588 L858.7,576.4 C858.7,573.8 856.6,571.7 853.9,571.7 Z" id="Shape"></path>
            <path d="M854.1,571.7 L837,571.7 C834.5,571.7 832.5,573.7 832.5,576.2 L832.5,586.4 C832.5,588.9 834.5,590.9 837,590.9 L854.1,590.9 C856.6,590.9 858.6,588.9 858.6,586.4 L858.6,576.2 C858.7,573.7 856.6,571.7 854.1,571.7 Z" id="Shape"></path>
            <path d="M883.8,571.7 L867.1,571.7 C864.5,571.7 862.3,573.8 862.3,576.5 L862.3,588 C862.3,590.6 864.4,592.8 867.1,592.8 L883.8,592.8 C886.4,592.8 888.6,590.7 888.6,588 L888.6,576.4 C888.6,573.8 886.5,571.7 883.8,571.7 Z" id="Shape"></path>
            <path d="M884,571.7 L866.9,571.7 C864.4,571.7 862.4,573.7 862.4,576.2 L862.4,586.4 C862.4,588.9 864.4,590.9 866.9,590.9 L884,590.9 C886.5,590.9 888.5,588.9 888.5,586.4 L888.5,576.2 C888.6,573.7 886.5,571.7 884,571.7 Z" id="Shape"></path>
            <path d="M525,596.3 L508.3,596.3 C505.7,596.3 503.5,598.4 503.5,601.1 L503.5,612.7 C503.5,615.3 505.6,617.5 508.3,617.5 L525,617.5 C527.6,617.5 529.8,615.4 529.8,612.7 L529.8,601 C529.8,598.4 527.7,596.3 525,596.3 Z" id="Shape"></path>
            <path d="M525.2,596.3 L508.1,596.3 C505.6,596.3 503.6,598.3 503.6,600.8 L503.6,611 C503.6,613.5 505.6,615.5 508.1,615.5 L525.2,615.5 C527.7,615.5 529.7,613.5 529.7,611 L529.7,600.8 C529.8,598.3 527.8,596.3 525.2,596.3 Z" id="Shape"></path>
            <path d="M554.9,596.3 L538.2,596.3 C535.6,596.3 533.4,598.4 533.4,601.1 L533.4,612.7 C533.4,615.3 535.5,617.5 538.2,617.5 L554.9,617.5 C557.5,617.5 559.7,615.4 559.7,612.7 L559.7,601 C559.7,598.4 557.6,596.3 554.9,596.3 Z" id="Shape"></path>
            <path d="M555.1,596.3 L538,596.3 C535.5,596.3 533.5,598.3 533.5,600.8 L533.5,611 C533.5,613.5 535.5,615.5 538,615.5 L555.1,615.5 C557.6,615.5 559.6,613.5 559.6,611 L559.6,600.8 C559.7,598.3 557.7,596.3 555.1,596.3 Z" id="Shape"></path>
            <path d="M584.8,596.3 L568.1,596.3 C565.5,596.3 563.3,598.4 563.3,601.1 L563.3,612.7 C563.3,615.3 565.4,617.5 568.1,617.5 L584.8,617.5 C587.4,617.5 589.6,615.4 589.6,612.7 L589.6,601 C589.6,598.4 587.5,596.3 584.8,596.3 Z" id="Shape"></path>
            <path d="M585,596.3 L567.9,596.3 C565.4,596.3 563.4,598.3 563.4,600.8 L563.4,611 C563.4,613.5 565.4,615.5 567.9,615.5 L585,615.5 C587.5,615.5 589.5,613.5 589.5,611 L589.5,600.8 C589.6,598.3 587.6,596.3 585,596.3 Z" id="Shape"></path>
            <path d="M614.7,596.3 L598,596.3 C595.4,596.3 593.2,598.4 593.2,601.1 L593.2,612.7 C593.2,615.3 595.3,617.5 598,617.5 L614.7,617.5 C617.3,617.5 619.5,615.4 619.5,612.7 L619.5,601 C619.5,598.4 617.4,596.3 614.7,596.3 Z" id="Shape"></path>
            <path d="M614.9,596.3 L597.8,596.3 C595.3,596.3 593.3,598.3 593.3,600.8 L593.3,611 C593.3,613.5 595.3,615.5 597.8,615.5 L614.9,615.5 C617.4,615.5 619.4,613.5 619.4,611 L619.4,600.8 C619.5,598.3 617.5,596.3 614.9,596.3 Z" id="Shape"></path>
            <path d="M644.6,596.3 L627.9,596.3 C625.3,596.3 623.1,598.4 623.1,601.1 L623.1,612.7 C623.1,615.3 625.2,617.5 627.9,617.5 L644.6,617.5 C647.2,617.5 649.4,615.4 649.4,612.7 L649.4,601 C649.4,598.4 647.3,596.3 644.6,596.3 Z" id="Shape"></path>
            <path d="M644.8,596.3 L627.7,596.3 C625.2,596.3 623.2,598.3 623.2,600.8 L623.2,611 C623.2,613.5 625.2,615.5 627.7,615.5 L644.8,615.5 C647.3,615.5 649.3,613.5 649.3,611 L649.3,600.8 C649.4,598.3 647.4,596.3 644.8,596.3 Z" id="Shape"></path>
            <path d="M674.5,596.3 L657.8,596.3 C655.2,596.3 653,598.4 653,601.1 L653,612.7 C653,615.3 655.1,617.5 657.8,617.5 L674.5,617.5 C677.1,617.5 679.3,615.4 679.3,612.7 L679.3,601 C679.3,598.4 677.2,596.3 674.5,596.3 Z" id="Shape"></path>
            <path d="M674.7,596.3 L657.6,596.3 C655.1,596.3 653.1,598.3 653.1,600.8 L653.1,611 C653.1,613.5 655.1,615.5 657.6,615.5 L674.7,615.5 C677.2,615.5 679.2,613.5 679.2,611 L679.2,600.8 C679.3,598.3 677.2,596.3 674.7,596.3 Z" id="Shape"></path>
            <path d="M704.4,596.3 L687.7,596.3 C685.1,596.3 682.9,598.4 682.9,601.1 L682.9,612.7 C682.9,615.3 685,617.5 687.7,617.5 L704.4,617.5 C707,617.5 709.2,615.4 709.2,612.7 L709.2,601 C709.2,598.4 707.1,596.3 704.4,596.3 Z" id="Shape"></path>
            <path d="M704.6,596.3 L687.5,596.3 C685,596.3 683,598.3 683,600.8 L683,611 C683,613.5 685,615.5 687.5,615.5 L704.6,615.5 C707.1,615.5 709.1,613.5 709.1,611 L709.1,600.8 C709.2,598.3 707.1,596.3 704.6,596.3 Z" id="Shape"></path>
            <path d="M734.3,596.3 L717.6,596.3 C715,596.3 712.8,598.4 712.8,601.1 L712.8,612.7 C712.8,615.3 714.9,617.5 717.6,617.5 L734.3,617.5 C736.9,617.5 739.1,615.4 739.1,612.7 L739.1,601 C739.1,598.4 737,596.3 734.3,596.3 Z" id="Shape"></path>
            <path d="M734.5,596.3 L717.4,596.3 C714.9,596.3 712.9,598.3 712.9,600.8 L712.9,611 C712.9,613.5 714.9,615.5 717.4,615.5 L734.5,615.5 C737,615.5 739,613.5 739,611 L739,600.8 C739.1,598.3 737,596.3 734.5,596.3 Z" id="Shape"></path>
            <path d="M764.2,596.3 L747.5,596.3 C744.9,596.3 742.7,598.4 742.7,601.1 L742.7,612.7 C742.7,615.3 744.8,617.5 747.5,617.5 L764.2,617.5 C766.8,617.5 769,615.4 769,612.7 L769,601 C769,598.4 766.9,596.3 764.2,596.3 Z" id="Shape"></path>
            <path d="M764.4,596.3 L747.3,596.3 C744.8,596.3 742.8,598.3 742.8,600.8 L742.8,611 C742.8,613.5 744.8,615.5 747.3,615.5 L764.4,615.5 C766.9,615.5 768.9,613.5 768.9,611 L768.9,600.8 C769,598.3 766.9,596.3 764.4,596.3 Z" id="Shape"></path>
            <path d="M794.1,596.3 L777.4,596.3 C774.8,596.3 772.6,598.4 772.6,601.1 L772.6,612.7 C772.6,615.3 774.7,617.5 777.4,617.5 L794.1,617.5 C796.7,617.5 798.9,615.4 798.9,612.7 L798.9,601 C798.9,598.4 796.8,596.3 794.1,596.3 Z" id="Shape"></path>
            <path d="M794.3,596.3 L777.2,596.3 C774.7,596.3 772.7,598.3 772.7,600.8 L772.7,611 C772.7,613.5 774.7,615.5 777.2,615.5 L794.3,615.5 C796.8,615.5 798.8,613.5 798.8,611 L798.8,600.8 C798.9,598.3 796.8,596.3 794.3,596.3 Z" id="Shape"></path>
            <path d="M824,596.3 L807.3,596.3 C804.7,596.3 802.5,598.4 802.5,601.1 L802.5,612.7 C802.5,615.3 804.6,617.5 807.3,617.5 L824,617.5 C826.6,617.5 828.8,615.4 828.8,612.7 L828.8,601 C828.8,598.4 826.7,596.3 824,596.3 Z" id="Shape"></path>
            <path d="M824.2,596.3 L807.1,596.3 C804.6,596.3 802.6,598.3 802.6,600.8 L802.6,611 C802.6,613.5 804.6,615.5 807.1,615.5 L824.2,615.5 C826.7,615.5 828.7,613.5 828.7,611 L828.7,600.8 C828.8,598.3 826.7,596.3 824.2,596.3 Z" id="Shape"></path>
            <path d="M853.9,596.3 L837.2,596.3 C834.6,596.3 832.4,598.4 832.4,601.1 L832.4,612.7 C832.4,615.3 834.5,617.5 837.2,617.5 L853.9,617.5 C856.5,617.5 858.7,615.4 858.7,612.7 L858.7,601 C858.7,598.4 856.6,596.3 853.9,596.3 Z" id="Shape"></path>
            <path d="M854.1,596.3 L837,596.3 C834.5,596.3 832.5,598.3 832.5,600.8 L832.5,611 C832.5,613.5 834.5,615.5 837,615.5 L854.1,615.5 C856.6,615.5 858.6,613.5 858.6,611 L858.6,600.8 C858.7,598.3 856.6,596.3 854.1,596.3 Z" id="Shape"></path>
            <path d="M883.8,596.3 L867.1,596.3 C864.5,596.3 862.3,598.4 862.3,601.1 L862.3,612.7 C862.3,615.3 864.4,617.5 867.1,617.5 L883.8,617.5 C886.4,617.5 888.6,615.4 888.6,612.7 L888.6,601 C888.6,598.4 886.5,596.3 883.8,596.3 Z" id="Shape"></path>
            <path d="M884,596.3 L866.9,596.3 C864.4,596.3 862.4,598.3 862.4,600.8 L862.4,611 C862.4,613.5 864.4,615.5 866.9,615.5 L884,615.5 C886.5,615.5 888.5,613.5 888.5,611 L888.5,600.8 C888.6,598.3 886.5,596.3 884,596.3 Z" id="Shape"></path>
            <path d="M525,620.9 L508.3,620.9 C505.7,620.9 503.5,623 503.5,625.7 L503.5,637.3 C503.5,639.9 505.6,642.1 508.3,642.1 L525,642.1 C527.6,642.1 529.8,640 529.8,637.3 L529.8,625.7 C529.8,623 527.7,620.9 525,620.9 Z" id="Shape"></path>
            <path d="M525.2,620.9 L508.1,620.9 C505.6,620.9 503.6,622.9 503.6,625.4 L503.6,635.6 C503.6,638.1 505.6,640.1 508.1,640.1 L525.2,640.1 C527.7,640.1 529.7,638.1 529.7,635.6 L529.7,625.4 C529.8,622.9 527.8,620.9 525.2,620.9 Z" id="Shape"></path>
            <path d="M554.9,620.9 L538.2,620.9 C535.6,620.9 533.4,623 533.4,625.7 L533.4,637.3 C533.4,639.9 535.5,642.1 538.2,642.1 L554.9,642.1 C557.5,642.1 559.7,640 559.7,637.3 L559.7,625.7 C559.7,623 557.6,620.9 554.9,620.9 Z" id="Shape"></path>
            <path d="M555.1,620.9 L538,620.9 C535.5,620.9 533.5,622.9 533.5,625.4 L533.5,635.6 C533.5,638.1 535.5,640.1 538,640.1 L555.1,640.1 C557.6,640.1 559.6,638.1 559.6,635.6 L559.6,625.4 C559.7,622.9 557.7,620.9 555.1,620.9 Z" id="Shape"></path>
            <path d="M584.8,620.9 L568.1,620.9 C565.5,620.9 563.3,623 563.3,625.7 L563.3,637.3 C563.3,639.9 565.4,642.1 568.1,642.1 L584.8,642.1 C587.4,642.1 589.6,640 589.6,637.3 L589.6,625.7 C589.6,623 587.5,620.9 584.8,620.9 Z" id="Shape"></path>
            <path d="M585,620.9 L567.9,620.9 C565.4,620.9 563.4,622.9 563.4,625.4 L563.4,635.6 C563.4,638.1 565.4,640.1 567.9,640.1 L585,640.1 C587.5,640.1 589.5,638.1 589.5,635.6 L589.5,625.4 C589.6,622.9 587.6,620.9 585,620.9 Z" id="Shape"></path>
            <path d="M614.7,620.9 L598,620.9 C595.4,620.9 593.2,623 593.2,625.7 L593.2,637.3 C593.2,639.9 595.3,642.1 598,642.1 L614.7,642.1 C617.3,642.1 619.5,640 619.5,637.3 L619.5,625.7 C619.5,623 617.4,620.9 614.7,620.9 Z" id="Shape"></path>
            <path d="M614.9,620.9 L597.8,620.9 C595.3,620.9 593.3,622.9 593.3,625.4 L593.3,635.6 C593.3,638.1 595.3,640.1 597.8,640.1 L614.9,640.1 C617.4,640.1 619.4,638.1 619.4,635.6 L619.4,625.4 C619.5,622.9 617.5,620.9 614.9,620.9 Z" id="Shape"></path>
            <path d="M644.6,620.9 L627.9,620.9 C625.3,620.9 623.1,623 623.1,625.7 L623.1,637.3 C623.1,639.9 625.2,642.1 627.9,642.1 L644.6,642.1 C647.2,642.1 649.4,640 649.4,637.3 L649.4,625.7 C649.4,623 647.3,620.9 644.6,620.9 Z" id="Shape"></path>
            <path d="M644.8,620.9 L627.7,620.9 C625.2,620.9 623.2,622.9 623.2,625.4 L623.2,635.6 C623.2,638.1 625.2,640.1 627.7,640.1 L644.8,640.1 C647.3,640.1 649.3,638.1 649.3,635.6 L649.3,625.4 C649.4,622.9 647.4,620.9 644.8,620.9 Z" id="Shape"></path>
            <path d="M674.5,620.9 L657.8,620.9 C655.2,620.9 653,623 653,625.7 L653,637.3 C653,639.9 655.1,642.1 657.8,642.1 L674.5,642.1 C677.1,642.1 679.3,640 679.3,637.3 L679.3,625.7 C679.3,623 677.2,620.9 674.5,620.9 Z" id="Shape"></path>
            <path d="M674.7,620.9 L657.6,620.9 C655.1,620.9 653.1,622.9 653.1,625.4 L653.1,635.6 C653.1,638.1 655.1,640.1 657.6,640.1 L674.7,640.1 C677.2,640.1 679.2,638.1 679.2,635.6 L679.2,625.4 C679.3,622.9 677.2,620.9 674.7,620.9 Z" id="Shape"></path>
            <path d="M704.4,620.9 L687.7,620.9 C685.1,620.9 682.9,623 682.9,625.7 L682.9,637.3 C682.9,639.9 685,642.1 687.7,642.1 L704.4,642.1 C707,642.1 709.2,640 709.2,637.3 L709.2,625.7 C709.2,623 707.1,620.9 704.4,620.9 Z" id="Shape"></path>
            <path d="M704.6,620.9 L687.5,620.9 C685,620.9 683,622.9 683,625.4 L683,635.6 C683,638.1 685,640.1 687.5,640.1 L704.6,640.1 C707.1,640.1 709.1,638.1 709.1,635.6 L709.1,625.4 C709.2,622.9 707.1,620.9 704.6,620.9 Z" id="Shape"></path>
            <path d="M734.3,620.9 L717.6,620.9 C715,620.9 712.8,623 712.8,625.7 L712.8,637.3 C712.8,639.9 714.9,642.1 717.6,642.1 L734.3,642.1 C736.9,642.1 739.1,640 739.1,637.3 L739.1,625.7 C739.1,623 737,620.9 734.3,620.9 Z" id="Shape"></path>
            <path d="M734.5,620.9 L717.4,620.9 C714.9,620.9 712.9,622.9 712.9,625.4 L712.9,635.6 C712.9,638.1 714.9,640.1 717.4,640.1 L734.5,640.1 C737,640.1 739,638.1 739,635.6 L739,625.4 C739.1,622.9 737,620.9 734.5,620.9 Z" id="Shape"></path>
            <path d="M764.2,620.9 L747.5,620.9 C744.9,620.9 742.7,623 742.7,625.7 L742.7,637.3 C742.7,639.9 744.8,642.1 747.5,642.1 L764.2,642.1 C766.8,642.1 769,640 769,637.3 L769,625.7 C769,623 766.9,620.9 764.2,620.9 Z" id="Shape"></path>
            <path d="M764.4,620.9 L747.3,620.9 C744.8,620.9 742.8,622.9 742.8,625.4 L742.8,635.6 C742.8,638.1 744.8,640.1 747.3,640.1 L764.4,640.1 C766.9,640.1 768.9,638.1 768.9,635.6 L768.9,625.4 C769,622.9 766.9,620.9 764.4,620.9 Z" id="Shape"></path>
            <path d="M794.1,620.9 L777.4,620.9 C774.8,620.9 772.6,623 772.6,625.7 L772.6,637.3 C772.6,639.9 774.7,642.1 777.4,642.1 L794.1,642.1 C796.7,642.1 798.9,640 798.9,637.3 L798.9,625.7 C798.9,623 796.8,620.9 794.1,620.9 Z" id="Shape"></path>
            <path d="M794.3,620.9 L777.2,620.9 C774.7,620.9 772.7,622.9 772.7,625.4 L772.7,635.6 C772.7,638.1 774.7,640.1 777.2,640.1 L794.3,640.1 C796.8,640.1 798.8,638.1 798.8,635.6 L798.8,625.4 C798.9,622.9 796.8,620.9 794.3,620.9 Z" id="Shape"></path>
            <path d="M824,620.9 L807.3,620.9 C804.7,620.9 802.5,623 802.5,625.7 L802.5,637.3 C802.5,639.9 804.6,642.1 807.3,642.1 L824,642.1 C826.6,642.1 828.8,640 828.8,637.3 L828.8,625.7 C828.8,623 826.7,620.9 824,620.9 Z" id="Shape"></path>
            <path d="M824.2,620.9 L807.1,620.9 C804.6,620.9 802.6,622.9 802.6,625.4 L802.6,635.6 C802.6,638.1 804.6,640.1 807.1,640.1 L824.2,640.1 C826.7,640.1 828.7,638.1 828.7,635.6 L828.7,625.4 C828.8,622.9 826.7,620.9 824.2,620.9 Z" id="Shape"></path>
            <path d="M853.9,620.9 L837.2,620.9 C834.6,620.9 832.4,623 832.4,625.7 L832.4,637.3 C832.4,639.9 834.5,642.1 837.2,642.1 L853.9,642.1 C856.5,642.1 858.7,640 858.7,637.3 L858.7,625.7 C858.7,623 856.6,620.9 853.9,620.9 Z" id="Shape"></path>
            <path d="M854.1,620.9 L837,620.9 C834.5,620.9 832.5,622.9 832.5,625.4 L832.5,635.6 C832.5,638.1 834.5,640.1 837,640.1 L854.1,640.1 C856.6,640.1 858.6,638.1 858.6,635.6 L858.6,625.4 C858.7,622.9 856.6,620.9 854.1,620.9 Z" id="Shape"></path>
            <path d="M883.8,620.9 L867.1,620.9 C864.5,620.9 862.3,623 862.3,625.7 L862.3,637.3 C862.3,639.9 864.4,642.1 867.1,642.1 L883.8,642.1 C886.4,642.1 888.6,640 888.6,637.3 L888.6,625.7 C888.6,623 886.5,620.9 883.8,620.9 Z" id="Shape"></path>
            <path d="M884,620.9 L866.9,620.9 C864.4,620.9 862.4,622.9 862.4,625.4 L862.4,635.6 C862.4,638.1 864.4,640.1 866.9,640.1 L884,640.1 C886.5,640.1 888.5,638.1 888.5,635.6 L888.5,625.4 C888.6,622.9 886.5,620.9 884,620.9 Z" id="Shape"></path>
            <path d="M891.4,485.5 L504.1,485.5 C498.7,485.5 494.3,481.1 494.3,475.7 L494.3,273.7 C494.3,268.3 498.7,263.9 504.1,263.9 L891.5,263.9 C896.9,263.9 901.3,268.3 901.3,273.7 L901.3,475.7 C901.3,481.1 896.9,485.5 891.4,485.5 Z" id="Shape"></path>
            <path d="M840.9,449.8 L554.6,449.8 C550.8,449.8 547.6,446.7 547.6,442.8 L547.6,306.4 C547.6,302.6 550.7,299.4 554.6,299.4 L840.9,299.4 C844.7,299.4 847.9,302.5 847.9,306.4 L847.9,442.8 C847.9,446.6 844.8,449.8 840.9,449.8 Z" id="Shape"></path>
            <path d="M617.8,449.8 L551.1,449.8 C549.2,449.8 547.7,448.3 547.7,446.4 L547.7,302.9 C547.7,301 549.2,299.5 551.1,299.5 L617.8,299.5 C619.7,299.5 621.2,301 621.2,302.9 L621.2,446.3 C621.3,448.2 619.7,449.8 617.8,449.8 Z" id="Shape"></path>
            <path d="M847.9,311.1 L547.7,311.1 L547.7,301.4 C547.7,300.3 548.6,299.5 549.6,299.5 L845.9,299.5 C847,299.5 847.8,300.4 847.8,301.4 L847.8,311.1 L847.9,311.1 Z" id="Shape"></path>
            <path d="M733.7,642.5 L574.2,642.5 C571.3,642.5 569,640.2 569,637.3 L569,625.8 C569,622.9 571.3,620.6 574.2,620.6 L733.7,620.6 C736.6,620.6 738.9,622.9 738.9,625.8 L738.9,637.3 C738.8,640.2 736.5,642.5 733.7,642.5 Z" id="Shape"></path>
            <path d="M733.9,640.5 L573.9,640.5 C571.2,640.5 569,638.3 569,635.6 L569,625.5 C569,622.8 571.2,620.6 573.9,620.6 L733.9,620.6 C736.6,620.6 738.8,622.8 738.8,625.5 L738.8,635.6 C738.8,638.3 736.6,640.5 733.9,640.5 Z" id="Shape"></path>
            <path d="M795.5,593.2 L745.7,593.2 C744.1,593.2 742.7,591.9 742.7,590.2 L742.7,574.1 C742.7,572.5 744,571.1 745.7,571.1 L795.5,571.1 C797.1,571.1 798.5,572.4 798.5,574.1 L798.5,590.2 C798.5,591.8 797.1,593.2 795.5,593.2 Z" id="Shape"></path>
            <path d="M795.6,591.2 L745.5,591.2 C743.9,591.2 742.7,589.9 742.7,588.4 L742.7,574 C742.7,572.4 744,571.2 745.5,571.2 L795.6,571.2 C797.2,571.2 798.4,572.5 798.4,574 L798.4,588.4 C798.5,590 797.2,591.2 795.6,591.2 Z" id="Shape"></path>
            <path d="M772.5,614.5 L772.5,574.1 C772.5,572.5 773.8,571.1 775.5,571.1 L796.1,571.1 C797.7,571.1 799.1,572.4 799.1,574.1 L799.1,614.5 C799.1,616.1 797.8,617.5 796.1,617.5 L775.5,617.5 C773.9,617.5 772.5,616.1 772.5,614.5 Z" id="Shape"></path>
            <path d="M772.5,613 L772.5,574.1 C772.5,572.5 773.8,571.2 775.4,571.2 L796.1,571.2 C797.7,571.2 799,572.5 799,574.1 L799,613 C799,614.6 797.7,615.9 796.1,615.9 L775.4,615.9 C773.8,615.9 772.5,614.6 772.5,613 Z" id="Shape"></path>
            <path d="M760.1,722.1 L635.4,722.1 C631.7,722.1 628.8,719.1 628.8,715.5 L628.8,668.4 C628.8,664.7 631.8,661.8 635.4,661.8 L760.1,661.8 C763.8,661.8 766.7,664.8 766.7,668.4 L766.7,715.5 C766.7,719.2 763.8,722.1 760.1,722.1 Z" id="Shape"></path>
            <circle id="Oval" cx="584.5" cy="351.1" r="23.5"></circle>
            <path d="M601.4,367.4 C597.1,371.8 591.1,374.6 584.5,374.6 C577.8,374.6 571.8,371.8 567.6,367.4 C568.7,361.4 573,356.6 578.5,354.5 C577.1,353 576.3,351.1 576.3,348.9 C576.3,344.4 580,340.7 584.5,340.7 C589,340.7 592.7,344.4 592.7,348.9 C592.7,351 591.9,353 590.5,354.5 C596,356.6 600.3,361.5 601.4,367.4 Z" id="Shape"></path>
            <rect id="Rectangle-path" x="636.8" y="330.5" width="70.6" height="18.5"></rect>
            <rect id="Rectangle-path" x="636.8" y="357.7" width="37.9" height="9.3"></rect>
            <rect id="Rectangle-path" x="636.8" y="378.1" width="194.2" height="4.6"></rect>
            <rect id="Rectangle-path" x="636.8" y="395.3" width="194.2" height="4.6"></rect>
            <rect id="Rectangle-path" x="636.8" y="412.5" width="194.2" height="4.6"></rect>
            <rect id="Rectangle-path" x="636.8" y="429.8" width="194.2" height="4.6"></rect>
            <path d="M604.1,393 L564.8,393 C562.7,393 560.9,391.3 560.9,389.1 L560.9,389.1 C560.9,387 562.6,385.2 564.8,385.2 L604.1,385.2 C606.2,385.2 608,386.9 608,389.1 L608,389.1 C608,391.3 606.3,393 604.1,393 Z" id="Shape"></path>
            <path d="M604.1,405.4 L564.8,405.4 C562.7,405.4 560.9,403.7 560.9,401.5 L560.9,401.5 C560.9,399.4 562.6,397.6 564.8,397.6 L604.1,397.6 C606.2,397.6 608,399.3 608,401.5 L608,401.5 C608,403.6 606.3,405.4 604.1,405.4 Z" id="Shape"></path>
            <path d="M604.1,417.7 L564.8,417.7 C562.7,417.7 560.9,416 560.9,413.8 L560.9,413.8 C560.9,411.7 562.6,409.9 564.8,409.9 L604.1,409.9 C606.2,409.9 608,411.6 608,413.8 L608,413.8 C608,416 606.3,417.7 604.1,417.7 Z" id="Shape"></path>
            <path d="M16,250.5 L424.2,250.5 C430.4,250.5 435.5,255.5 435.5,261.8 L435.5,503.3 C435.5,509.5 430.5,514.6 424.2,514.6 L16,514.6 C9.8,514.6 4.7,509.6 4.7,503.3 L4.7,261.8 C4.7,255.6 9.7,250.5 16,250.5 Z" id="Shape"></path>
            <path d="M15.4,250.5 L424.7,250.5 C430.6,250.5 435.4,255.3 435.4,261.2 L435.4,488.5 C435.4,494.4 430.6,499.2 424.7,499.2 L15.4,499.2 C9.5,499.2 4.7,494.4 4.7,488.5 L4.7,261.2 C4.7,255.3 9.5,250.5 15.4,250.5 Z" id="Shape"></path>
            <path d="M14.4,250.5 L425.8,250.5 C431.1,250.5 435.5,246.2 435.5,240.8 L435.5,15.1 C435.5,9.8 431.2,5.4 425.8,5.4 L14.4,5.4 C9.1,5.4 4.7,9.7 4.7,15.1 L4.7,240.8 C4.7,246.2 9,250.5 14.4,250.5 Z" id="Shape"></path>
            <path d="M14.1,250.5 L426,250.5 C431.2,250.5 435.4,246.3 435.4,241.1 L435.4,26.7 C435.4,21.5 431.2,17.3 426,17.3 L14.1,17.3 C8.9,17.3 4.7,21.5 4.7,26.7 L4.7,241.2 C4.7,246.3 8.9,250.5 14.1,250.5 Z" id="Shape"></path>
            <path d="M28.5,236.1 L411.7,236.1 C415.9,236.1 419.4,232.7 419.4,228.4 L419.4,105.6 C419.4,101.4 416,97.9 411.7,97.9 L28.5,97.9 C24.3,97.9 20.8,101.3 20.8,105.6 L20.8,228.5 C20.8,232.7 24.2,236.1 28.5,236.1 Z" id="Shape"></path>
            <path d="M28.3,231.1 L411.8,231.1 C416,231.1 419.3,227.7 419.3,223.6 L419.3,105.4 C419.3,101.2 415.9,97.9 411.8,97.9 L28.3,97.9 C24.1,97.9 20.8,101.3 20.8,105.4 L20.8,223.5 C20.8,227.7 24.1,231.1 28.3,231.1 Z" id="Shape"></path>
            <path d="M392.2,222 L410.1,222 C412.4,222 414.2,220.1 414.2,217.9 L414.2,210.1 C414.2,207.8 412.3,206 410.1,206 L392.2,206 C389.9,206 388.1,207.9 388.1,210.1 L388.1,217.9 C388,220.2 389.9,222 392.2,222 Z" id="Shape"></path>
            <path d="M392,222 L410.3,222 C412.5,222 414.3,220.2 414.3,218 L414.3,211.2 C414.3,209 412.5,207.2 410.3,207.2 L392,207.2 C389.8,207.2 388,209 388,211.2 L388,218 C388,220.3 389.8,222 392,222 Z" id="Shape"></path>
            <path d="M362.3,222 L380.2,222 C382.5,222 384.3,220.1 384.3,217.9 L384.3,210.1 C384.3,207.8 382.4,206 380.2,206 L362.3,206 C360,206 358.2,207.9 358.2,210.1 L358.2,217.9 C358.1,220.2 360,222 362.3,222 Z" id="Shape"></path>
            <path d="M362.1,222 L380.4,222 C382.6,222 384.4,220.2 384.4,218 L384.4,211.2 C384.4,209 382.6,207.2 380.4,207.2 L362.1,207.2 C359.9,207.2 358.1,209 358.1,211.2 L358.1,218 C358.1,220.3 359.9,222 362.1,222 Z" id="Shape"></path>
            <path d="M332.4,222 L350.3,222 C352.6,222 354.4,220.1 354.4,217.9 L354.4,210.1 C354.4,207.8 352.5,206 350.3,206 L332.4,206 C330.1,206 328.3,207.9 328.3,210.1 L328.3,217.9 C328.2,220.2 330.1,222 332.4,222 Z" id="Shape"></path>
            <path d="M332.2,222 L350.5,222 C352.7,222 354.5,220.2 354.5,218 L354.5,211.2 C354.5,209 352.7,207.2 350.5,207.2 L332.2,207.2 C330,207.2 328.2,209 328.2,211.2 L328.2,218 C328.2,220.3 330,222 332.2,222 Z" id="Shape"></path>
            <path d="M302.5,222 L320.4,222 C322.7,222 324.5,220.1 324.5,217.9 L324.5,210.1 C324.5,207.8 322.6,206 320.4,206 L302.5,206 C300.2,206 298.4,207.9 298.4,210.1 L298.4,217.9 C298.3,220.2 300.2,222 302.5,222 Z" id="Shape"></path>
            <path d="M302.3,222 L320.6,222 C322.8,222 324.6,220.2 324.6,218 L324.6,211.2 C324.6,209 322.8,207.2 320.6,207.2 L302.3,207.2 C300.1,207.2 298.3,209 298.3,211.2 L298.3,218 C298.3,220.3 300.1,222 302.3,222 Z" id="Shape"></path>
            <path d="M272.6,222 L290.5,222 C292.8,222 294.6,220.1 294.6,217.9 L294.6,210.1 C294.6,207.8 292.7,206 290.5,206 L272.6,206 C270.3,206 268.5,207.9 268.5,210.1 L268.5,217.9 C268.4,220.2 270.3,222 272.6,222 Z" id="Shape"></path>
            <path d="M272.4,222 L290.7,222 C292.9,222 294.7,220.2 294.7,218 L294.7,211.2 C294.7,209 292.9,207.2 290.7,207.2 L272.4,207.2 C270.2,207.2 268.4,209 268.4,211.2 L268.4,218 C268.4,220.3 270.2,222 272.4,222 Z" id="Shape"></path>
            <path d="M242.7,222 L260.6,222 C262.9,222 264.7,220.1 264.7,217.9 L264.7,210.1 C264.7,207.8 262.8,206 260.6,206 L242.7,206 C240.4,206 238.6,207.9 238.6,210.1 L238.6,217.9 C238.5,220.2 240.4,222 242.7,222 Z" id="Shape"></path>
            <path d="M242.5,222 L260.8,222 C263,222 264.8,220.2 264.8,218 L264.8,211.2 C264.8,209 263,207.2 260.8,207.2 L242.5,207.2 C240.3,207.2 238.5,209 238.5,211.2 L238.5,218 C238.5,220.3 240.3,222 242.5,222 Z" id="Shape"></path>
            <path d="M212.8,222 L230.7,222 C233,222 234.8,220.1 234.8,217.9 L234.8,210.1 C234.8,207.8 232.9,206 230.7,206 L212.8,206 C210.5,206 208.7,207.9 208.7,210.1 L208.7,217.9 C208.6,220.2 210.5,222 212.8,222 Z" id="Shape"></path>
            <path d="M212.6,222 L230.9,222 C233.1,222 234.9,220.2 234.9,218 L234.9,211.2 C234.9,209 233.1,207.2 230.9,207.2 L212.6,207.2 C210.4,207.2 208.6,209 208.6,211.2 L208.6,218 C208.6,220.3 210.4,222 212.6,222 Z" id="Shape"></path>
            <path d="M182.9,222 L200.8,222 C203.1,222 204.9,220.1 204.9,217.9 L204.9,210.1 C204.9,207.8 203,206 200.8,206 L182.9,206 C180.6,206 178.8,207.9 178.8,210.1 L178.8,217.9 C178.7,220.2 180.6,222 182.9,222 Z" id="Shape"></path>
            <path d="M182.7,222 L201,222 C203.2,222 205,220.2 205,218 L205,211.2 C205,209 203.2,207.2 201,207.2 L182.7,207.2 C180.5,207.2 178.7,209 178.7,211.2 L178.7,218 C178.7,220.3 180.5,222 182.7,222 Z" id="Shape"></path>
            <path d="M153,222 L170.9,222 C173.2,222 175,220.1 175,217.9 L175,210.1 C175,207.8 173.1,206 170.9,206 L153,206 C150.7,206 148.9,207.9 148.9,210.1 L148.9,217.9 C148.8,220.2 150.7,222 153,222 Z" id="Shape"></path>
            <path d="M152.8,222 L171.1,222 C173.3,222 175.1,220.2 175.1,218 L175.1,211.2 C175.1,209 173.3,207.2 171.1,207.2 L152.8,207.2 C150.6,207.2 148.8,209 148.8,211.2 L148.8,218 C148.8,220.3 150.6,222 152.8,222 Z" id="Shape"></path>
            <path d="M123.1,222 L141,222 C143.3,222 145.1,220.1 145.1,217.9 L145.1,210.1 C145.1,207.8 143.2,206 141,206 L123.1,206 C120.8,206 119,207.9 119,210.1 L119,217.9 C118.9,220.2 120.8,222 123.1,222 Z" id="Shape"></path>
            <path d="M122.9,222 L141.2,222 C143.4,222 145.2,220.2 145.2,218 L145.2,211.2 C145.2,209 143.4,207.2 141.2,207.2 L122.9,207.2 C120.7,207.2 118.9,209 118.9,211.2 L118.9,218 C118.9,220.3 120.7,222 122.9,222 Z" id="Shape"></path>
            <path d="M93.2,222 L111.1,222 C113.4,222 115.2,220.1 115.2,217.9 L115.2,210.1 C115.2,207.8 113.3,206 111.1,206 L93.2,206 C90.9,206 89.1,207.9 89.1,210.1 L89.1,217.9 C89,220.2 90.9,222 93.2,222 Z" id="Shape"></path>
            <path d="M93,222 L111.3,222 C113.5,222 115.3,220.2 115.3,218 L115.3,211.2 C115.3,209 113.5,207.2 111.3,207.2 L93,207.2 C90.8,207.2 89,209 89,211.2 L89,218 C89,220.3 90.8,222 93,222 Z" id="Shape"></path>
            <path d="M63.3,222 L81.2,222 C83.5,222 85.3,220.1 85.3,217.9 L85.3,210.1 C85.3,207.8 83.4,206 81.2,206 L63.3,206 C61,206 59.2,207.9 59.2,210.1 L59.2,217.9 C59.1,220.2 61,222 63.3,222 Z" id="Shape"></path>
            <path d="M63.1,222 L81.4,222 C83.6,222 85.4,220.2 85.4,218 L85.4,211.2 C85.4,209 83.6,207.2 81.4,207.2 L63.1,207.2 C60.9,207.2 59.1,209 59.1,211.2 L59.1,218 C59.1,220.3 60.9,222 63.1,222 Z" id="Shape"></path>
            <path d="M33.4,222 L51.3,222 C53.6,222 55.4,220.1 55.4,217.9 L55.4,210.1 C55.4,207.8 53.5,206 51.3,206 L33.4,206 C31.1,206 29.3,207.9 29.3,210.1 L29.3,217.9 C29.2,220.2 31.1,222 33.4,222 Z" id="Shape"></path>
            <path d="M33.2,222 L51.5,222 C53.7,222 55.5,220.2 55.5,218 L55.5,211.2 C55.5,209 53.7,207.2 51.5,207.2 L33.2,207.2 C31,207.2 29.2,209 29.2,211.2 L29.2,218 C29.2,220.3 31,222 33.2,222 Z" id="Shape"></path>
            <path d="M392.8,202.4 L409.5,202.4 C412.1,202.4 414.3,200.3 414.3,197.6 L414.3,186 C414.3,183.4 412.2,181.2 409.5,181.2 L392.8,181.2 C390.2,181.2 388,183.3 388,186 L388,197.6 C388,200.3 390.1,202.4 392.8,202.4 Z" id="Shape"></path>
            <path d="M392.6,202.4 L409.7,202.4 C412.2,202.4 414.2,200.4 414.2,197.9 L414.2,187.7 C414.2,185.2 412.2,183.2 409.7,183.2 L392.6,183.2 C390.1,183.2 388.1,185.2 388.1,187.7 L388.1,197.9 C388,200.4 390.1,202.4 392.6,202.4 Z" id="Shape"></path>
            <path d="M362.9,202.4 L379.6,202.4 C382.2,202.4 384.4,200.3 384.4,197.6 L384.4,186 C384.4,183.4 382.3,181.2 379.6,181.2 L362.9,181.2 C360.3,181.2 358.1,183.3 358.1,186 L358.1,197.6 C358.1,200.3 360.3,202.4 362.9,202.4 Z" id="Shape"></path>
            <path d="M362.7,202.4 L379.8,202.4 C382.3,202.4 384.3,200.4 384.3,197.9 L384.3,187.7 C384.3,185.2 382.3,183.2 379.8,183.2 L362.7,183.2 C360.2,183.2 358.2,185.2 358.2,187.7 L358.2,197.9 C358.1,200.4 360.2,202.4 362.7,202.4 Z" id="Shape"></path>
            <path d="M333,202.4 L349.7,202.4 C352.3,202.4 354.5,200.3 354.5,197.6 L354.5,186 C354.5,183.4 352.4,181.2 349.7,181.2 L333,181.2 C330.4,181.2 328.2,183.3 328.2,186 L328.2,197.6 C328.2,200.3 330.4,202.4 333,202.4 Z" id="Shape"></path>
            <path d="M332.8,202.4 L349.9,202.4 C352.4,202.4 354.4,200.4 354.4,197.9 L354.4,187.7 C354.4,185.2 352.4,183.2 349.9,183.2 L332.8,183.2 C330.3,183.2 328.3,185.2 328.3,187.7 L328.3,197.9 C328.2,200.4 330.3,202.4 332.8,202.4 Z" id="Shape"></path>
            <path d="M303.1,202.4 L319.8,202.4 C322.4,202.4 324.6,200.3 324.6,197.6 L324.6,186 C324.6,183.4 322.5,181.2 319.8,181.2 L303.1,181.2 C300.5,181.2 298.3,183.3 298.3,186 L298.3,197.6 C298.3,200.3 300.5,202.4 303.1,202.4 Z" id="Shape"></path>
            <path d="M302.9,202.4 L320,202.4 C322.5,202.4 324.5,200.4 324.5,197.9 L324.5,187.7 C324.5,185.2 322.5,183.2 320,183.2 L302.9,183.2 C300.4,183.2 298.4,185.2 298.4,187.7 L298.4,197.9 C298.3,200.4 300.4,202.4 302.9,202.4 Z" id="Shape"></path>
            <path d="M273.2,202.4 L289.9,202.4 C292.5,202.4 294.7,200.3 294.7,197.6 L294.7,186 C294.7,183.4 292.6,181.2 289.9,181.2 L273.2,181.2 C270.6,181.2 268.4,183.3 268.4,186 L268.4,197.6 C268.4,200.3 270.6,202.4 273.2,202.4 Z" id="Shape"></path>
            <path d="M273,202.4 L290.1,202.4 C292.6,202.4 294.6,200.4 294.6,197.9 L294.6,187.7 C294.6,185.2 292.6,183.2 290.1,183.2 L273,183.2 C270.5,183.2 268.5,185.2 268.5,187.7 L268.5,197.9 C268.4,200.4 270.5,202.4 273,202.4 Z" id="Shape"></path>
            <path d="M243.3,202.4 L260,202.4 C262.6,202.4 264.8,200.3 264.8,197.6 L264.8,186 C264.8,183.4 262.7,181.2 260,181.2 L243.3,181.2 C240.7,181.2 238.5,183.3 238.5,186 L238.5,197.6 C238.5,200.3 240.7,202.4 243.3,202.4 Z" id="Shape"></path>
            <path d="M243.1,202.4 L260.2,202.4 C262.7,202.4 264.7,200.4 264.7,197.9 L264.7,187.7 C264.7,185.2 262.7,183.2 260.2,183.2 L243.1,183.2 C240.6,183.2 238.6,185.2 238.6,187.7 L238.6,197.9 C238.5,200.4 240.6,202.4 243.1,202.4 Z" id="Shape"></path>
            <path d="M213.4,202.4 L230.1,202.4 C232.7,202.4 234.9,200.3 234.9,197.6 L234.9,186 C234.9,183.4 232.8,181.2 230.1,181.2 L213.4,181.2 C210.8,181.2 208.6,183.3 208.6,186 L208.6,197.6 C208.6,200.3 210.8,202.4 213.4,202.4 Z" id="Shape"></path>
            <path d="M213.2,202.4 L230.3,202.4 C232.8,202.4 234.8,200.4 234.8,197.9 L234.8,187.7 C234.8,185.2 232.8,183.2 230.3,183.2 L213.2,183.2 C210.7,183.2 208.7,185.2 208.7,187.7 L208.7,197.9 C208.6,200.4 210.7,202.4 213.2,202.4 Z" id="Shape"></path>
            <path d="M183.5,202.4 L200.2,202.4 C202.8,202.4 205,200.3 205,197.6 L205,186 C205,183.4 202.9,181.2 200.2,181.2 L183.5,181.2 C180.9,181.2 178.7,183.3 178.7,186 L178.7,197.6 C178.7,200.3 180.9,202.4 183.5,202.4 Z" id="Shape"></path>
            <path d="M183.3,202.4 L200.4,202.4 C202.9,202.4 204.9,200.4 204.9,197.9 L204.9,187.7 C204.9,185.2 202.9,183.2 200.4,183.2 L183.3,183.2 C180.8,183.2 178.8,185.2 178.8,187.7 L178.8,197.9 C178.7,200.4 180.8,202.4 183.3,202.4 Z" id="Shape"></path>
            <path d="M153.6,202.4 L170.3,202.4 C172.9,202.4 175.1,200.3 175.1,197.6 L175.1,186 C175.1,183.4 173,181.2 170.3,181.2 L153.6,181.2 C151,181.2 148.8,183.3 148.8,186 L148.8,197.6 C148.8,200.3 151,202.4 153.6,202.4 Z" id="Shape"></path>
            <path d="M153.4,202.4 L170.5,202.4 C173,202.4 175,200.4 175,197.9 L175,187.7 C175,185.2 173,183.2 170.5,183.2 L153.4,183.2 C150.9,183.2 148.9,185.2 148.9,187.7 L148.9,197.9 C148.8,200.4 150.9,202.4 153.4,202.4 Z" id="Shape"></path>
            <path d="M123.7,202.4 L140.4,202.4 C143,202.4 145.2,200.3 145.2,197.6 L145.2,186 C145.2,183.4 143.1,181.2 140.4,181.2 L123.7,181.2 C121.1,181.2 118.9,183.3 118.9,186 L118.9,197.6 C118.9,200.3 121.1,202.4 123.7,202.4 Z" id="Shape"></path>
            <path d="M123.5,202.4 L140.6,202.4 C143.1,202.4 145.1,200.4 145.1,197.9 L145.1,187.7 C145.1,185.2 143.1,183.2 140.6,183.2 L123.5,183.2 C121,183.2 119,185.2 119,187.7 L119,197.9 C118.9,200.4 121,202.4 123.5,202.4 Z" id="Shape"></path>
            <path d="M93.8,202.4 L110.5,202.4 C113.1,202.4 115.3,200.3 115.3,197.6 L115.3,186 C115.3,183.4 113.2,181.2 110.5,181.2 L93.8,181.2 C91.2,181.2 89,183.3 89,186 L89,197.6 C89,200.3 91.2,202.4 93.8,202.4 Z" id="Shape"></path>
            <path d="M93.6,202.4 L110.7,202.4 C113.2,202.4 115.2,200.4 115.2,197.9 L115.2,187.7 C115.2,185.2 113.2,183.2 110.7,183.2 L93.6,183.2 C91.1,183.2 89.1,185.2 89.1,187.7 L89.1,197.9 C89,200.4 91.1,202.4 93.6,202.4 Z" id="Shape"></path>
            <path d="M63.9,202.4 L80.6,202.4 C83.2,202.4 85.4,200.3 85.4,197.6 L85.4,186 C85.4,183.4 83.3,181.2 80.6,181.2 L63.9,181.2 C61.3,181.2 59.1,183.3 59.1,186 L59.1,197.6 C59.1,200.3 61.3,202.4 63.9,202.4 Z" id="Shape"></path>
            <path d="M63.7,202.4 L80.8,202.4 C83.3,202.4 85.3,200.4 85.3,197.9 L85.3,187.7 C85.3,185.2 83.3,183.2 80.8,183.2 L63.7,183.2 C61.2,183.2 59.2,185.2 59.2,187.7 L59.2,197.9 C59.1,200.4 61.2,202.4 63.7,202.4 Z" id="Shape"></path>
            <path d="M34,202.4 L50.7,202.4 C53.3,202.4 55.5,200.3 55.5,197.6 L55.5,186 C55.5,183.4 53.4,181.2 50.7,181.2 L34,181.2 C31.4,181.2 29.2,183.3 29.2,186 L29.2,197.6 C29.2,200.3 31.4,202.4 34,202.4 Z" id="Shape"></path>
            <path d="M33.8,202.4 L50.9,202.4 C53.4,202.4 55.4,200.4 55.4,197.9 L55.4,187.7 C55.4,185.2 53.4,183.2 50.9,183.2 L33.8,183.2 C31.3,183.2 29.3,185.2 29.3,187.7 L29.3,197.9 C29.2,200.4 31.3,202.4 33.8,202.4 Z" id="Shape"></path>
            <path d="M392.8,177.8 L409.5,177.8 C412.1,177.8 414.3,175.7 414.3,173 L414.3,161.4 C414.3,158.8 412.2,156.6 409.5,156.6 L392.8,156.6 C390.2,156.6 388,158.7 388,161.4 L388,173 C388,175.7 390.1,177.8 392.8,177.8 Z" id="Shape"></path>
            <path d="M392.6,177.8 L409.7,177.8 C412.2,177.8 414.2,175.8 414.2,173.3 L414.2,163.1 C414.2,160.6 412.2,158.6 409.7,158.6 L392.6,158.6 C390.1,158.6 388.1,160.6 388.1,163.1 L388.1,173.3 C388,175.8 390.1,177.8 392.6,177.8 Z" id="Shape"></path>
            <path d="M362.9,177.8 L379.6,177.8 C382.2,177.8 384.4,175.7 384.4,173 L384.4,161.4 C384.4,158.8 382.3,156.6 379.6,156.6 L362.9,156.6 C360.3,156.6 358.1,158.7 358.1,161.4 L358.1,173 C358.1,175.7 360.3,177.8 362.9,177.8 Z" id="Shape"></path>
            <path d="M362.7,177.8 L379.8,177.8 C382.3,177.8 384.3,175.8 384.3,173.3 L384.3,163.1 C384.3,160.6 382.3,158.6 379.8,158.6 L362.7,158.6 C360.2,158.6 358.2,160.6 358.2,163.1 L358.2,173.3 C358.1,175.8 360.2,177.8 362.7,177.8 Z" id="Shape"></path>
            <path d="M333,177.8 L349.7,177.8 C352.3,177.8 354.5,175.7 354.5,173 L354.5,161.4 C354.5,158.8 352.4,156.6 349.7,156.6 L333,156.6 C330.4,156.6 328.2,158.7 328.2,161.4 L328.2,173 C328.2,175.7 330.4,177.8 333,177.8 Z" id="Shape"></path>
            <path d="M332.8,177.8 L349.9,177.8 C352.4,177.8 354.4,175.8 354.4,173.3 L354.4,163.1 C354.4,160.6 352.4,158.6 349.9,158.6 L332.8,158.6 C330.3,158.6 328.3,160.6 328.3,163.1 L328.3,173.3 C328.2,175.8 330.3,177.8 332.8,177.8 Z" id="Shape"></path>
            <path d="M303.1,177.8 L319.8,177.8 C322.4,177.8 324.6,175.7 324.6,173 L324.6,161.4 C324.6,158.8 322.5,156.6 319.8,156.6 L303.1,156.6 C300.5,156.6 298.3,158.7 298.3,161.4 L298.3,173 C298.3,175.7 300.5,177.8 303.1,177.8 Z" id="Shape"></path>
            <path d="M302.9,177.8 L320,177.8 C322.5,177.8 324.5,175.8 324.5,173.3 L324.5,163.1 C324.5,160.6 322.5,158.6 320,158.6 L302.9,158.6 C300.4,158.6 298.4,160.6 298.4,163.1 L298.4,173.3 C298.3,175.8 300.4,177.8 302.9,177.8 Z" id="Shape"></path>
            <path d="M273.2,177.8 L289.9,177.8 C292.5,177.8 294.7,175.7 294.7,173 L294.7,161.4 C294.7,158.8 292.6,156.6 289.9,156.6 L273.2,156.6 C270.6,156.6 268.4,158.7 268.4,161.4 L268.4,173 C268.4,175.7 270.6,177.8 273.2,177.8 Z" id="Shape"></path>
            <path d="M273,177.8 L290.1,177.8 C292.6,177.8 294.6,175.8 294.6,173.3 L294.6,163.1 C294.6,160.6 292.6,158.6 290.1,158.6 L273,158.6 C270.5,158.6 268.5,160.6 268.5,163.1 L268.5,173.3 C268.4,175.8 270.5,177.8 273,177.8 Z" id="Shape"></path>
            <path d="M243.3,177.8 L260,177.8 C262.6,177.8 264.8,175.7 264.8,173 L264.8,161.4 C264.8,158.8 262.7,156.6 260,156.6 L243.3,156.6 C240.7,156.6 238.5,158.7 238.5,161.4 L238.5,173 C238.5,175.7 240.7,177.8 243.3,177.8 Z" id="Shape"></path>
            <path d="M243.1,177.8 L260.2,177.8 C262.7,177.8 264.7,175.8 264.7,173.3 L264.7,163.1 C264.7,160.6 262.7,158.6 260.2,158.6 L243.1,158.6 C240.6,158.6 238.6,160.6 238.6,163.1 L238.6,173.3 C238.5,175.8 240.6,177.8 243.1,177.8 Z" id="Shape"></path>
            <path d="M213.4,177.8 L230.1,177.8 C232.7,177.8 234.9,175.7 234.9,173 L234.9,161.4 C234.9,158.8 232.8,156.6 230.1,156.6 L213.4,156.6 C210.8,156.6 208.6,158.7 208.6,161.4 L208.6,173 C208.6,175.7 210.8,177.8 213.4,177.8 Z" id="Shape"></path>
            <path d="M213.2,177.8 L230.3,177.8 C232.8,177.8 234.8,175.8 234.8,173.3 L234.8,163.1 C234.8,160.6 232.8,158.6 230.3,158.6 L213.2,158.6 C210.7,158.6 208.7,160.6 208.7,163.1 L208.7,173.3 C208.6,175.8 210.7,177.8 213.2,177.8 Z" id="Shape"></path>
            <path d="M183.5,177.8 L200.2,177.8 C202.8,177.8 205,175.7 205,173 L205,161.4 C205,158.8 202.9,156.6 200.2,156.6 L183.5,156.6 C180.9,156.6 178.7,158.7 178.7,161.4 L178.7,173 C178.7,175.7 180.9,177.8 183.5,177.8 Z" id="Shape"></path>
            <path d="M183.3,177.8 L200.4,177.8 C202.9,177.8 204.9,175.8 204.9,173.3 L204.9,163.1 C204.9,160.6 202.9,158.6 200.4,158.6 L183.3,158.6 C180.8,158.6 178.8,160.6 178.8,163.1 L178.8,173.3 C178.7,175.8 180.8,177.8 183.3,177.8 Z" id="Shape"></path>
            <path d="M153.6,177.8 L170.3,177.8 C172.9,177.8 175.1,175.7 175.1,173 L175.1,161.4 C175.1,158.8 173,156.6 170.3,156.6 L153.6,156.6 C151,156.6 148.8,158.7 148.8,161.4 L148.8,173 C148.8,175.7 151,177.8 153.6,177.8 Z" id="Shape"></path>
            <path d="M153.4,177.8 L170.5,177.8 C173,177.8 175,175.8 175,173.3 L175,163.1 C175,160.6 173,158.6 170.5,158.6 L153.4,158.6 C150.9,158.6 148.9,160.6 148.9,163.1 L148.9,173.3 C148.8,175.8 150.9,177.8 153.4,177.8 Z" id="Shape"></path>
            <path d="M123.7,177.8 L140.4,177.8 C143,177.8 145.2,175.7 145.2,173 L145.2,161.4 C145.2,158.8 143.1,156.6 140.4,156.6 L123.7,156.6 C121.1,156.6 118.9,158.7 118.9,161.4 L118.9,173 C118.9,175.7 121.1,177.8 123.7,177.8 Z" id="Shape"></path>
            <path d="M123.5,177.8 L140.6,177.8 C143.1,177.8 145.1,175.8 145.1,173.3 L145.1,163.1 C145.1,160.6 143.1,158.6 140.6,158.6 L123.5,158.6 C121,158.6 119,160.6 119,163.1 L119,173.3 C118.9,175.8 121,177.8 123.5,177.8 Z" id="Shape"></path>
            <path d="M93.8,177.8 L110.5,177.8 C113.1,177.8 115.3,175.7 115.3,173 L115.3,161.4 C115.3,158.8 113.2,156.6 110.5,156.6 L93.8,156.6 C91.2,156.6 89,158.7 89,161.4 L89,173 C89,175.7 91.2,177.8 93.8,177.8 Z" id="Shape"></path>
            <path d="M93.6,177.8 L110.7,177.8 C113.2,177.8 115.2,175.8 115.2,173.3 L115.2,163.1 C115.2,160.6 113.2,158.6 110.7,158.6 L93.6,158.6 C91.1,158.6 89.1,160.6 89.1,163.1 L89.1,173.3 C89,175.8 91.1,177.8 93.6,177.8 Z" id="Shape"></path>
            <path d="M63.9,177.8 L80.6,177.8 C83.2,177.8 85.4,175.7 85.4,173 L85.4,161.4 C85.4,158.8 83.3,156.6 80.6,156.6 L63.9,156.6 C61.3,156.6 59.1,158.7 59.1,161.4 L59.1,173 C59.1,175.7 61.3,177.8 63.9,177.8 Z" id="Shape"></path>
            <path d="M63.7,177.8 L80.8,177.8 C83.3,177.8 85.3,175.8 85.3,173.3 L85.3,163.1 C85.3,160.6 83.3,158.6 80.8,158.6 L63.7,158.6 C61.2,158.6 59.2,160.6 59.2,163.1 L59.2,173.3 C59.1,175.8 61.2,177.8 63.7,177.8 Z" id="Shape"></path>
            <path d="M34,177.8 L50.7,177.8 C53.3,177.8 55.5,175.7 55.5,173 L55.5,161.4 C55.5,158.8 53.4,156.6 50.7,156.6 L34,156.6 C31.4,156.6 29.2,158.7 29.2,161.4 L29.2,173 C29.2,175.7 31.4,177.8 34,177.8 Z" id="Shape"></path>
            <path d="M33.8,177.8 L50.9,177.8 C53.4,177.8 55.4,175.8 55.4,173.3 L55.4,163.1 C55.4,160.6 53.4,158.6 50.9,158.6 L33.8,158.6 C31.3,158.6 29.3,160.6 29.3,163.1 L29.3,173.3 C29.2,175.8 31.3,177.8 33.8,177.8 Z" id="Shape"></path>
            <path d="M392.8,153.2 L409.5,153.2 C412.1,153.2 414.3,151.1 414.3,148.4 L414.3,136.8 C414.3,134.2 412.2,132 409.5,132 L392.8,132 C390.2,132 388,134.1 388,136.8 L388,148.4 C388,151.1 390.1,153.2 392.8,153.2 Z" id="Shape"></path>
            <path d="M392.6,153.2 L409.7,153.2 C412.2,153.2 414.2,151.2 414.2,148.7 L414.2,138.5 C414.2,136 412.2,134 409.7,134 L392.6,134 C390.1,134 388.1,136 388.1,138.5 L388.1,148.7 C388,151.2 390.1,153.2 392.6,153.2 Z" id="Shape"></path>
            <path d="M362.9,153.2 L379.6,153.2 C382.2,153.2 384.4,151.1 384.4,148.4 L384.4,136.8 C384.4,134.2 382.3,132 379.6,132 L362.9,132 C360.3,132 358.1,134.1 358.1,136.8 L358.1,148.4 C358.1,151.1 360.3,153.2 362.9,153.2 Z" id="Shape"></path>
            <path d="M362.7,153.2 L379.8,153.2 C382.3,153.2 384.3,151.2 384.3,148.7 L384.3,138.5 C384.3,136 382.3,134 379.8,134 L362.7,134 C360.2,134 358.2,136 358.2,138.5 L358.2,148.7 C358.1,151.2 360.2,153.2 362.7,153.2 Z" id="Shape"></path>
            <path d="M333,153.2 L349.7,153.2 C352.3,153.2 354.5,151.1 354.5,148.4 L354.5,136.8 C354.5,134.2 352.4,132 349.7,132 L333,132 C330.4,132 328.2,134.1 328.2,136.8 L328.2,148.4 C328.2,151.1 330.4,153.2 333,153.2 Z" id="Shape"></path>
            <path d="M332.8,153.2 L349.9,153.2 C352.4,153.2 354.4,151.2 354.4,148.7 L354.4,138.5 C354.4,136 352.4,134 349.9,134 L332.8,134 C330.3,134 328.3,136 328.3,138.5 L328.3,148.7 C328.2,151.2 330.3,153.2 332.8,153.2 Z" id="Shape"></path>
            <path d="M303.1,153.2 L319.8,153.2 C322.4,153.2 324.6,151.1 324.6,148.4 L324.6,136.8 C324.6,134.2 322.5,132 319.8,132 L303.1,132 C300.5,132 298.3,134.1 298.3,136.8 L298.3,148.4 C298.3,151.1 300.5,153.2 303.1,153.2 Z" id="Shape"></path>
            <path d="M302.9,153.2 L320,153.2 C322.5,153.2 324.5,151.2 324.5,148.7 L324.5,138.5 C324.5,136 322.5,134 320,134 L302.9,134 C300.4,134 298.4,136 298.4,138.5 L298.4,148.7 C298.3,151.2 300.4,153.2 302.9,153.2 Z" id="Shape"></path>
            <path d="M273.2,153.2 L289.9,153.2 C292.5,153.2 294.7,151.1 294.7,148.4 L294.7,136.8 C294.7,134.2 292.6,132 289.9,132 L273.2,132 C270.6,132 268.4,134.1 268.4,136.8 L268.4,148.4 C268.4,151.1 270.6,153.2 273.2,153.2 Z" id="Shape"></path>
            <path d="M273,153.2 L290.1,153.2 C292.6,153.2 294.6,151.2 294.6,148.7 L294.6,138.5 C294.6,136 292.6,134 290.1,134 L273,134 C270.5,134 268.5,136 268.5,138.5 L268.5,148.7 C268.4,151.2 270.5,153.2 273,153.2 Z" id="Shape"></path>
            <path d="M243.3,153.2 L260,153.2 C262.6,153.2 264.8,151.1 264.8,148.4 L264.8,136.8 C264.8,134.2 262.7,132 260,132 L243.3,132 C240.7,132 238.5,134.1 238.5,136.8 L238.5,148.4 C238.5,151.1 240.7,153.2 243.3,153.2 Z" id="Shape"></path>
            <path d="M243.1,153.2 L260.2,153.2 C262.7,153.2 264.7,151.2 264.7,148.7 L264.7,138.5 C264.7,136 262.7,134 260.2,134 L243.1,134 C240.6,134 238.6,136 238.6,138.5 L238.6,148.7 C238.5,151.2 240.6,153.2 243.1,153.2 Z" id="Shape"></path>
            <path d="M213.4,153.2 L230.1,153.2 C232.7,153.2 234.9,151.1 234.9,148.4 L234.9,136.8 C234.9,134.2 232.8,132 230.1,132 L213.4,132 C210.8,132 208.6,134.1 208.6,136.8 L208.6,148.4 C208.6,151.1 210.8,153.2 213.4,153.2 Z" id="Shape"></path>
            <path d="M213.2,153.2 L230.3,153.2 C232.8,153.2 234.8,151.2 234.8,148.7 L234.8,138.5 C234.8,136 232.8,134 230.3,134 L213.2,134 C210.7,134 208.7,136 208.7,138.5 L208.7,148.7 C208.6,151.2 210.7,153.2 213.2,153.2 Z" id="Shape"></path>
            <path d="M183.5,153.2 L200.2,153.2 C202.8,153.2 205,151.1 205,148.4 L205,136.8 C205,134.2 202.9,132 200.2,132 L183.5,132 C180.9,132 178.7,134.1 178.7,136.8 L178.7,148.4 C178.7,151.1 180.9,153.2 183.5,153.2 Z" id="Shape"></path>
            <path d="M183.3,153.2 L200.4,153.2 C202.9,153.2 204.9,151.2 204.9,148.7 L204.9,138.5 C204.9,136 202.9,134 200.4,134 L183.3,134 C180.8,134 178.8,136 178.8,138.5 L178.8,148.7 C178.7,151.2 180.8,153.2 183.3,153.2 Z" id="Shape"></path>
            <path d="M153.6,153.2 L170.3,153.2 C172.9,153.2 175.1,151.1 175.1,148.4 L175.1,136.8 C175.1,134.2 173,132 170.3,132 L153.6,132 C151,132 148.8,134.1 148.8,136.8 L148.8,148.4 C148.8,151.1 151,153.2 153.6,153.2 Z" id="Shape"></path>
            <path d="M153.4,153.2 L170.5,153.2 C173,153.2 175,151.2 175,148.7 L175,138.5 C175,136 173,134 170.5,134 L153.4,134 C150.9,134 148.9,136 148.9,138.5 L148.9,148.7 C148.8,151.2 150.9,153.2 153.4,153.2 Z" id="Shape"></path>
            <path d="M123.7,153.2 L140.4,153.2 C143,153.2 145.2,151.1 145.2,148.4 L145.2,136.8 C145.2,134.2 143.1,132 140.4,132 L123.7,132 C121.1,132 118.9,134.1 118.9,136.8 L118.9,148.4 C118.9,151.1 121.1,153.2 123.7,153.2 Z" id="Shape"></path>
            <path d="M123.5,153.2 L140.6,153.2 C143.1,153.2 145.1,151.2 145.1,148.7 L145.1,138.5 C145.1,136 143.1,134 140.6,134 L123.5,134 C121,134 119,136 119,138.5 L119,148.7 C118.9,151.2 121,153.2 123.5,153.2 Z" id="Shape"></path>
            <path d="M93.8,153.2 L110.5,153.2 C113.1,153.2 115.3,151.1 115.3,148.4 L115.3,136.8 C115.3,134.2 113.2,132 110.5,132 L93.8,132 C91.2,132 89,134.1 89,136.8 L89,148.4 C89,151.1 91.2,153.2 93.8,153.2 Z" id="Shape"></path>
            <path d="M93.6,153.2 L110.7,153.2 C113.2,153.2 115.2,151.2 115.2,148.7 L115.2,138.5 C115.2,136 113.2,134 110.7,134 L93.6,134 C91.1,134 89.1,136 89.1,138.5 L89.1,148.7 C89,151.2 91.1,153.2 93.6,153.2 Z" id="Shape"></path>
            <path d="M63.9,153.2 L80.6,153.2 C83.2,153.2 85.4,151.1 85.4,148.4 L85.4,136.8 C85.4,134.2 83.3,132 80.6,132 L63.9,132 C61.3,132 59.1,134.1 59.1,136.8 L59.1,148.4 C59.1,151.1 61.3,153.2 63.9,153.2 Z" id="Shape"></path>
            <path d="M63.7,153.2 L80.8,153.2 C83.3,153.2 85.3,151.2 85.3,148.7 L85.3,138.5 C85.3,136 83.3,134 80.8,134 L63.7,134 C61.2,134 59.2,136 59.2,138.5 L59.2,148.7 C59.1,151.2 61.2,153.2 63.7,153.2 Z" id="Shape"></path>
            <path d="M34,153.2 L50.7,153.2 C53.3,153.2 55.5,151.1 55.5,148.4 L55.5,136.8 C55.5,134.2 53.4,132 50.7,132 L34,132 C31.4,132 29.2,134.1 29.2,136.8 L29.2,148.4 C29.2,151.1 31.4,153.2 34,153.2 Z" id="Shape"></path>
            <path d="M33.8,153.2 L50.9,153.2 C53.4,153.2 55.4,151.2 55.4,148.7 L55.4,138.5 C55.4,136 53.4,134 50.9,134 L33.8,134 C31.3,134 29.3,136 29.3,138.5 L29.3,148.7 C29.2,151.2 31.3,153.2 33.8,153.2 Z" id="Shape"></path>
            <path d="M392.8,128.6 L409.5,128.6 C412.1,128.6 414.3,126.5 414.3,123.8 L414.3,112.2 C414.3,109.6 412.2,107.4 409.5,107.4 L392.8,107.4 C390.2,107.4 388,109.5 388,112.2 L388,123.8 C388,126.5 390.1,128.6 392.8,128.6 Z" id="Shape"></path>
            <path d="M392.6,128.6 L409.7,128.6 C412.2,128.6 414.2,126.6 414.2,124.1 L414.2,113.9 C414.2,111.4 412.2,109.4 409.7,109.4 L392.6,109.4 C390.1,109.4 388.1,111.4 388.1,113.9 L388.1,124.1 C388,126.6 390.1,128.6 392.6,128.6 Z" id="Shape"></path>
            <path d="M362.9,128.6 L379.6,128.6 C382.2,128.6 384.4,126.5 384.4,123.8 L384.4,112.2 C384.4,109.6 382.3,107.4 379.6,107.4 L362.9,107.4 C360.3,107.4 358.1,109.5 358.1,112.2 L358.1,123.8 C358.1,126.5 360.3,128.6 362.9,128.6 Z" id="Shape"></path>
            <path d="M362.7,128.6 L379.8,128.6 C382.3,128.6 384.3,126.6 384.3,124.1 L384.3,113.9 C384.3,111.4 382.3,109.4 379.8,109.4 L362.7,109.4 C360.2,109.4 358.2,111.4 358.2,113.9 L358.2,124.1 C358.1,126.6 360.2,128.6 362.7,128.6 Z" id="Shape"></path>
            <path d="M333,128.6 L349.7,128.6 C352.3,128.6 354.5,126.5 354.5,123.8 L354.5,112.2 C354.5,109.6 352.4,107.4 349.7,107.4 L333,107.4 C330.4,107.4 328.2,109.5 328.2,112.2 L328.2,123.8 C328.2,126.5 330.4,128.6 333,128.6 Z" id="Shape"></path>
            <path d="M332.8,128.6 L349.9,128.6 C352.4,128.6 354.4,126.6 354.4,124.1 L354.4,113.9 C354.4,111.4 352.4,109.4 349.9,109.4 L332.8,109.4 C330.3,109.4 328.3,111.4 328.3,113.9 L328.3,124.1 C328.2,126.6 330.3,128.6 332.8,128.6 Z" id="Shape"></path>
            <path d="M303.1,128.6 L319.8,128.6 C322.4,128.6 324.6,126.5 324.6,123.8 L324.6,112.2 C324.6,109.6 322.5,107.4 319.8,107.4 L303.1,107.4 C300.5,107.4 298.3,109.5 298.3,112.2 L298.3,123.8 C298.3,126.5 300.5,128.6 303.1,128.6 Z" id="Shape"></path>
            <path d="M302.9,128.6 L320,128.6 C322.5,128.6 324.5,126.6 324.5,124.1 L324.5,113.9 C324.5,111.4 322.5,109.4 320,109.4 L302.9,109.4 C300.4,109.4 298.4,111.4 298.4,113.9 L298.4,124.1 C298.3,126.6 300.4,128.6 302.9,128.6 Z" id="Shape"></path>
            <path d="M273.2,128.6 L289.9,128.6 C292.5,128.6 294.7,126.5 294.7,123.8 L294.7,112.2 C294.7,109.6 292.6,107.4 289.9,107.4 L273.2,107.4 C270.6,107.4 268.4,109.5 268.4,112.2 L268.4,123.8 C268.4,126.5 270.6,128.6 273.2,128.6 Z" id="Shape"></path>
            <path d="M273,128.6 L290.1,128.6 C292.6,128.6 294.6,126.6 294.6,124.1 L294.6,113.9 C294.6,111.4 292.6,109.4 290.1,109.4 L273,109.4 C270.5,109.4 268.5,111.4 268.5,113.9 L268.5,124.1 C268.4,126.6 270.5,128.6 273,128.6 Z" id="Shape"></path>
            <path d="M243.3,128.6 L260,128.6 C262.6,128.6 264.8,126.5 264.8,123.8 L264.8,112.2 C264.8,109.6 262.7,107.4 260,107.4 L243.3,107.4 C240.7,107.4 238.5,109.5 238.5,112.2 L238.5,123.8 C238.5,126.5 240.7,128.6 243.3,128.6 Z" id="Shape"></path>
            <path d="M243.1,128.6 L260.2,128.6 C262.7,128.6 264.7,126.6 264.7,124.1 L264.7,113.9 C264.7,111.4 262.7,109.4 260.2,109.4 L243.1,109.4 C240.6,109.4 238.6,111.4 238.6,113.9 L238.6,124.1 C238.5,126.6 240.6,128.6 243.1,128.6 Z" id="Shape"></path>
            <path d="M213.4,128.6 L230.1,128.6 C232.7,128.6 234.9,126.5 234.9,123.8 L234.9,112.2 C234.9,109.6 232.8,107.4 230.1,107.4 L213.4,107.4 C210.8,107.4 208.6,109.5 208.6,112.2 L208.6,123.8 C208.6,126.5 210.8,128.6 213.4,128.6 Z" id="Shape"></path>
            <path d="M213.2,128.6 L230.3,128.6 C232.8,128.6 234.8,126.6 234.8,124.1 L234.8,113.9 C234.8,111.4 232.8,109.4 230.3,109.4 L213.2,109.4 C210.7,109.4 208.7,111.4 208.7,113.9 L208.7,124.1 C208.6,126.6 210.7,128.6 213.2,128.6 Z" id="Shape"></path>
            <path d="M183.5,128.6 L200.2,128.6 C202.8,128.6 205,126.5 205,123.8 L205,112.2 C205,109.6 202.9,107.4 200.2,107.4 L183.5,107.4 C180.9,107.4 178.7,109.5 178.7,112.2 L178.7,123.8 C178.7,126.5 180.9,128.6 183.5,128.6 Z" id="Shape"></path>
            <path d="M183.3,128.6 L200.4,128.6 C202.9,128.6 204.9,126.6 204.9,124.1 L204.9,113.9 C204.9,111.4 202.9,109.4 200.4,109.4 L183.3,109.4 C180.8,109.4 178.8,111.4 178.8,113.9 L178.8,124.1 C178.7,126.6 180.8,128.6 183.3,128.6 Z" id="Shape"></path>
            <path d="M153.6,128.6 L170.3,128.6 C172.9,128.6 175.1,126.5 175.1,123.8 L175.1,112.2 C175.1,109.6 173,107.4 170.3,107.4 L153.6,107.4 C151,107.4 148.8,109.5 148.8,112.2 L148.8,123.8 C148.8,126.5 151,128.6 153.6,128.6 Z" id="Shape"></path>
            <path d="M153.4,128.6 L170.5,128.6 C173,128.6 175,126.6 175,124.1 L175,113.9 C175,111.4 173,109.4 170.5,109.4 L153.4,109.4 C150.9,109.4 148.9,111.4 148.9,113.9 L148.9,124.1 C148.8,126.6 150.9,128.6 153.4,128.6 Z" id="Shape"></path>
            <path d="M123.7,128.6 L140.4,128.6 C143,128.6 145.2,126.5 145.2,123.8 L145.2,112.2 C145.2,109.6 143.1,107.4 140.4,107.4 L123.7,107.4 C121.1,107.4 118.9,109.5 118.9,112.2 L118.9,123.8 C118.9,126.5 121.1,128.6 123.7,128.6 Z" id="Shape"></path>
            <path d="M123.5,128.6 L140.6,128.6 C143.1,128.6 145.1,126.6 145.1,124.1 L145.1,113.9 C145.1,111.4 143.1,109.4 140.6,109.4 L123.5,109.4 C121,109.4 119,111.4 119,113.9 L119,124.1 C118.9,126.6 121,128.6 123.5,128.6 Z" id="Shape"></path>
            <path d="M93.8,128.6 L110.5,128.6 C113.1,128.6 115.3,126.5 115.3,123.8 L115.3,112.2 C115.3,109.6 113.2,107.4 110.5,107.4 L93.8,107.4 C91.2,107.4 89,109.5 89,112.2 L89,123.8 C89,126.5 91.2,128.6 93.8,128.6 Z" id="Shape"></path>
            <path d="M93.6,128.6 L110.7,128.6 C113.2,128.6 115.2,126.6 115.2,124.1 L115.2,113.9 C115.2,111.4 113.2,109.4 110.7,109.4 L93.6,109.4 C91.1,109.4 89.1,111.4 89.1,113.9 L89.1,124.1 C89,126.6 91.1,128.6 93.6,128.6 Z" id="Shape"></path>
            <path d="M63.9,128.6 L80.6,128.6 C83.2,128.6 85.4,126.5 85.4,123.8 L85.4,112.2 C85.4,109.6 83.3,107.4 80.6,107.4 L63.9,107.4 C61.3,107.4 59.1,109.5 59.1,112.2 L59.1,123.8 C59.1,126.5 61.3,128.6 63.9,128.6 Z" id="Shape"></path>
            <path d="M63.7,128.6 L80.8,128.6 C83.3,128.6 85.3,126.6 85.3,124.1 L85.3,113.9 C85.3,111.4 83.3,109.4 80.8,109.4 L63.7,109.4 C61.2,109.4 59.2,111.4 59.2,113.9 L59.2,124.1 C59.1,126.6 61.2,128.6 63.7,128.6 Z" id="Shape"></path>
            <path d="M34,128.6 L50.7,128.6 C53.3,128.6 55.5,126.5 55.5,123.8 L55.5,112.2 C55.5,109.6 53.4,107.4 50.7,107.4 L34,107.4 C31.4,107.4 29.2,109.5 29.2,112.2 L29.2,123.8 C29.2,126.5 31.4,128.6 34,128.6 Z" id="Shape"></path>
            <path d="M33.8,128.6 L50.9,128.6 C53.4,128.6 55.4,126.6 55.4,124.1 L55.4,113.9 C55.4,111.4 53.4,109.4 50.9,109.4 L33.8,109.4 C31.3,109.4 29.3,111.4 29.3,113.9 L29.3,124.1 C29.2,126.6 31.3,128.6 33.8,128.6 Z" id="Shape"></path>
            <path d="M26.4,264.1 L413.8,264.1 C419.2,264.1 423.6,268.5 423.6,273.9 L423.6,475.9 C423.6,481.3 419.2,485.7 413.8,485.7 L26.4,485.7 C21,485.7 16.6,481.3 16.6,475.9 L16.6,273.9 C16.5,268.5 20.9,264.1 26.4,264.1 Z" id="Shape"></path>
            <path d="M76.9,299.8 L363.2,299.8 C367,299.8 370.2,302.9 370.2,306.8 L370.2,443.2 C370.2,447 367.1,450.2 363.2,450.2 L76.9,450.2 C73.1,450.2 69.9,447.1 69.9,443.2 L69.9,306.7 C69.9,302.9 73.1,299.8 76.9,299.8 Z" id="Shape"></path>
            <path d="M300,299.8 L366.7,299.8 C368.6,299.8 370.1,301.3 370.1,303.2 L370.1,446.6 C370.1,448.5 368.6,450 366.7,450 L300,450 C298.1,450 296.6,448.5 296.6,446.6 L296.6,303.2 C296.5,301.3 298.1,299.8 300,299.8 Z" id="Shape"></path>
            <path d="M69.9,438.4 L370.1,438.4 L370.1,448.1 C370.1,449.2 369.2,450 368.2,450 L71.9,450 C70.8,450 70,449.1 70,448.1 L70,438.4 L69.9,438.4 Z" id="Shape"></path>
            <path d="M184.2,107.1 L343.7,107.1 C346.6,107.1 348.9,109.4 348.9,112.3 L348.9,123.8 C348.9,126.7 346.6,129 343.7,129 L184.2,129 C181.3,129 179,126.7 179,123.8 L179,112.3 C179,109.4 181.3,107.1 184.2,107.1 Z" id="Shape"></path>
            <path d="M183.9,109 L343.9,109 C346.6,109 348.8,111.2 348.8,113.9 L348.8,124 C348.8,126.7 346.6,128.9 343.9,128.9 L183.9,128.9 C181.2,128.9 179,126.7 179,124 L179,113.9 C179,111.2 181.2,109 183.9,109 Z" id="Shape"></path>
            <path d="M122.3,156.4 L172.1,156.4 C173.7,156.4 175.1,157.7 175.1,159.4 L175.1,175.5 C175.1,177.1 173.8,178.5 172.1,178.5 L122.3,178.5 C120.7,178.5 119.3,177.2 119.3,175.5 L119.3,159.4 C119.4,157.7 120.7,156.4 122.3,156.4 Z" id="Shape"></path>
            <path d="M122.2,158.3 L172.3,158.3 C173.9,158.3 175.1,159.6 175.1,161.1 L175.1,175.5 C175.1,177.1 173.8,178.3 172.3,178.3 L122.2,178.3 C120.6,178.3 119.4,177 119.4,175.5 L119.4,161.1 C119.4,159.6 120.6,158.3 122.2,158.3 Z" id="Shape"></path>
            <path d="M145.3,135 L145.3,175.4 C145.3,177 144,178.4 142.3,178.4 L121.7,178.4 C120.1,178.4 118.7,177.1 118.7,175.4 L118.7,135 C118.7,133.4 120,132 121.7,132 L142.3,132 C144,132.1 145.3,133.4 145.3,135 Z" id="Shape"></path>
            <path d="M145.3,136.6 L145.3,175.5 C145.3,177.1 144,178.4 142.4,178.4 L121.7,178.4 C120.1,178.4 118.8,177.1 118.8,175.5 L118.8,136.6 C118.8,135 120.1,133.7 121.7,133.7 L142.4,133.7 C144,133.6 145.3,134.9 145.3,136.6 Z" id="Shape"></path>
            <path d="M157.7,27.4 L282.4,27.4 C286.1,27.4 289,30.4 289,34 L289,81.1 C289,84.8 286,87.7 282.4,87.7 L157.7,87.7 C154,87.7 151.1,84.7 151.1,81.1 L151.1,34 C151.1,30.4 154.1,27.4 157.7,27.4 Z" id="Shape"></path>
            <circle id="Oval" cx="333.3" cy="398.5" r="23.5"></circle>
            <path d="M316.4,382.1 C320.7,377.7 326.7,374.9 333.3,374.9 C339.9,374.9 346,377.7 350.2,382.1 C349.1,388.1 344.8,392.9 339.3,395 C340.7,396.5 341.5,398.4 341.5,400.6 C341.5,405.1 337.8,408.8 333.3,408.8 C328.8,408.8 325.1,405.1 325.1,400.6 C325.1,398.5 325.9,396.5 327.3,395 C321.8,392.9 317.6,388.1 316.4,382.1 Z" id="Shape"></path>
            <rect id="Rectangle-path" x="210.4" y="400.6" width="70.6" height="18.5"></rect>
            <rect id="Rectangle-path" transform="translate(262.116800, 387.180600) rotate(-180.000000) translate(-262.116800, -387.180600) " x="243.1668" y="382.5306" width="37.9" height="9.3"></rect>
            <rect id="Rectangle-path" x="86.8" y="366.8" width="194.2" height="4.6"></rect>
            <rect id="Rectangle-path" x="86.8" y="349.6" width="194.2" height="4.6"></rect>
            <rect id="Rectangle-path" x="86.8" y="332.4" width="194.2" height="4.6"></rect>
            <rect id="Rectangle-path" x="86.8" y="315.2" width="194.2" height="4.6"></rect>
            <path d="M313.7,356.5 L353,356.5 C355.1,356.5 356.9,358.2 356.9,360.4 L356.9,360.4 C356.9,362.5 355.2,364.3 353,364.3 L313.7,364.3 C311.6,364.3 309.8,362.6 309.8,360.4 L309.8,360.4 C309.8,358.2 311.5,356.5 313.7,356.5 Z" id="Shape"></path>
            <path d="M313.7,344.2 L353,344.2 C355.1,344.2 356.9,345.9 356.9,348.1 L356.9,348.1 C356.9,350.2 355.2,352 353,352 L313.7,352 C311.6,352 309.8,350.3 309.8,348.1 L309.8,348.1 C309.8,345.9 311.5,344.2 313.7,344.2 Z" id="Shape"></path>
            <path d="M313.7,331.8 L353,331.8 C355.1,331.8 356.9,333.5 356.9,335.7 L356.9,335.7 C356.9,337.8 355.2,339.6 353,339.6 L313.7,339.6 C311.6,339.6 309.8,337.9 309.8,335.7 L309.8,335.7 C309.8,333.6 311.5,331.8 313.7,331.8 Z" id="Shape"></path>
            <path d="M489.6,51.4 L555,47.5 C557.5,47.3 559.7,49.3 559.9,51.8 L567.6,181.6 C567.8,184.1 565.8,186.3 563.3,186.5 L497.9,190.4 C495.4,190.6 493.2,188.6 493,186.1 L485.3,56.3 C485.1,53.8 487,51.6 489.6,51.4 Z" id="Shape"></path>
            <path d="M489.7,54.4 L555.2,50.5 C557.7,50.3 559.9,52.3 560,54.8 L567.6,181.6 C567.8,184.1 565.8,186.3 563.3,186.4 L497.8,190.3 C495.3,190.5 493.1,188.5 493,186 L485.4,59.2 C485.2,56.8 487.2,54.6 489.7,54.4 Z" id="Shape"></path>
            <path d="M495.5,67.7 L551,64.4 C553.1,64.3 554.9,65.9 555,68 L561.2,172.6 C561.3,174.7 559.7,176.5 557.6,176.6 L502.1,179.9 C500,180 498.2,178.4 498.1,176.3 L491.9,71.7 C491.8,69.7 493.4,67.9 495.5,67.7 Z" id="Shape"></path>
            <path d="M498,174.5 L491.9,71.9 C491.8,69.7 493.3,67.8 495.3,67.7 L551.1,64.4 C553.1,64.3 554.9,66 555,68.2 L555.1,69.9 L498,174.5 Z" id="Shape"></path>
            <path d="M523.4,181.9 L536.7,181.1 C537.4,181.1 538,181.6 538,182.3 L538,182.4 C538,183.1 537.5,183.7 536.8,183.7 L523.5,184.5 C522.8,184.5 522.2,184 522.2,183.3 L522.2,183.2 C522.2,182.5 522.7,181.9 523.4,181.9 Z" id="Shape"></path>
            <path d="M514.8,56.6 L530.5,55.7 C532.2,55.6 533.7,56.9 533.8,58.6 L533.8,58.9 C533.9,60.6 532.6,62.1 530.9,62.2 L515.1,63 C513.4,63.1 511.9,61.8 511.8,60.1 L511.8,59.8 C511.7,58.1 513,56.7 514.8,56.6 Z" id="Shape"></path>
            <path d="M195.1,716.2 L269.1,695.3 C272.4,694.4 274.3,690.9 273.4,687.6 L248.2,598.1 C247.3,594.8 243.8,592.9 240.5,593.8 L166.5,614.7 L195.1,716.2 Z" id="Shape"></path>
            <path d="M269.1,695.3 L207,712.8 L178.4,611.4 L240.5,593.9 C243.8,593 247.2,594.9 248.2,598.2 L273.4,687.7 C274.3,691 272.4,694.4 269.1,695.3 Z" id="Shape"></path>
            <rect id="Rectangle-path" transform="translate(218.359545, 622.899895) rotate(-15.741559) translate(-218.359545, -622.899895) " x="189.909404" y="612.399843" width="56.9002828" height="21.0001044"></rect>
            <rect id="Rectangle-path" transform="translate(218.359545, 622.899895) rotate(-15.741559) translate(-218.359545, -622.899895) " x="193.20942" y="615.499858" width="50.30025" height="14.8000736"></rect>
            <rect id="Rectangle-path" transform="translate(243.198235, 647.947815) rotate(-15.741559) translate(-243.198235, -647.947815) " x="238.598212" y="595.297553" width="9.20004572" height="105.300523"></rect>
            <rect id="Rectangle-path" transform="translate(245.406255, 647.352755) rotate(-15.741559) translate(-245.406255, -647.352755) " x="243.106244" y="594.702493" width="4.60002286" height="105.300523"></rect>
            <polygon id="Shape" points="218.9 709.5 222.2 721 215 718.5 210.2 724.4 206.9 712.9"></polygon>
            <path d="M315.1,699.7 L314.1,698.8 C312.4,697.3 312.3,694.6 313.8,692.9 L326.3,679 C327.8,677.3 330.5,677.2 332.2,678.7 L333.2,679.6 C334.9,681.1 335,683.8 333.5,685.5 L321,699.4 C319.4,701.1 316.8,701.2 315.1,699.7 Z" id="Shape"></path>
            <circle id="Oval" transform="translate(350.350660, 659.032780) rotate(-48.056227) translate(-350.350660, -659.032780) " cx="350.35066" cy="659.03278" r="38.4999422"></circle>
            <circle id="Oval" transform="translate(350.350660, 659.032780) rotate(-48.056227) translate(-350.350660, -659.032780) " cx="350.35066" cy="659.03278" r="33.1999502"></circle>
            <circle id="Oval" transform="translate(350.350660, 659.032780) rotate(-48.056227) translate(-350.350660, -659.032780) " cx="350.35066" cy="659.03278" r="28.9999565"></circle>
            <circle id="Oval" transform="translate(350.350660, 659.032780) rotate(-48.056227) translate(-350.350660, -659.032780) " cx="350.35066" cy="659.03278" r="25.999961"></circle>
            <path d="M379.3,656.7 C362.3,642.9 338.1,643.1 321.5,656.7 C322,650.6 324.4,644.6 328.8,639.6 C339.5,627.7 357.9,626.7 369.8,637.4 C375.5,642.6 378.7,649.6 379.3,656.7 Z" id="Shape"></path>
            <path d="M401.5,642.6 L390.5,642.6 C387,642.6 384.2,639.8 384.2,636.3 L384.2,636.3 C384.2,632.8 387,630 390.5,630 L401.5,630 C405,630 407.8,632.8 407.8,636.3 L407.8,636.3 C407.8,639.8 405,642.6 401.5,642.6 Z" id="Shape"></path>
            <path d="M170.8,574.2 C171,577.5 173.9,580 177.3,580 L235.6,580 C237.3,580 238.9,580.7 240,581.8 C241.1,582.9 241.8,584.4 241.8,586.1 C241.8,589.6 238.8,592.4 235.3,592.4 L199.1,592.4 C197.4,592.4 195.8,593.1 194.7,594.2 C193.6,595.3 192.9,596.8 192.9,598.5 C192.9,602 195.9,604.8 199.4,604.8 L229.9,604.8 C226.3,604.8 223.4,607.8 223.7,611.5 C223.9,614.8 226.8,617.3 230.2,617.3 L288.5,617.3 C290.2,617.3 291.8,618 292.9,619.1 C294,620.2 294.7,621.8 294.7,623.5 C294.7,627 291.7,629.8 288.2,629.8 L283,629.8 C281.3,629.8 279.7,630.5 278.6,631.6 C277.5,632.7 276.8,634.2 276.8,635.9 C276.7,639.4 279.8,642.3 283.3,642.3 L314.4,642.3 C316.1,642.3 317.7,643 318.8,644.1 C319.9,645.2 320.6,646.8 320.6,648.5 C320.6,650.2 321.3,651.8 322.4,652.9 C323.5,654 325.1,654.7 326.8,654.7 C328.5,654.7 330.1,654 331.2,652.9 C332.3,651.8 333,650.3 333,648.6 C333.1,645.1 335.7,642.2 339.2,642.2 L370.5,642.2 C372.2,642.2 373.8,641.5 374.9,640.4 C376,639.3 376.7,637.8 376.7,636.1 C376.7,632.6 373.7,629.8 370.2,629.8 L313.3,629.8 C311.6,629.8 310,629.1 308.9,628 C307.8,626.9 307.1,625.4 307.1,623.7 C307.1,620.2 310.1,617.4 313.6,617.4 L326.7,617.4 C328.4,617.4 330,616.7 331.1,615.6 C332.2,614.5 332.9,613 332.9,611.3 C333,607.8 335.6,604.9 339.1,604.9 L349.3,604.9 C351,604.9 352.6,604.2 353.7,603.1 C354.8,602 355.5,600.5 355.5,598.8 C355.6,595.3 352.5,592.4 349,592.4 L297.3,592.4 C295.6,592.4 294,591.7 292.9,590.6 C291.8,589.5 291.1,587.9 291.1,586.2 C291.1,582.7 294.1,579.9 297.6,579.9 L326.6,579.9 C328.3,579.9 329.9,579.2 331,578.1 C332.1,577 332.8,575.5 332.8,573.8 C332.9,570.3 329.8,567.4 326.3,567.4 L306,567.4 C304.3,567.4 303,566.1 302.9,564.4 L302.8,561.2 C302.8,557.7 300,554.9 296.5,554.9 L244.6,554.9 C242.9,554.9 241.3,554.2 240.2,553.1 C239.1,552 238.4,550.5 238.4,548.8 C238.4,545.3 241.4,542.5 244.9,542.5 L273.9,542.5 C275.6,542.5 277.2,541.8 278.3,540.7 C279.4,539.6 280.1,538.1 280.1,536.4 C280.1,532.9 277.1,530.1 273.6,530.1 L193,530.1 C191.3,530.1 189.7,530.8 188.6,531.9 C187.5,533 186.8,534.6 186.8,536.3 C186.8,539.8 189.8,542.6 193.3,542.6 L219.8,542.6 C221.5,542.6 223.1,543.3 224.2,544.4 C225.6,545.8 226.4,548 225.9,550.2 C225.3,553.1 222.7,555 219.7,555 L219.7,555 C218,555 216.4,555.7 215.3,556.8 C214.2,557.9 213.5,559.4 213.5,561.1 C213.4,564.6 210.8,567.5 207.3,567.5 L177,567.5 C173.4,567.5 170.5,570.6 170.8,574.2 Z M272.6,592.5 L260.6,592.5 C258.9,592.5 257.3,591.8 256.2,590.7 C255.1,589.6 254.4,588 254.4,586.3 C254.4,582.8 257.2,580 260.7,580 L272.7,580 C274.4,580 276,580.7 277.1,581.8 C278.2,582.9 278.9,584.5 278.9,586.2 C278.8,589.7 276,592.5 272.6,592.5 Z" id="Shape"></path>
            <path d="M264.9,642.3 L264.9,642.3 C268.4,642.3 271.2,639.5 271.2,636 L271.2,636 C271.2,632.5 268.4,629.7 264.9,629.7 L264.9,629.7 C261.4,629.7 258.6,632.5 258.6,636 L258.6,636 C258.6,639.5 261.4,642.3 264.9,642.3 Z" id="Shape"></path>
            <path d="M156.1,542.5 L140.5,542.5 C137,542.5 134.2,539.7 134.2,536.2 L134.2,536.2 C134.2,532.7 137,529.9 140.5,529.9 L156.1,529.9 C159.6,529.9 162.4,532.7 162.4,536.2 L162.4,536.2 C162.4,539.7 159.6,542.5 156.1,542.5 Z" id="Shape"></path>
            <path d="M173.2,542.5 L173.2,542.5 C176.7,542.5 179.5,539.7 179.5,536.2 L179.5,536.2 C179.5,532.7 176.7,529.9 173.2,529.9 L173.2,529.9 C169.7,529.9 166.9,532.7 166.9,536.2 L166.9,536.2 C166.9,539.7 169.7,542.5 173.2,542.5 Z" id="Shape"></path>
            <rect id="Rectangle-path" transform="translate(616.465855, 185.947840) rotate(-158.173055) translate(-616.465855, -185.947840) " x="584.316239" y="159.548155" width="64.2992326" height="52.7993698"></rect>
            <polygon id="Shape" points="596.5 149.5 609.5 154.7 593.6 156.7"></polygon>
            <rect id="Rectangle-path" transform="translate(627.620560, 158.321030) rotate(-158.173055) translate(-627.620560, -158.321030) " x="595.520943" y="154.921071" width="64.1992338" height="6.79991884"></rect>
            <rect id="Rectangle-path" transform="translate(627.648445, 158.350240) rotate(-158.173055) translate(-627.648445, -158.350240) " x="595.598828" y="157.450251" width="64.099235" height="1.79997852"></rect>
            <rect id="Rectangle-path" transform="translate(608.175050, 206.560040) rotate(-158.173055) translate(-608.175050, -206.560040) " x="576.275431" y="202.460089" width="63.7992385" height="8.19990213"></rect>
            <rect id="Rectangle-path" transform="translate(609.408200, 203.402160) rotate(-158.173055) translate(-609.408200, -203.402160) " x="577.508581" y="202.702168" width="63.7992385" height="1.39998329"></rect>
            <rect id="Rectangle-path" transform="translate(894.681790, 111.480125) rotate(-25.824486) translate(-894.681790, -111.480125) " x="884.582157" y="107.730261" width="20.1992664" height="7.49972763"></rect>
            <rect id="Rectangle-path" transform="translate(890.882350, 113.407495) rotate(-25.824486) translate(-890.882350, -113.407495) " x="888.282444" y="111.957548" width="5.19981116" height="2.89989468"></rect>
            <rect id="Rectangle-path" transform="translate(890.485850, 112.548950) rotate(-25.824486) translate(-890.485850, -112.548950) " x="887.885944" y="112.048968" width="5.19981116" height="1"></rect>
            <rect id="Rectangle-path" transform="translate(898.460290, 109.694365) rotate(-25.824486) translate(-898.460290, -109.694365) " x="895.860384" y="108.244418" width="5.19981116" height="2.89989468"></rect>
            <rect id="Rectangle-path" transform="translate(898.063790, 108.835720) rotate(-25.824486) translate(-898.063790, -108.835720) " x="895.463884" y="108.335738" width="5.19981116" height="1"></rect>
            <path d="M918.2,160 L918.2,160 C912.2,162.9 904.9,160.4 902,154.4 L885.4,120.1 L907.2,109.5 L923.8,143.8 C926.7,149.8 924.2,157.1 918.2,160 Z" id="Shape"></path>
            <path d="M907.2,109.6 L923.8,143.9 C926.7,149.9 924.2,157.2 918.2,160.1 L896.3,114.9 L907.2,109.6 Z" id="Shape"></path>
            <circle id="Oval" transform="translate(912.579660, 148.546790) rotate(-25.824486) translate(-912.579660, -148.546790) " cx="912.57966" cy="148.54679" r="6.49976395"></circle>
            <path d="M918.4,145.7 C918.5,146 918.6,146.3 918.7,146.5 C916.9,143.9 913.4,142.8 910.5,144.3 C907.6,145.8 906.2,149.1 907.2,152.1 C907,151.9 906.9,151.6 906.7,151.3 C905.1,148.1 906.5,144.2 909.7,142.6 C913,141.1 916.9,142.4 918.4,145.7 Z" id="Shape"></path>
        </g>
    </g>
</svg>