<?xml version="1.0" encoding="utf-8"?>
<!-- Generator: Adobe Illustrator 21.1.0, SVG Export Plug-In . SVG Version: 6.00 Build 0)  -->
<svg version="1.1" id="Camada_1" xmlns="http://www.w3.org/2000/svg" xmlns:xlink="http://www.w3.org/1999/xlink" x="0px" y="0px"
	 viewBox="0 0 389.7 318.5" style="enable-background:new 0 0 389.7 318.5;" xml:space="preserve">
<style type="text/css">
	.st0{fill:#FFFFFF;}
	.st1{fill:#50BBB6;}
	.st2{enable-background:new    ;}
	.st3{fill:#D2492D;}
	.st4{fill:#5C4897;}
	.st5{fill:#D24A2C;}
</style>
<g>
	<path class="st0" d="M151.6,27.5c-1,0-1.8-0.8-1.8-1.8s0.8-1.8,1.8-1.8s1.8,0.8,1.8,1.8S152.5,27.5,151.6,27.5 M151.6,24.5
		c-0.7,0-1.2,0.5-1.2,1.2s0.5,1.2,1.2,1.2s1.2-0.5,1.2-1.2C152.8,25.1,152.2,24.5,151.6,24.5"/>
	<path class="st0" d="M169.2,17.9c-1.5,0-2.7-1.2-2.7-2.7s1.2-2.7,2.7-2.7s2.7,1.2,2.7,2.7S170.7,17.9,169.2,17.9 M169.2,13
		c-1.2,0-2.2,1-2.2,2.2s1,2.2,2.2,2.2s2.2-1,2.2-2.2C171.3,14,170.4,13,169.2,13"/>
	<path class="st0" d="M179.3,27.1h-20.7c-0.7,0-1.3-0.7-1.3-1.5s0.6-1.5,1.3-1.5h20.7c0.7,0,1.3,0.7,1.3,1.5S180,27.1,179.3,27.1
		 M158.6,24.7c-0.4,0-0.8,0.4-0.8,0.9s0.3,0.9,0.8,0.9h20.7c0.4,0,0.8-0.4,0.8-0.9s-0.3-0.9-0.8-0.9H158.6z"/>
	<path class="st0" d="M169.3,267.7c-5.6,0-10.1-4.5-10.1-10.1s4.5-10.1,10.1-10.1s10.1,4.5,10.1,10.1
		C179.4,263.2,174.9,267.7,169.3,267.7 M169.3,248.1c-5.3,0-9.6,4.3-9.6,9.6c0,5.3,4.3,9.6,9.6,9.6s9.6-4.3,9.6-9.6
		S174.6,248.1,169.3,248.1"/>
	<path class="st0" d="M169.3,269.7c-6.7,0-12.1-5.4-12.1-12.1c0-6.7,5.4-12.1,12.1-12.1c6.7,0,12.1,5.4,12.1,12.1
		C181.4,264.3,176,269.7,169.3,269.7 M169.3,246.1c-6.4,0-11.6,5.2-11.6,11.6c0,6.4,5.2,11.5,11.6,11.5c6.4,0,11.5-5.2,11.5-11.5
		C180.9,251.3,175.7,246.1,169.3,246.1"/>
	<path class="st0" d="M213.6,2h-22.4V0.3h22.4V2z M191.8,1.5h21.3V0.8h-21.3V1.5z"/>
	<path class="st0" d="M234.6,27.7h-3.2v-2.6h3.2V27.7z M231.6,27.5h2.7v-2h-2.7V27.5z"/>
	<path class="st0" d="M107.2,27.7h-3.6v-2.6h3.6V27.7z M103.8,27.5h3.1v-2h-3.1V27.5z"/>
	<path class="st0" d="M234.6,254.4h-3.2v-2.6h3.2V254.4z M231.6,254.1h2.7v-2h-2.7V254.1z"/>
	<path class="st0" d="M107.2,254.4h-3.6v-2.6h3.6V254.4z M103.8,254.1h3.1v-2h-3.1V254.1z"/>
	<path class="st0" d="M104,52.5h-1.8v-13h1.8V52.5z M102.8,52h0.7V40.1h-0.7V52z"/>
	<path class="st0" d="M104,76.1h-1.8V65.6h1.8V76.1z M102.8,75.6h0.7v-9.4h-0.7V75.6z"/>
	<path class="st0" d="M104,98.9h-1.8V88.2h1.8V98.9z M102.8,98.3h0.7v-9.6h-0.7V98.3z"/>
	<path class="st1" d="M225.1,238.8H113.5V40.6h111.6V238.8z M114,238.3h110.5V41.1H114V238.3z"/>
	<path class="st0" d="M214.6,274.3h-90.8c-9.4,0-17.1-7.7-17.1-17.1V21.7c0-9.4,7.7-17.1,17.1-17.1h90.8c9.4,0,17.1,7.7,17.1,17.1
		v235.6C231.7,266.7,224.1,274.3,214.6,274.3 M123.9,5.1c-9.1,0-16.5,7.4-16.5,16.5v235.6c0,9.1,7.4,16.5,16.5,16.5h90.8
		c9.1,0,16.5-7.4,16.5-16.5V21.7c0-9.1-7.4-16.5-16.5-16.5h-90.8V5.1z"/>
	<g class="st2">
		<path class="st3" d="M286,227.2v-24.7c53.2-38.5,63.2-47,63.2-59.1c0-8.5-7.9-12.9-16.9-12.9c-13.6,0-23.9,5.2-32.8,13.4l-17.5-21
			c13.1-14.4,32.6-20.4,49.7-20.4c28.9,0,49.7,16.2,49.7,40.9c0,18.8-13.4,34.8-44,56.2h44.9v27.6H286z"/>
	</g>
	<path class="st0" d="M214.3,278.3h-90.4c-11.4,0-20.7-9.3-20.7-20.7V99.2H102V88h1.2V76.4H102v-11h1.2V52.8H102V39.3h1.2V21.9
		c0-11.4,9.3-20.7,20.7-20.7H191V0h22.9v1.2h0.4c11.4,0,20.7,9.3,20.7,20.7v235.7C235,269.1,225.7,278.3,214.3,278.3 M103,98.1h1.2
		v159.6c0,10.8,8.8,19.6,19.6,19.6h90.4c10.8,0,19.6-8.8,19.6-19.6V21.9c0-10.8-8.8-19.6-19.6-19.6h-1.5V1.1H192v1.2h-68.2
		c-10.8,0-19.6,8.8-19.6,19.6v18.4H103v11.4h1.2v14.7H103v8.9h1.2V89H103V98.1z"/>
	<rect x="162" y="308.8" class="st4" width="3.2" height="3.2"/>
	<rect x="168.5" y="302.3" class="st4" width="3.2" height="3.2"/>
	<rect x="165.2" y="305.6" class="st4" width="3.2" height="3.2"/>
	<rect x="168.5" y="315.3" class="st4" width="3.2" height="3.2"/>
	<rect x="165.2" y="312" class="st4" width="3.2" height="3.2"/>
	<rect x="168.5" y="308.8" class="st4" width="19.4" height="3.2"/>
	<rect x="197.7" y="308.8" class="st4" width="3.2" height="3.2"/>
	<rect x="204.2" y="302.3" class="st4" width="3.2" height="3.2"/>
	<rect x="200.9" y="305.6" class="st4" width="3.2" height="3.2"/>
	<rect x="204.2" y="315.3" class="st4" width="3.2" height="3.2"/>
	<rect x="200.9" y="312" class="st4" width="3.2" height="3.2"/>
	<rect x="223.7" y="308.8" class="st4" width="3.2" height="3.2"/>
	<rect x="217.3" y="302.3" class="st4" width="3.2" height="3.2"/>
	<rect x="220.5" y="305.6" class="st4" width="3.2" height="3.2"/>
	<rect x="217.3" y="315.3" class="st4" width="3.2" height="3.2"/>
	<rect x="220.5" y="312" class="st4" width="3.2" height="3.2"/>
	<rect x="110" y="315.3" class="st4" width="3.2" height="3.2"/>
	<rect x="113.2" y="312" class="st4" width="3.2" height="3.2"/>
	<rect x="116.4" y="308.8" class="st4" width="3.2" height="3.2"/>
	<rect x="119.7" y="305.6" class="st4" width="3.2" height="3.2"/>
	<rect x="122.9" y="302.3" class="st4" width="3.2" height="3.2"/>
	<rect x="110" y="302.3" class="st4" width="3.2" height="3.2"/>
	<rect x="113.2" y="305.6" class="st4" width="3.2" height="3.2"/>
	<rect x="119.7" y="312" class="st4" width="3.2" height="3.2"/>
	<rect x="122.9" y="315.3" class="st4" width="3.2" height="3.2"/>
	<rect x="136" y="315.3" class="st4" width="16.1" height="3.2"/>
	<rect x="136" y="308.8" class="st4" width="16.1" height="3.2"/>
	<rect x="136" y="302.3" class="st4" width="16.1" height="3.2"/>
	<path class="st0" d="M91.2,2.9c0,8.9-7.2,16-16,16c-8.9,0-16-7.2-16-16c0-0.6,0.5-1.1,1.1-1.1s1.1,0.5,1.1,1.1
		c0,3.9,1.6,7.3,4.1,9.9c2.5,2.5,6,4.1,9.8,4.1c3.9,0,7.3-1.6,9.9-4.1c2.5-2.5,4.1-6,4.1-9.9c0-0.6,0.5-1.1,1.1-1.1
		C90.7,1.9,91.2,2.4,91.2,2.9"/>
	<path class="st0" d="M47.7,2.9c0,8.9-7.2,16-16,16c-8.9,0-16-7.2-16-16c0-0.6,0.5-1.1,1.1-1.1s1.1,0.5,1.1,1.1
		c0,3.9,1.6,7.3,4.1,9.9c2.5,2.5,6,4.1,9.8,4.1c3.9,0,7.3-1.6,9.9-4.1c2.5-2.5,4.1-6,4.1-9.9c0-0.6,0.5-1.1,1.1-1.1
		C47.2,1.9,47.7,2.4,47.7,2.9"/>
	<path class="st0" d="M59.1,32.9c0-8.9,7.2-16,16-16s16,7.2,16,16c0,0.6-0.5,1.1-1.1,1.1s-1.1-0.5-1.1-1.1c0-3.8-1.6-7.3-4.1-9.9
		c-2.5-2.5-6-4.1-9.9-4.1c-3.8,0-7.3,1.6-9.8,4.1S61,29,61,32.9c0,0.6-0.5,1.1-1.1,1.1C59.6,34,59.1,33.5,59.1,32.9"/>
	<path class="st4" d="M276.5,252.3l-6,6c-0.2,0.2-0.5,0.3-0.7,0.3h-23.9c-0.4,0-0.8-0.3-1-0.7c-0.2-0.4-0.1-0.8,0.2-1.1l6-6
		c0.4-0.4,1.1-0.4,1.5,0s0.4,1.1,0,1.5l-4.2,4.2h20.9l5.7-5.7c0.4-0.4,1.1-0.4,1.5,0C277,251.2,277,251.9,276.5,252.3"/>
	<path class="st4" d="M252.6,228.4l-5.7,5.7v23.5c0,0.6-0.5,1.1-1.1,1.1s-1.1-0.5-1.1-1.1v-23.9c0-0.3,0.1-0.5,0.3-0.7l6-6
		c0.4-0.4,1.1-0.4,1.5,0C253,227.3,253,228,252.6,228.4"/>
	<path class="st4" d="M312.6,256.9l5.7-5.7v-20.9l-4.2,4.2c-0.4,0.4-1.1,0.4-1.5,0s-0.4-1.1,0-1.5l6-6c0.3-0.3,0.8-0.4,1.1-0.2
		c0.4,0.2,0.7,0.5,0.7,1v23.9c0,0.3-0.1,0.5-0.3,0.7l-6,6c-0.4,0.4-1.1,0.4-1.5,0C312.2,258,312.2,257.3,312.6,256.9"/>
	<path class="st4" d="M288.6,233l6-6c0.2-0.2,0.5-0.3,0.7-0.3h23.9c0.6,0,1.1,0.5,1.1,1.1s-0.5,1.1-1.1,1.1h-23.5l-5.7,5.7
		c-0.4,0.4-1.1,0.4-1.5,0C288.2,234,288.2,233.4,288.6,233"/>
	<path class="st4" d="M33.3,153.3h1.1c0,5.2-4.2,9.4-9.4,9.4s-9.4-4.2-9.4-9.4s4.2-9.4,9.4-9.4s9.4,4.2,9.4,9.4h-2.1
		c0-2-0.8-3.9-2.1-5.2S27,146,25,146s-3.9,0.8-5.2,2.1s-2.1,3.2-2.1,5.2s0.8,3.9,2.1,5.2s3.2,2.1,5.2,2.1s3.9-0.8,5.2-2.1
		s2.1-3.2,2.1-5.2H33.3"/>
	<path class="st0" d="M75.1,169.3H59.5c-0.6,0-1.1-0.5-1.1-1.1s0.5-1.1,1.1-1.1h15.6c0.6,0,1.1,0.5,1.1,1.1
		C76.1,168.9,75.7,169.3,75.1,169.3"/>
	<path class="st0" d="M75.1,139.4H59.5c-0.6,0-1.1-0.5-1.1-1.1s0.5-1.1,1.1-1.1h15.6c0.6,0,1.1,0.5,1.1,1.1S75.7,139.4,75.1,139.4"
		/>
	<path class="st0" d="M60.1,154.4H43.5c-0.6,0-1.1-0.5-1.1-1.1s0.5-1.1,1.1-1.1h16.6c0.6,0,1.1,0.5,1.1,1.1S60.7,154.4,60.1,154.4"
		/>
	<path class="st0" d="M52.3,137.3h2.2c0.6,0,1.1,0.5,1.1,1.1s-0.5,1.1-1.1,1.1h-2.2c-0.6,0-1.1-0.5-1.1-1.1S51.7,137.3,52.3,137.3"
		/>
	<path class="st0" d="M52.3,167.2h2.2c0.6,0,1.1,0.5,1.1,1.1s-0.5,1.1-1.1,1.1h-2.2c-0.6,0-1.1-0.5-1.1-1.1S51.7,167.2,52.3,167.2"
		/>
	<path class="st0" d="M88,271.3v1.1H1.1c-0.3,0-0.5-0.1-0.7-0.3c-0.2-0.2-0.3-0.5-0.3-0.7v-59.6c0-0.3,0.1-0.5,0.3-0.7
		c0.2-0.2,0.5-0.3,0.7-0.3H88c0.3,0,0.5,0.1,0.7,0.3s0.3,0.5,0.3,0.7v59.6c0,0.3-0.1,0.6-0.3,0.7c-0.2,0.2-0.5,0.3-0.7,0.3V271.3h-1
		v-58.6H2.2v57.5H88V271.3h-1H88"/>
	<path class="st0" d="M1.1,221H88c0.6,0,1.1,0.5,1.1,1.1s-0.5,1.1-1.1,1.1H1.1c-0.6,0-1.1-0.5-1.1-1.1S0.6,221,1.1,221"/>
	<rect x="10.9" y="231.8" class="st4" width="29.8" height="29.8"/>
	<rect x="48.5" y="231.8" class="st4" width="29.8" height="29.8"/>
	<rect x="289.5" y="149.6" class="st4" width="7.7" height="0.8"/>
	<rect x="234.4" y="149.6" class="st4" width="7.7" height="0.8"/>
	<path class="st4" d="M290.8,149.2c-5.2-8.9-14.8-14.5-25.1-14.5s-19.9,5.5-25.1,14.5l-0.4,0.8h3.6c4.7-7.5,13-12.1,21.9-12.1
		s17.2,4.6,21.9,12.1c-4.7,7.5-13,12.1-21.9,12.1v3.1c10.3,0,19.9-5.5,25.1-14.5l0.5-0.8"/>
	<path class="st0" d="M273.4,150h0.7c0,4.6-3.7,8.4-8.4,8.4c-4.6,0-8.4-3.7-8.4-8.4c0-4.6,3.7-8.4,8.4-8.4s8.4,3.7,8.4,8.4h-1.4
		c0-1.9-0.8-3.7-2-4.9c-1.3-1.3-3-2-4.9-2s-3.7,0.8-4.9,2c-1.3,1.3-2,3-2,4.9s0.8,3.7,2,4.9c1.3,1.3,3,2,4.9,2s3.7-0.8,4.9-2
		c1.3-1.3,2-3,2-4.9H273.4"/>
	<path class="st0" d="M236.5,150c0,1.1-0.9,2.1-2.1,2.1c-1.1,0-2.1-0.9-2.1-2.1c0-1.1,0.9-2.1,2.1-2.1
		C235.5,147.9,236.5,148.8,236.5,150"/>
	<path class="st0" d="M299.2,150c0,1.1-0.9,2.1-2.1,2.1c-1.1,0-2.1-0.9-2.1-2.1c0-1.1,0.9-2.1,2.1-2.1S299.2,148.8,299.2,150"/>
	<path class="st4" d="M265.8,162.1v3.1c-10.3,0-19.9-5.5-25.1-14.5l-0.4-0.8h3.6C248.6,157.5,256.9,162.1,265.8,162.1"/>
	<path class="st4" d="M271.5,150c0,3.1-2.6,5.7-5.7,5.7c-3.1,0-5.7-2.6-5.7-5.7c0-3.1,2.6-5.7,5.7-5.7S271.5,146.8,271.5,150"/>
	<path class="st4" d="M90.1,153.3h1.1c0,8.9-7.2,16-16,16s-16-7.2-16-16c0-8.9,7.2-16,16-16c8.9,0,16,7.2,16,16H89
		c0-3.9-1.6-7.3-4.1-9.9c-2.5-2.5-6-4.1-9.9-4.1c-3.8,0-7.3,1.6-9.8,4.1s-4.1,6-4.1,9.9c0,3.8,1.6,7.3,4.1,9.9
		c2.5,2.5,6,4.1,9.8,4.1c3.9,0,7.3-1.6,9.9-4.1c2.5-2.5,4.1-6,4.1-9.9H90.1"/>
	<path class="st4" d="M177.6,257.6c0,4.6-3.7,8.3-8.3,8.3s-8.3-3.7-8.3-8.3c0-4.6,3.7-8.3,8.3-8.3
		C173.9,249.3,177.6,253.1,177.6,257.6"/>
	<path class="st0" d="M313.3,233.7v1.1h-22.9v21.8h21.8v-22.9L313.3,233.7v1.1V233.7h1.1v23.9c0,0.3-0.1,0.5-0.3,0.7
		s-0.5,0.3-0.7,0.3h-23.9c-0.3,0-0.5-0.1-0.7-0.3c-0.2-0.2-0.3-0.5-0.3-0.7v-23.9c0-0.3,0.1-0.5,0.3-0.7s0.5-0.3,0.7-0.3h23.9
		c0.3,0,0.5,0.1,0.7,0.3s0.3,0.5,0.3,0.7L313.3,233.7"/>
	<path class="st0" d="M251.9,227.7v-1.1h23.9c0.3,0,0.5,0.1,0.7,0.3s0.3,0.5,0.3,0.7v23.9c0,0.3-0.1,0.5-0.3,0.7s-0.5,0.3-0.7,0.3
		h-23.9c-0.3,0-0.5-0.1-0.7-0.3s-0.3-0.5-0.3-0.7v-23.9c0-0.3,0.1-0.5,0.3-0.7s0.5-0.3,0.7-0.3V227.7h1.1v22.9h21.8v-21.8h-22.9
		L251.9,227.7h1.1H251.9"/>
</g>
</svg>
