<?xml version="1.0" encoding="UTF-8" standalone="no"?><svg style="enable-background:new 0 0 389.6 318.5" xmlns="http://www.w3.org/2000/svg" xml:space="preserve" viewBox="0 0 389.6 318.5" version="1.1" y="0px" x="0px" xmlns:xlink="http://www.w3.org/1999/xlink"><style type="text/css">.st0{fill:#FFFFFF;}.st1{fill:#50BBB6;}.st2{enable-background:new;}.st3{fill:#D2492D;}.st4{fill:#5C4897;}.st5{fill:#D24A2C;}</style><g class="st2"><path class="st5" d="m336 213.9v-82.3l-20.6 20.8-18.1-19 42.9-42.4h27.4v122.9h-31.6z"/></g><polygon points="71.7 51.5 71.7 50.1 258 50.1 258 237.8 70.3 237.8 70.3 50.1 71.7 50.1 71.7 51.5 73 51.5 73 235.1 255.3 235.1 255.3 52.8 71.7 52.8 71.7 51.5 73 51.5" class="st0"/><rect y="92" x="172.9" height="2.7" class="st4" width="44.8"/><rect y="92" x="104.8" height="2.7" class="st0" width="51.2"/><rect y="117.3" x="143.1" height="2.7" class="st0" width="74.6"/><rect y="117.3" x="104.8" height="2.7" class="st4" width="20.7"/><rect y="142.6" x="104.8" height="2.7" class="st4" width="112.8"/><rect y="167.9" x="154.1" height="2.7" class="st0" width="63.5"/><rect y="167.9" x="104.8" height="2.7" class="st0" width="34.4"/><rect y="193.2" x="104.8" height="2.7" class="st4" width="112.8"/><path class="st4" d="m28.7 236.5h1.1c0 5.2-4.2 9.4-9.4 9.4s-9.4-4.2-9.4-9.4 4.2-9.4 9.4-9.4 9.4 4.2 9.4 9.4h-2.1c0-2-0.8-3.9-2.1-5.2s-3.2-2.1-5.2-2.1-3.9 0.8-5.2 2.1-2.1 3.2-2.1 5.2 0.8 3.9 2.1 5.2 3.2 2.1 5.2 2.1 3.9-0.8 5.2-2.1c1.3-1.3 2.1-3.2 2.1-5.2h1"/><path class="st4" d="m70.5 252.6h-15.6c-0.6 0-1.1-0.5-1.1-1.1s0.5-1.1 1.1-1.1h15.6c0.6 0 1.1 0.5 1.1 1.1s-0.5 1.1-1.1 1.1"/><path class="st4" d="m70.5 222.6h-15.6c-0.6 0-1.1-0.5-1.1-1.1s0.5-1.1 1.1-1.1h15.6c0.6 0 1.1 0.5 1.1 1.1-0.1 0.6-0.5 1.1-1.1 1.1"/><path class="st0" d="m55.5 237.6h-16.6c-0.6 0-1.1-0.5-1.1-1.1s0.5-1.1 1.1-1.1h16.6c0.6 0 1.1 0.5 1.1 1.1s-0.5 1.1-1.1 1.1"/><path class="st0" d="m47.7 220.5h2.2c0.6 0 1.1 0.5 1.1 1.1s-0.5 1.1-1.1 1.1h-2.2c-0.6 0-1.1-0.5-1.1-1.1s0.5-1.1 1.1-1.1"/><path class="st4" d="m47.7 250.5h2.2c0.6 0 1.1 0.5 1.1 1.1s-0.5 1.1-1.1 1.1h-2.2c-0.6 0-1.1-0.5-1.1-1.1s0.5-1.1 1.1-1.1"/><path class="st4" d="m85.5 236.5h1.1c0 8.9-7.2 16-16 16-8.9 0-16-7.2-16-16 0-8.9 7.2-16 16-16 8.9 0 16 7.2 16 16h-2.1c0-3.8-1.6-7.3-4.1-9.8s-6-4.1-9.9-4.1c-3.8 0-7.3 1.6-9.8 4.1s-4.1 6-4.1 9.8c0 3.9 1.6 7.3 4.1 9.9 2.5 2.5 6 4.1 9.8 4.1 3.9 0 7.3-1.6 9.9-4.1 2.5-2.5 4.1-6 4.1-9.9h1"/></svg>