<?xml version="1.0" encoding="UTF-8" standalone="no"?><svg style="enable-background:new 0 0 389.7 318.5" xmlns="http://www.w3.org/2000/svg" xml:space="preserve" viewBox="0 0 389.7 318.5" version="1.1" y="0px" x="0px" xmlns:xlink="http://www.w3.org/1999/xlink"><style type="text/css">.st0{fill:#FFFFFF;}.st1{fill:#50BBB6;}.st2{enable-background:new;}.st3{fill:#D2492D;}.st4{fill:#5C4897;}.st5{fill:#D24A2C;}</style><path class="st0" d="m151.6 27.5c-1 0-1.8-0.8-1.8-1.8s0.8-1.8 1.8-1.8 1.8 0.8 1.8 1.8-0.9 1.8-1.8 1.8m0-3c-0.7 0-1.2 0.5-1.2 1.2s0.5 1.2 1.2 1.2 1.2-0.5 1.2-1.2c0-0.6-0.6-1.2-1.2-1.2"/><path class="st0" d="m169.2 17.9c-1.5 0-2.7-1.2-2.7-2.7s1.2-2.7 2.7-2.7 2.7 1.2 2.7 2.7-1.2 2.7-2.7 2.7m0-4.9c-1.2 0-2.2 1-2.2 2.2s1 2.2 2.2 2.2 2.2-1 2.2-2.2c-0.1-1.2-1-2.2-2.2-2.2"/><path class="st0" d="m179.3 27.1h-20.7c-0.7 0-1.3-0.7-1.3-1.5s0.6-1.5 1.3-1.5h20.7c0.7 0 1.3 0.7 1.3 1.5s-0.6 1.5-1.3 1.5m-20.7-2.4c-0.4 0-0.8 0.4-0.8 0.9s0.3 0.9 0.8 0.9h20.7c0.4 0 0.8-0.4 0.8-0.9s-0.3-0.9-0.8-0.9h-20.7z"/><path class="st0" d="m169.3 267.7c-5.6 0-10.1-4.5-10.1-10.1s4.5-10.1 10.1-10.1 10.1 4.5 10.1 10.1c0 5.6-4.5 10.1-10.1 10.1m0-19.6c-5.3 0-9.6 4.3-9.6 9.6s4.3 9.6 9.6 9.6 9.6-4.3 9.6-9.6-4.3-9.6-9.6-9.6"/><path class="st0" d="m169.3 269.7c-6.7 0-12.1-5.4-12.1-12.1s5.4-12.1 12.1-12.1 12.1 5.4 12.1 12.1-5.4 12.1-12.1 12.1m0-23.6c-6.4 0-11.6 5.2-11.6 11.6s5.2 11.5 11.6 11.5 11.5-5.2 11.5-11.5c0.1-6.4-5.1-11.6-11.5-11.6"/><path class="st0" d="m213.6 2h-22.4v-1.7h22.4v1.7zm-21.8-0.5h21.3v-0.7h-21.3v0.7z"/><path class="st0" d="m234.6 27.7h-3.2v-2.6h3.2v2.6zm-3-0.2h2.7v-2h-2.7v2z"/><path class="st0" d="m107.2 27.7h-3.6v-2.6h3.6v2.6zm-3.4-0.2h3.1v-2h-3.1v2z"/><path class="st0" d="m234.6 254.4h-3.2v-2.6h3.2v2.6zm-3-0.3h2.7v-2h-2.7v2z"/><path class="st0" d="m107.2 254.4h-3.6v-2.6h3.6v2.6zm-3.4-0.3h3.1v-2h-3.1v2z"/><path class="st0" d="m104 52.5h-1.8v-13h1.8v13zm-1.2-0.5h0.7v-11.9h-0.7v11.9z"/><path class="st0" d="m104 76.1h-1.8v-10.5h1.8v10.5zm-1.2-0.5h0.7v-9.4h-0.7v9.4z"/><path class="st0" d="m104 98.9h-1.8v-10.7h1.8v10.7zm-1.2-0.6h0.7v-9.6h-0.7v9.6z"/><path class="st1" d="m225.1 238.8h-111.6v-198.2h111.6v198.2zm-111.1-0.5h110.5v-197.2h-110.5v197.2z"/><path class="st0" d="m214.6 274.3h-90.8c-9.4 0-17.1-7.7-17.1-17.1v-235.5c0-9.4 7.7-17.1 17.1-17.1h90.8c9.4 0 17.1 7.7 17.1 17.1v235.6c0 9.4-7.6 17-17.1 17m-90.7-269.2c-9.1 0-16.5 7.4-16.5 16.5v235.6c0 9.1 7.4 16.5 16.5 16.5h90.8c9.1 0 16.5-7.4 16.5-16.5v-235.5c0-9.1-7.4-16.5-16.5-16.5h-90.8v-0.1z"/><g class="st2"><path class="st3" d="m286 227.2v-24.7c53.2-38.5 63.2-47 63.2-59.1 0-8.5-7.9-12.9-16.9-12.9-13.6 0-23.9 5.2-32.8 13.4l-17.5-21c13.1-14.4 32.6-20.4 49.7-20.4 28.9 0 49.7 16.2 49.7 40.9 0 18.8-13.4 34.8-44 56.2h44.9v27.6h-96.3z"/></g><path class="st0" d="m214.3 278.3h-90.4c-11.4 0-20.7-9.3-20.7-20.7v-158.4h-1.2v-11.2h1.2v-11.6h-1.2v-11h1.2v-12.6h-1.2v-13.5h1.2v-17.4c0-11.4 9.3-20.7 20.7-20.7h67.1v-1.2h22.9v1.2h0.4c11.4 0 20.7 9.3 20.7 20.7v235.7c0 11.5-9.3 20.7-20.7 20.7m-111.3-180.2h1.2v159.6c0 10.8 8.8 19.6 19.6 19.6h90.4c10.8 0 19.6-8.8 19.6-19.6v-235.8c0-10.8-8.8-19.6-19.6-19.6h-1.5v-1.2h-20.7v1.2h-68.2c-10.8 0-19.6 8.8-19.6 19.6v18.4h-1.2v11.4h1.2v14.7h-1.2v8.9h1.2v13.7h-1.2v9.1z"/><rect y="308.8" x="162" height="3.2" class="st4" width="3.2"/><rect y="302.3" x="168.5" height="3.2" class="st4" width="3.2"/><rect y="305.6" x="165.2" height="3.2" class="st4" width="3.2"/><rect y="315.3" x="168.5" height="3.2" class="st4" width="3.2"/><rect y="312" x="165.2" height="3.2" class="st4" width="3.2"/><rect y="308.8" x="168.5" height="3.2" class="st4" width="19.4"/><rect y="308.8" x="197.7" height="3.2" class="st4" width="3.2"/><rect y="302.3" x="204.2" height="3.2" class="st4" width="3.2"/><rect y="305.6" x="200.9" height="3.2" class="st4" width="3.2"/><rect y="315.3" x="204.2" height="3.2" class="st4" width="3.2"/><rect y="312" x="200.9" height="3.2" class="st4" width="3.2"/><rect y="308.8" x="223.7" height="3.2" class="st4" width="3.2"/><rect y="302.3" x="217.3" height="3.2" class="st4" width="3.2"/><rect y="305.6" x="220.5" height="3.2" class="st4" width="3.2"/><rect y="315.3" x="217.3" height="3.2" class="st4" width="3.2"/><rect y="312" x="220.5" height="3.2" class="st4" width="3.2"/><rect y="315.3" x="110" height="3.2" class="st4" width="3.2"/><rect y="312" x="113.2" height="3.2" class="st4" width="3.2"/><rect y="308.8" x="116.4" height="3.2" class="st4" width="3.2"/><rect y="305.6" x="119.7" height="3.2" class="st4" width="3.2"/><rect y="302.3" x="122.9" height="3.2" class="st4" width="3.2"/><rect y="302.3" x="110" height="3.2" class="st4" width="3.2"/><rect y="305.6" x="113.2" height="3.2" class="st4" width="3.2"/><rect y="312" x="119.7" height="3.2" class="st4" width="3.2"/><rect y="315.3" x="122.9" height="3.2" class="st4" width="3.2"/><rect y="315.3" x="136" height="3.2" class="st4" width="16.1"/><rect y="308.8" x="136" height="3.2" class="st4" width="16.1"/><rect y="302.3" x="136" height="3.2" class="st4" width="16.1"/><path class="st0" d="m91.2 2.9c0 8.9-7.2 16-16 16-8.9 0-16-7.2-16-16 0-0.6 0.5-1.1 1.1-1.1s1.1 0.5 1.1 1.1c0 3.9 1.6 7.3 4.1 9.9 2.5 2.5 6 4.1 9.8 4.1 3.9 0 7.3-1.6 9.9-4.1 2.5-2.5 4.1-6 4.1-9.9 0-0.6 0.5-1.1 1.1-1.1 0.3 0.1 0.8 0.6 0.8 1.1"/><path class="st0" d="m47.7 2.9c0 8.9-7.2 16-16 16-8.9 0-16-7.2-16-16 0-0.6 0.5-1.1 1.1-1.1s1.1 0.5 1.1 1.1c0 3.9 1.6 7.3 4.1 9.9 2.5 2.5 6 4.1 9.8 4.1 3.9 0 7.3-1.6 9.9-4.1 2.5-2.5 4.1-6 4.1-9.9 0-0.6 0.5-1.1 1.1-1.1 0.3 0.1 0.8 0.6 0.8 1.1"/><path class="st0" d="m59.1 32.9c0-8.9 7.2-16 16-16s16 7.2 16 16c0 0.6-0.5 1.1-1.1 1.1s-1.1-0.5-1.1-1.1c0-3.8-1.6-7.3-4.1-9.9-2.5-2.5-6-4.1-9.9-4.1-3.8 0-7.3 1.6-9.8 4.1s-4.1 6-4.1 9.9c0 0.6-0.5 1.1-1.1 1.1-0.3 0-0.8-0.5-0.8-1.1"/><path class="st4" d="m276.5 252.3l-6 6c-0.2 0.2-0.5 0.3-0.7 0.3h-23.9c-0.4 0-0.8-0.3-1-0.7s-0.1-0.8 0.2-1.1l6-6c0.4-0.4 1.1-0.4 1.5 0s0.4 1.1 0 1.5l-4.2 4.2h20.9l5.7-5.7c0.4-0.4 1.1-0.4 1.5 0 0.5 0.4 0.5 1.1 0 1.5"/><path class="st4" d="m252.6 228.4l-5.7 5.7v23.5c0 0.6-0.5 1.1-1.1 1.1s-1.1-0.5-1.1-1.1v-23.9c0-0.3 0.1-0.5 0.3-0.7l6-6c0.4-0.4 1.1-0.4 1.5 0 0.5 0.3 0.5 1 0.1 1.4"/><path class="st4" d="m312.6 256.9l5.7-5.7v-20.9l-4.2 4.2c-0.4 0.4-1.1 0.4-1.5 0s-0.4-1.1 0-1.5l6-6c0.3-0.3 0.8-0.4 1.1-0.2 0.4 0.2 0.7 0.5 0.7 1v23.9c0 0.3-0.1 0.5-0.3 0.7l-6 6c-0.4 0.4-1.1 0.4-1.5 0s-0.4-1.1 0-1.5"/><path class="st4" d="m288.6 233l6-6c0.2-0.2 0.5-0.3 0.7-0.3h23.9c0.6 0 1.1 0.5 1.1 1.1s-0.5 1.1-1.1 1.1h-23.5l-5.7 5.7c-0.4 0.4-1.1 0.4-1.5 0-0.3-0.6-0.3-1.2 0.1-1.6"/><path class="st4" d="m33.3 153.3h1.1c0 5.2-4.2 9.4-9.4 9.4s-9.4-4.2-9.4-9.4 4.2-9.4 9.4-9.4 9.4 4.2 9.4 9.4h-2.1c0-2-0.8-3.9-2.1-5.2s-3.2-2.1-5.2-2.1-3.9 0.8-5.2 2.1-2.1 3.2-2.1 5.2 0.8 3.9 2.1 5.2 3.2 2.1 5.2 2.1 3.9-0.8 5.2-2.1 2.1-3.2 2.1-5.2h1"/><path class="st0" d="m75.1 169.3h-15.6c-0.6 0-1.1-0.5-1.1-1.1s0.5-1.1 1.1-1.1h15.6c0.6 0 1.1 0.5 1.1 1.1-0.1 0.7-0.5 1.1-1.1 1.1"/><path class="st0" d="m75.1 139.4h-15.6c-0.6 0-1.1-0.5-1.1-1.1s0.5-1.1 1.1-1.1h15.6c0.6 0 1.1 0.5 1.1 1.1s-0.5 1.1-1.1 1.1"/><path class="st0" d="m60.1 154.4h-16.6c-0.6 0-1.1-0.5-1.1-1.1s0.5-1.1 1.1-1.1h16.6c0.6 0 1.1 0.5 1.1 1.1s-0.5 1.1-1.1 1.1"/><path class="st0" d="m52.3 137.3h2.2c0.6 0 1.1 0.5 1.1 1.1s-0.5 1.1-1.1 1.1h-2.2c-0.6 0-1.1-0.5-1.1-1.1s0.5-1.1 1.1-1.1"/><path class="st0" d="m52.3 167.2h2.2c0.6 0 1.1 0.5 1.1 1.1s-0.5 1.1-1.1 1.1h-2.2c-0.6 0-1.1-0.5-1.1-1.1s0.5-1.1 1.1-1.1"/><path class="st0" d="m88 271.3v1.1h-86.9c-0.3 0-0.5-0.1-0.7-0.3s-0.3-0.5-0.3-0.7v-59.6c0-0.3 0.1-0.5 0.3-0.7s0.5-0.3 0.7-0.3h86.9c0.3 0 0.5 0.1 0.7 0.3s0.3 0.5 0.3 0.7v59.6c0 0.3-0.1 0.6-0.3 0.7-0.2 0.2-0.5 0.3-0.7 0.3v-1.1h-1v-58.6h-84.8v57.5h85.8v1.1h-1 1"/><path class="st0" d="m1.1 221h86.9c0.6 0 1.1 0.5 1.1 1.1s-0.5 1.1-1.1 1.1h-86.9c-0.6 0-1.1-0.5-1.1-1.1s0.6-1.1 1.1-1.1"/><rect y="231.8" x="10.9" height="29.8" class="st4" width="29.8"/><rect y="231.8" x="48.5" height="29.8" class="st4" width="29.8"/><rect y="149.6" x="289.5" height=".8" class="st4" width="7.7"/><rect y="149.6" x="234.4" height=".8" class="st4" width="7.7"/><path class="st4" d="m290.8 149.2c-5.2-8.9-14.8-14.5-25.1-14.5s-19.9 5.5-25.1 14.5l-0.4 0.8h3.6c4.7-7.5 13-12.1 21.9-12.1s17.2 4.6 21.9 12.1c-4.7 7.5-13 12.1-21.9 12.1v3.1c10.3 0 19.9-5.5 25.1-14.5l0.5-0.8"/><path class="st0" d="m273.4 150h0.7c0 4.6-3.7 8.4-8.4 8.4-4.6 0-8.4-3.7-8.4-8.4 0-4.6 3.7-8.4 8.4-8.4s8.4 3.7 8.4 8.4h-1.4c0-1.9-0.8-3.7-2-4.9-1.3-1.3-3-2-4.9-2s-3.7 0.8-4.9 2c-1.3 1.3-2 3-2 4.9s0.8 3.7 2 4.9c1.3 1.3 3 2 4.9 2s3.7-0.8 4.9-2c1.3-1.3 2-3 2-4.9h0.7"/><path class="st0" d="m236.5 150c0 1.1-0.9 2.1-2.1 2.1-1.1 0-2.1-0.9-2.1-2.1 0-1.1 0.9-2.1 2.1-2.1 1.1 0 2.1 0.9 2.1 2.1"/><path class="st0" d="m299.2 150c0 1.1-0.9 2.1-2.1 2.1-1.1 0-2.1-0.9-2.1-2.1 0-1.1 0.9-2.1 2.1-2.1s2.1 0.9 2.1 2.1"/><path class="st4" d="m265.8 162.1v3.1c-10.3 0-19.9-5.5-25.1-14.5l-0.4-0.8h3.6c4.7 7.6 13 12.2 21.9 12.2"/><path class="st4" d="m271.5 150c0 3.1-2.6 5.7-5.7 5.7s-5.7-2.6-5.7-5.7 2.6-5.7 5.7-5.7 5.7 2.5 5.7 5.7"/><path class="st4" d="m90.1 153.3h1.1c0 8.9-7.2 16-16 16s-16-7.2-16-16c0-8.9 7.2-16 16-16 8.9 0 16 7.2 16 16h-2.2c0-3.9-1.6-7.3-4.1-9.9-2.5-2.5-6-4.1-9.9-4.1-3.8 0-7.3 1.6-9.8 4.1s-4.1 6-4.1 9.9c0 3.8 1.6 7.3 4.1 9.9 2.5 2.5 6 4.1 9.8 4.1 3.9 0 7.3-1.6 9.9-4.1 2.5-2.5 4.1-6 4.1-9.9h1.1"/><path class="st4" d="m177.6 257.6c0 4.6-3.7 8.3-8.3 8.3s-8.3-3.7-8.3-8.3c0-4.6 3.7-8.3 8.3-8.3s8.3 3.8 8.3 8.3"/><path class="st0" d="m313.3 233.7v1.1h-22.9v21.8h21.8v-22.9h1.1v1.1-1.1h1.1v23.9c0 0.3-0.1 0.5-0.3 0.7s-0.5 0.3-0.7 0.3h-23.9c-0.3 0-0.5-0.1-0.7-0.3s-0.3-0.5-0.3-0.7v-23.9c0-0.3 0.1-0.5 0.3-0.7s0.5-0.3 0.7-0.3h23.9c0.3 0 0.5 0.1 0.7 0.3s0.3 0.5 0.3 0.7h-1.1"/><path class="st0" d="m251.9 227.7v-1.1h23.9c0.3 0 0.5 0.1 0.7 0.3s0.3 0.5 0.3 0.7v23.9c0 0.3-0.1 0.5-0.3 0.7s-0.5 0.3-0.7 0.3h-23.9c-0.3 0-0.5-0.1-0.7-0.3s-0.3-0.5-0.3-0.7v-23.9c0-0.3 0.1-0.5 0.3-0.7s0.5-0.3 0.7-0.3v1.1h1.1v22.9h21.8v-21.8h-22.9v-1.1h1.1-1.1"/></svg>