<?xml version="1.0" encoding="utf-8"?>
<!-- Generator: Adobe Illustrator 21.1.0, SVG Export Plug-In . SVG Version: 6.00 Build 0)  -->
<svg version="1.1" id="Layer_1" xmlns="http://www.w3.org/2000/svg" xmlns:xlink="http://www.w3.org/1999/xlink" x="0px" y="0px"
	 viewBox="0 0 127 127" style="enable-background:new 0 0 127 127;" xml:space="preserve">
<style type="text/css">
	.st0{fill:none;stroke:#999999;stroke-width:2;stroke-miterlimit:10;stroke-dasharray:400,400;}
	.st1{fill:none;stroke:#743AD0;stroke-width:30;stroke-miterlimit:10;}
	.st2{fill:none;stroke:#808080;stroke-width:1.5;stroke-miterlimit:10;}
	.st3{fill:none;stroke:#FFFFFF;stroke-width:3;stroke-miterlimit:10;}
	.st4{fill:none;stroke:#808080;stroke-width:1.5;stroke-miterlimit:10;stroke-dasharray:100,100;}
</style>
<title>Asset 1</title>
<circle class="st0" cx="64.2" cy="63.5" r="62.5"/>
<line class="st1" x1="65.6" y1="36.6" x2="65.6" y2="90.1"/>
<circle id="_Path_4" class="st2" cx="65.6" cy="34.7" r="0.6"/>
<path class="st3" d="M69.2,77.9l-2,0c-2.6,0-4.7-2.1-4.7-4.7c0-0.1,0-0.1,0-0.2v-6.1c0-1.2-0.6-2.2-1.7-2.2v-2.1
	c1.2,0,1.7-1,1.7-2.2v-6.1c-0.1-2.6,1.9-4.8,4.5-4.9c0,0,0,0,0,0h2.3"/>
<path class="st4" d="M84.5,70.5v21.8c0,2.4-1.9,4.3-4.3,4.3H49.8c-2.4,0-4.3-1.9-4.3-4.3V70.5"/>
<path class="st4" d="M45.5,55.2V35.3c0-2.4,1.9-4.3,4.3-4.3h30.3c2.4,0,4.3,1.9,4.3,4.3v19.9"/>
</svg>
