<svg xmlns="http://www.w3.org/2000/svg" viewBox="0 0 127 127">
  <defs>
    <style>
      .cls-1 {
        fill: none;
        stroke: #999;
        stroke-width: 2px;
      }

      .cls-1, .cls-3 {
        stroke-miterlimit: 10;
      }

      .cls-2, .cls-3 {
        fill: gray;
      }

      .cls-3 {
        stroke: #000;
      }

      .cls-4 {
        fill: #d8157d;
      }

      .cls-5 {
        fill: #fff;
      }
        circle{stroke-dasharray: 400 400;stroke-dashoffset: 0;animation: circleAn 3s ease-in-out}@keyframes circleAn{to{stroke-dashoffset: 0;}from{stroke-dashoffset: 400;}}
    </style>
  </defs>
  <title>backend</title>
  <g id="Layer_2" data-name="Layer 2">
    <g id="Layer_1-2" data-name="Layer 1">
      <circle class="cls-1" cx="63.5" cy="63.5" r="62.5"/>
      <g>
        <g id="_Group_" data-name="&lt;Group&gt;">
          <path id="_Path_" data-name="&lt;Path&gt;" class="cls-2" d="M105.58,51.87h-1.49V36.59a3.21,3.21,0,0,0-3.1-3.22H27.5a3.21,3.21,0,0,0-3.1,3.22V51.87H22.91V36.59a4.72,4.72,0,0,1,4.59-4.71H101a4.72,4.72,0,0,1,4.59,4.71Z"/>
          <path id="_Path_2" data-name="&lt;Path&gt;" class="cls-3" d="M21.42,66"/>
          <path id="_Path_3" data-name="&lt;Path&gt;" class="cls-2" d="M101,88.25H27.5a4.72,4.72,0,0,1-4.59-4.71V66.76H24.4V83.54a3.21,3.21,0,0,0,3.1,3.22H101a3.21,3.21,0,0,0,3.1-3.22V66.76h1.49V83.54A4.72,4.72,0,0,1,101,88.25Z"/>
          <rect id="_Rectangle_" data-name="&lt;Rectangle&gt;" class="cls-4" x="28.03" y="38.2" width="73.11" height="43.35"/>
          <circle id="_Path_4" data-name="&lt;Path&gt;" class="cls-2" cx="64.85" cy="36.39" r="1.26"/>
        </g>
        <rect id="_Rectangle_2" data-name="&lt;Rectangle&gt;" class="cls-2" x="51.9" y="93.72" width="25.37" height="1.41"/>
      </g>
      <path class="cls-5" d="M61,75.07V44.68h7.11V47.2H63.72V72.55h4.41v2.52Z"/>
    </g>
  </g>
</svg>
