<svg xmlns="http://www.w3.org/2000/svg" viewBox="0 0 127 127"><defs><style>.\31 ce7e253-4c04-4547-bf34-fe03015aabfd,.\32 f90a643-e03b-4604-85b8-b1ce428bbf11,.\34 69895d0-2c37-4de7-a98e-82bea3156325,.\34 f33feb8-2705-4692-9209-e5283031247a,.aa2a7f99-6f0d-463a-b1c1-b86273a4c792,.f489aa23-0d81-4400-81ee-491a04008e91{fill:none;}.aa2a7f99-6f0d-463a-b1c1-b86273a4c792{stroke:#999;}.\31 ce7e253-4c04-4547-bf34-fe03015aabfd,.\32 f90a643-e03b-4604-85b8-b1ce428bbf11,.\34 69895d0-2c37-4de7-a98e-82bea3156325,.\34 f33feb8-2705-4692-9209-e5283031247a,.aa2a7f99-6f0d-463a-b1c1-b86273a4c792,.d45187c6-42f4-43fc-bc28-e4b17311077c,.f489aa23-0d81-4400-81ee-491a04008e91{stroke-miterlimit:10;}.\34 69895d0-2c37-4de7-a98e-82bea3156325,.\34 f33feb8-2705-4692-9209-e5283031247a,.aa2a7f99-6f0d-463a-b1c1-b86273a4c792,.f489aa23-0d81-4400-81ee-491a04008e91{stroke-width:2px;}.d45187c6-42f4-43fc-bc28-e4b17311077c{fill:#828181;stroke:#000;}.\31 ce7e253-4c04-4547-bf34-fe03015aabfd{stroke:#dd5732;stroke-width:31px;}.f489aa23-0d81-4400-81ee-491a04008e91{stroke:#e31719;}.\34 f33feb8-2705-4692-9209-e5283031247a{stroke:#838281;}.\32 f90a643-e03b-4604-85b8-b1ce428bbf11,.\34 69895d0-2c37-4de7-a98e-82bea3156325{stroke:#828181;}.\32 f90a643-e03b-4604-85b8-b1ce428bbf11{stroke-width:1.5px;}</style></defs><title>iot</title><g id="52c0f5d1-2c50-4d80-9f2b-6b6bfa57c2a3" data-name="Layer 2"><g id="b091d53d-fe2b-472b-a600-1c937ee547f7" data-name="Camada 1"><circle id="4fa7ed21-8f47-4e3f-b8ea-532c376f690e" data-name="&lt;Ellipse&gt;" class="aa2a7f99-6f0d-463a-b1c1-b86273a4c792" cx="63.5" cy="63.5" r="62.5"/><path id="cff75360-b2e4-4993-bbf0-bdb0ca8e10a7" data-name="&lt;Path&gt;" class="d45187c6-42f4-43fc-bc28-e4b17311077c" d="M41.62,69.73"/><line id="54dd05d3-7f75-4743-ad88-46b17dc4e5c0" data-name="&lt;Path&gt;" class="1ce7e253-4c04-4547-bf34-fe03015aabfd" x1="63.5" y1="91.74" x2="63.5" y2="38.38"/><path id="a3c69c30-9898-4c79-ab70-74eb13fbe503" data-name="&lt;Path&gt;" class="f489aa23-0d81-4400-81ee-491a04008e91" d="M37.07,68.17"/><polyline id="963329db-19df-4f07-afa5-96fc6efaad6b" data-name="&lt;Path&gt;" class="4f33feb8-2705-4692-9209-e5283031247a" points="31.41 73.08 36.55 68.17 37.37 68.17 44.74 68.17"/><polyline id="1ebdd08e-801a-450d-9af2-bd6484c3229f" data-name="&lt;Path&gt;" class="4f33feb8-2705-4692-9209-e5283031247a" points="95.36 73.08 90.21 68.17 89.4 68.17 82.03 68.17"/><polyline id="8c98d95b-6950-4d10-86bf-d7485fa60914" data-name="&lt;Path&gt;" class="4f33feb8-2705-4692-9209-e5283031247a" points="31.41 53.92 36.55 58.83 37.37 58.83 44.74 58.83"/><polyline id="3828d9d5-6291-495b-967b-392eb8a329d1" data-name="&lt;Path&gt;" class="4f33feb8-2705-4692-9209-e5283031247a" points="95.46 53.8 90.32 58.71 89.5 58.71 82.13 58.71"/><path id="a5dd040e-b682-4539-bf89-465f92406049" data-name="&lt;Path&gt;" class="469895d0-2c37-4de7-a98e-82bea3156325" d="M36.22,66.76"/><line id="d3cf0583-c0e2-4572-8649-7959c9d279dc" data-name="&lt;Path&gt;" class="469895d0-2c37-4de7-a98e-82bea3156325" x1="93.04" y1="65.06" x2="82.13" y2="65.06"/><line id="c717c756-11d8-429c-8c3c-40254456192b" data-name="&lt;Path&gt;" class="469895d0-2c37-4de7-a98e-82bea3156325" x1="44.74" y1="65.06" x2="33.83" y2="65.06"/><line id="7cec3683-29d4-4463-af56-1d2d0d1236ec" data-name="&lt;Path&gt;" class="469895d0-2c37-4de7-a98e-82bea3156325" x1="44.74" y1="61.94" x2="33.83" y2="61.94"/><line id="6b064a3d-f8a8-4647-aeb4-6dfaa7880aa1" data-name="&lt;Path&gt;" class="469895d0-2c37-4de7-a98e-82bea3156325" x1="93.04" y1="61.94" x2="82.13" y2="61.94"/><line id="3ff924c5-ef74-4153-b032-881b14fb9096" data-name="&lt;Path&gt;" class="469895d0-2c37-4de7-a98e-82bea3156325" x1="99.27" y1="61.94" x2="94.6" y2="61.94"/><line id="76ff6778-c6af-4a28-aae5-675a2d3f1920" data-name="&lt;Path&gt;" class="469895d0-2c37-4de7-a98e-82bea3156325" x1="99.27" y1="65.06" x2="94.6" y2="65.06"/><line id="dffecefa-d962-41a7-8f40-3cf0339c1c05" data-name="&lt;Path&gt;" class="469895d0-2c37-4de7-a98e-82bea3156325" x1="32.27" y1="65.06" x2="27.6" y2="65.06"/><line id="91a35af9-16e5-482d-9918-e8a246f88b4b" data-name="&lt;Path&gt;" class="469895d0-2c37-4de7-a98e-82bea3156325" x1="32.27" y1="61.94" x2="27.6" y2="61.94"/><path id="6dde4398-1b5c-4177-afd6-da234cf6cfd1" data-name="&lt;Path&gt;" class="469895d0-2c37-4de7-a98e-82bea3156325" d="M44,54.93V35.47a4.77,4.77,0,0,1,4.61-4.8H78.25a4.77,4.77,0,0,1,4.61,4.8V54.93"/><path id="cfd2fd14-d76a-43f0-945e-eb55180131a4" data-name="&lt;Path&gt;" class="469895d0-2c37-4de7-a98e-82bea3156325" d="M82.89,70.63V91.36a5,5,0,0,1-4.61,5.11H48.59A5,5,0,0,1,44,91.36V70.63"/><circle id="9b452e3e-2131-4212-9009-4541aae8cf7e" data-name="&lt;Path&gt;" class="2f90a643-e03b-4604-85b8-b1ce428bbf11" cx="63.43" cy="34.72" r="0.75"/><circle class="469895d0-2c37-4de7-a98e-82bea3156325" cx="29.22" cy="75.25" r="2.64"/><circle class="469895d0-2c37-4de7-a98e-82bea3156325" cx="29.22" cy="51.88" r="2.64"/><circle class="469895d0-2c37-4de7-a98e-82bea3156325" cx="97.78" cy="75.25" r="2.64"/><circle class="469895d0-2c37-4de7-a98e-82bea3156325" cx="96.22" cy="51.88" r="2.64"/></g></g></svg>