<svg xmlns="http://www.w3.org/2000/svg" viewBox="0 0 127 127">
    <defs>
        <style>
            .cls-1 {
            fill: none;
            stroke: #999;
            stroke-width: 2px;
            }

            .cls-1, .cls-3 {
            stroke-miterlimit: 10;
            }

            .cls-2, .cls-3 {
            fill: gray;
            }

            .cls-3 {
            stroke: #000;
            }

            .cls-4 {
            fill: #dd5632;
            }
            circle{stroke-dasharray: 400 400;stroke-dashoffset: 0;animation: circleAn 3s ease-in-out}@keyframes circleAn{to{stroke-dashoffset: 0;}from{stroke-dashoffset: 400;}}
        </style>
    </defs>
    <title>iot</title>
    <g id="Layer_2" data-name="Layer 2">
        <g id="Layer_1-2" data-name="Layer 1">
            <circle class="cls-1" cx="63.5" cy="63.5" r="62.5"/>
            <g id="_Group_" data-name="&lt;Group&gt;">
                <path id="_Path_" data-name="&lt;Path&gt;" class="cls-2"
                      d="M83.69,54.93H82.13v-20a3.36,3.36,0,0,0-3.24-3.37H48a3.36,3.36,0,0,0-3.24,3.37v20H43.18v-20A4.93,4.93,0,0,1,48,30H78.89a4.93,4.93,0,0,1,4.8,4.93Z"/>
                <path id="_Path_2" data-name="&lt;Path&gt;" class="cls-3" d="M41.62,69.73"/>
                <path id="_Path_3" data-name="&lt;Path&gt;" class="cls-2"
                      d="M78.89,97H48a4.93,4.93,0,0,1-4.8-4.93V70.51h1.56V92.07A3.36,3.36,0,0,0,48,95.44H78.89a3.36,3.36,0,0,0,3.24-3.37V70.51h1.56V92.07A4.93,4.93,0,0,1,78.89,97Z"/>
                <rect id="_Rectangle_" data-name="&lt;Rectangle&gt;" class="cls-4" x="48.53" y="36.62" width="30.51"
                      height="53.37"/>
                <circle id="_Path_4" data-name="&lt;Path&gt;" class="cls-2" cx="64.07" cy="34.72" r="1.31"/>
                <polygon id="_Path_5" data-name="&lt;Path&gt;" class="cls-2"
                         points="95.78 54 94.68 52.9 89.54 58.05 88.72 58.05 82.13 58.05 82.13 59.6 89.92 59.6 89.92 59.6 90.16 59.6 90.44 59.35 95.78 54"/>
                <polygon id="_Path_6" data-name="&lt;Path&gt;" class="cls-2"
                         points="30.71 54 31.82 52.9 36.96 58.05 37.77 58.05 44.74 58.05 44.74 59.6 36.57 59.6 36.57 59.6 36.33 59.6 36.05 59.35 30.71 54"/>
                <polygon id="_Path_7" data-name="&lt;Path&gt;" class="cls-2"
                         points="95.78 72.53 94.68 73.86 89.54 68.95 88.72 68.95 82.13 68.95 82.13 67.39 89.92 67.39 89.92 67.39 90.16 67.39 90.44 67.42 95.78 72.53"/>
                <polygon id="_Path_8" data-name="&lt;Path&gt;" class="cls-2"
                         points="30.71 72.53 31.82 73.86 36.96 68.95 37.77 68.95 44.74 68.95 44.74 67.39 36.57 67.39 36.57 67.39 36.33 67.39 36.05 67.42 30.71 72.53"/>
                <path id="_Compound_Path_" data-name="&lt;Compound Path&gt;" class="cls-2"
                      d="M96.22,55.32a3.44,3.44,0,1,1,3.44-3.44A3.44,3.44,0,0,1,96.22,55.32Zm0-5.32a1.88,1.88,0,1,0,1.88,1.88A1.88,1.88,0,0,0,96.22,50Z"/>
                <path id="_Compound_Path_2" data-name="&lt;Compound Path&gt;" class="cls-2"
                      d="M97.78,78.69a3.44,3.44,0,1,1,3.44-3.44A3.44,3.44,0,0,1,97.78,78.69Zm0-5.32a1.88,1.88,0,1,0,1.88,1.88A1.88,1.88,0,0,0,97.78,73.37Z"/>
                <path id="_Compound_Path_3" data-name="&lt;Compound Path&gt;" class="cls-2"
                      d="M29.22,55.32a3.44,3.44,0,1,1,3.44-3.44A3.44,3.44,0,0,1,29.22,55.32Zm0-5.32a1.88,1.88,0,1,0,1.88,1.88A1.88,1.88,0,0,0,29.22,50Z"/>
                <path id="_Compound_Path_4" data-name="&lt;Compound Path&gt;" class="cls-2"
                      d="M29.22,78.69a3.44,3.44,0,1,1,3.44-3.44A3.44,3.44,0,0,1,29.22,78.69Zm0-5.32a1.88,1.88,0,1,0,1.88,1.88A1.88,1.88,0,0,0,29.22,73.37Z"/>
                <rect id="_Path_9" data-name="&lt;Path&gt;" class="cls-2" x="82.13" y="61.16" width="10.91"
                      height="1.56"/>
                <rect id="_Path_10" data-name="&lt;Path&gt;" class="cls-2" x="94.6" y="61.16" width="4.67"
                      height="1.56"/>
                <rect id="_Path_11" data-name="&lt;Path&gt;" class="cls-2" x="82.13" y="64.28" width="10.91"
                      height="1.56"/>
                <rect id="_Path_12" data-name="&lt;Path&gt;" class="cls-2" x="94.6" y="64.28" width="4.67"
                      height="1.56"/>
                <rect id="_Path_13" data-name="&lt;Path&gt;" class="cls-2" x="33.83" y="61.16" width="10.91"
                      height="1.56"/>
                <rect id="_Path_14" data-name="&lt;Path&gt;" class="cls-2" x="27.6" y="61.16" width="4.67"
                      height="1.56"/>
                <rect id="_Path_15" data-name="&lt;Path&gt;" class="cls-2" x="33.83" y="64.28" width="10.91"
                      height="1.56"/>
                <rect id="_Path_16" data-name="&lt;Path&gt;" class="cls-2" x="27.6" y="64.28" width="4.67"
                      height="1.56"/>
            </g>
        </g>
    </g>
</svg>
