<svg xmlns="http://www.w3.org/2000/svg" viewBox="0 0 127 127">
  <defs>
    <style>
      .cls-1 {
        fill: none;
        stroke: #999;
        stroke-width: 2px;
      }

      .cls-1, .cls-3 {
        stroke-miterlimit: 10;
      }

      .cls-2, .cls-3 {
        fill: gray;
      }

      .cls-3 {
        stroke: #000;
      }

      .cls-4 {
        fill: #743ad0;
      }

      .cls-5 {
        fill: #fff;
      }
      circle{stroke-dasharray: 400 400;stroke-dashoffset: 0;animation: circleAn 3s ease-in-out}@keyframes circleAn{to{stroke-dashoffset: 0;}from{stroke-dashoffset: 400;}}
    </style>
  </defs>
  <title>mobile</title>
  <g id="Layer_2" data-name="Layer 2">
    <g id="Layer_1-2" data-name="Layer 1">
      <circle class="cls-1" cx="63.5" cy="63.5" r="62.5"/>
      <g id="_Group_" data-name="&lt;Group&gt;">
        <path id="_Path_" data-name="&lt;Path&gt;" class="cls-2" d="M84.54,54.93H83v-20a3.36,3.36,0,0,0-3.24-3.37H48.83a3.36,3.36,0,0,0-3.24,3.37v20H44v-20A4.93,4.93,0,0,1,48.83,30H79.73a4.93,4.93,0,0,1,4.8,4.93Z"/>
        <path id="_Path_2" data-name="&lt;Path&gt;" class="cls-3" d="M42.47,69.73"/>
        <path id="_Path_3" data-name="&lt;Path&gt;" class="cls-2" d="M79.73,97H48.83A4.93,4.93,0,0,1,44,92.07V70.51h1.56V92.07a3.36,3.36,0,0,0,3.24,3.37H79.73A3.36,3.36,0,0,0,83,92.07V70.51h1.56V92.07A4.93,4.93,0,0,1,79.73,97Z"/>
        <rect id="_Rectangle_" data-name="&lt;Rectangle&gt;" class="cls-4" x="49.37" y="36.62" width="30.51" height="53.37"/>
        <circle id="_Path_4" data-name="&lt;Path&gt;" class="cls-2" cx="64.91" cy="34.72" r="1.31"/>
      </g>
      <path class="cls-5" d="M65.83,78.69a5,5,0,0,1-5-5.18V67c0-1.29-.6-2.38-1.82-2.38V62.41c1.23,0,1.82-1.08,1.82-2.38V53.52a5,5,0,0,1,5-5.22H68v2.52H65.83a2.43,2.43,0,0,0-2.24,2.69v6.86c0,1.47-.46,2.63-1.61,3.12,1.15.49,1.61,1.65,1.61,3.12v6.86a2.45,2.45,0,0,0,2.24,2.7H68v2.52Z"/>
    </g>
  </g>
</svg>
