<svg xmlns="http://www.w3.org/2000/svg" viewBox="0 0 127 127"><defs><style>.\33 3b0ff79-7e11-45b9-930e-11f75c62810c,.\34 07a2a06-c78b-41c3-b335-6e64d5e03ed8,.\38 2096e82-3989-4728-ac0b-46d2741652ec,.\38 24ae0ee-1a7f-4baf-ae7a-7240550d8a25,.e110ae3c-3bd4-46cc-ba7e-afe58f8ac555{fill:none;}.\33 3b0ff79-7e11-45b9-930e-11f75c62810c{stroke:#999;}.\33 3b0ff79-7e11-45b9-930e-11f75c62810c,.\34 07a2a06-c78b-41c3-b335-6e64d5e03ed8,.\38 2096e82-3989-4728-ac0b-46d2741652ec,.\38 24ae0ee-1a7f-4baf-ae7a-7240550d8a25,.a7fbb4de-9756-4568-b1dd-98423dc90821,.e110ae3c-3bd4-46cc-ba7e-afe58f8ac555{stroke-miterlimit:10;}.\33 3b0ff79-7e11-45b9-930e-11f75c62810c,.\38 24ae0ee-1a7f-4baf-ae7a-7240550d8a25{stroke-width:2px;}.\38 2096e82-3989-4728-ac0b-46d2741652ec,.\38 24ae0ee-1a7f-4baf-ae7a-7240550d8a25{stroke:#828181;}.a7fbb4de-9756-4568-b1dd-98423dc90821{fill:#828181;stroke:#000;}.e110ae3c-3bd4-46cc-ba7e-afe58f8ac555{stroke:#624793;stroke-width:30px;}.\34 07a2a06-c78b-41c3-b335-6e64d5e03ed8{stroke:#fff;stroke-width:3px;}.\38 2096e82-3989-4728-ac0b-46d2741652ec{stroke-width:1.5px;}</style></defs><title>mobile</title><g id="34bfac50-51ea-4fe4-b55f-98c432000213" data-name="Layer 2"><g id="5c58edd9-f823-48e4-b86c-f39936416020" data-name="Camada 1"><circle id="a862dc57-b581-4d45-be51-896bd268b0f0" data-name="&lt;Ellipse&gt;" class="33b0ff79-7e11-45b9-930e-11f75c62810c" cx="63.5" cy="63.5" r="62.5"/><path id="8cc24cd3-6f31-4c85-b304-d4c709e87329" data-name="&lt;Path&gt;" class="824ae0ee-1a7f-4baf-ae7a-7240550d8a25" d="M45.51,54.93v-20A4.84,4.84,0,0,1,50.11,30H79.72a4.84,4.84,0,0,1,4.6,4.93v20"/><path id="66133463-9172-4536-9bf1-2d30a14c22ae" data-name="&lt;Path&gt;" class="824ae0ee-1a7f-4baf-ae7a-7240550d8a25" d="M84.32,71.29v20a4.84,4.84,0,0,1-4.6,4.93H50.11a4.84,4.84,0,0,1-4.6-4.93v-20"/><path id="dd1fd94d-c149-46cc-a529-11b51f6e4ced" data-name="&lt;Path&gt;" class="a7fbb4de-9756-4568-b1dd-98423dc90821" d="M42.47,69.73"/><line id="6f26f4e2-a85f-4fcc-bb50-f26e68968ecc" data-name="&lt;Path&gt;" class="e110ae3c-3bd4-46cc-ba7e-afe58f8ac555" x1="64.91" y1="90.18" x2="64.91" y2="36.82"/><g id="2fe4fa51-a666-4f4b-8473-851c57700fa1" data-name="&lt;Group&gt;"><path id="54f3588f-ca06-4238-bd99-cbc43ed0126c" data-name="&lt;Compound Path&gt;" class="407a2a06-c78b-41c3-b335-6e64d5e03ed8" d="M68,78.69H65.83a5,5,0,0,1-5-5.18V67c0-1.29-.6-2.38-1.82-2.38V62.41c1.23,0,1.82-1.08,1.82-2.38V53.52a5,5,0,0,1,5-5.22H68"/></g><circle id="1f6b4c80-53a9-4fd5-b462-4e4ec2aeb857" data-name="&lt;Path&gt;" class="82096e82-3989-4728-ac0b-46d2741652ec" cx="64.91" cy="34.33" r="0.75"/></g></g></svg>