<?xml version="1.0" encoding="utf-8"?>
<!-- Generator: Adobe Illustrator 21.1.0, SVG Export Plug-In . SVG Version: 6.00 Build 0)  -->
<svg version="1.1" id="Camada_1" xmlns="http://www.w3.org/2000/svg" xmlns:xlink="http://www.w3.org/1999/xlink" x="0px" y="0px"
	 viewBox="0 0 389.6 318.5" style="enable-background:new 0 0 389.6 318.5;" xml:space="preserve">
<style type="text/css">
	.st0{fill:#FFFFFF;}
	.st1{fill:#50BBB6;}
	.st2{enable-background:new    ;}
	.st3{fill:#D2492D;}
	.st4{fill:#5C4897;}
	.st5{fill:#D24A2C;}
</style>
<g>
	<g class="st2">
		<path class="st5" d="M336,213.9v-82.3l-20.6,20.8l-18.1-19L340.2,91h27.4v122.9H336z"/>
	</g>
	<polygon class="st0" points="71.7,51.5 71.7,50.1 258,50.1 258,237.8 70.3,237.8 70.3,50.1 71.7,50.1 71.7,51.5 73,51.5 73,235.1 
		255.3,235.1 255.3,52.8 71.7,52.8 71.7,51.5 73,51.5 	"/>
	<rect x="172.9" y="92" class="st4" width="44.8" height="2.7"/>
	<rect x="104.8" y="92" class="st0" width="51.2" height="2.7"/>
	<rect x="143.1" y="117.3" class="st0" width="74.6" height="2.7"/>
	<rect x="104.8" y="117.3" class="st4" width="20.7" height="2.7"/>
	<rect x="104.8" y="142.6" class="st4" width="112.8" height="2.7"/>
	<rect x="154.1" y="167.9" class="st0" width="63.5" height="2.7"/>
	<rect x="104.8" y="167.9" class="st0" width="34.4" height="2.7"/>
	<rect x="104.8" y="193.2" class="st4" width="112.8" height="2.7"/>
	<path class="st4" d="M28.7,236.5h1.1c0,5.2-4.2,9.4-9.4,9.4s-9.4-4.2-9.4-9.4s4.2-9.4,9.4-9.4s9.4,4.2,9.4,9.4h-2.1
		c0-2-0.8-3.9-2.1-5.2c-1.3-1.3-3.2-2.1-5.2-2.1s-3.9,0.8-5.2,2.1s-2.1,3.2-2.1,5.2s0.8,3.9,2.1,5.2s3.2,2.1,5.2,2.1
		s3.9-0.8,5.2-2.1c1.3-1.3,2.1-3.2,2.1-5.2H28.7"/>
	<path class="st4" d="M70.5,252.6H54.9c-0.6,0-1.1-0.5-1.1-1.1s0.5-1.1,1.1-1.1h15.6c0.6,0,1.1,0.5,1.1,1.1S71.1,252.6,70.5,252.6"
		/>
	<path class="st4" d="M70.5,222.6H54.9c-0.6,0-1.1-0.5-1.1-1.1s0.5-1.1,1.1-1.1h15.6c0.6,0,1.1,0.5,1.1,1.1
		C71.5,222.1,71.1,222.6,70.5,222.6"/>
	<path class="st0" d="M55.5,237.6H38.9c-0.6,0-1.1-0.5-1.1-1.1s0.5-1.1,1.1-1.1h16.6c0.6,0,1.1,0.5,1.1,1.1S56.1,237.6,55.5,237.6"
		/>
	<path class="st0" d="M47.7,220.5h2.2c0.6,0,1.1,0.5,1.1,1.1s-0.5,1.1-1.1,1.1h-2.2c-0.6,0-1.1-0.5-1.1-1.1
		C46.6,221,47.1,220.5,47.7,220.5"/>
	<path class="st4" d="M47.7,250.5h2.2c0.6,0,1.1,0.5,1.1,1.1s-0.5,1.1-1.1,1.1h-2.2c-0.6,0-1.1-0.5-1.1-1.1S47.1,250.5,47.7,250.5"
		/>
	<path class="st4" d="M85.5,236.5h1.1c0,8.9-7.2,16-16,16c-8.9,0-16-7.2-16-16c0-8.9,7.2-16,16-16c8.9,0,16,7.2,16,16h-2.1
		c0-3.8-1.6-7.3-4.1-9.8s-6-4.1-9.9-4.1c-3.8,0-7.3,1.6-9.8,4.1s-4.1,6-4.1,9.8c0,3.9,1.6,7.3,4.1,9.9c2.5,2.5,6,4.1,9.8,4.1
		c3.9,0,7.3-1.6,9.9-4.1c2.5-2.5,4.1-6,4.1-9.9H85.5"/>
</g>
</svg>
